<svg xmlns="http://www.w3.org/2000/svg" xmlns:xlink="http://www.w3.org/1999/xlink" width="500" zoomAndPan="magnify" viewBox="0 0 375 374.999991" height="500" preserveAspectRatio="xMidYMid meet" version="1.0"><defs><g/><clipPath id="9d102a9425"><path d="M 56 77 L 319 77 L 319 361.5 L 56 361.5 Z M 56 77 " clip-rule="nonzero"/></clipPath><clipPath id="d475070c2f"><path d="M 49.050781 33 L 325.800781 33 L 325.800781 78 L 49.050781 78 Z M 49.050781 33 " clip-rule="nonzero"/></clipPath><clipPath id="6eae57d0c1"><path d="M 241 109 L 264 109 L 264 313 L 241 313 Z M 241 109 " clip-rule="nonzero"/></clipPath><clipPath id="97b2ab21d7"><path d="M 239.539062 312.136719 L 255.636719 109.566406 L 265.515625 110.347656 L 249.417969 312.921875 Z M 239.539062 312.136719 " clip-rule="nonzero"/></clipPath><clipPath id="b155ed1f8b"><path d="M 253.40625 137.601562 C 254.636719 122.117188 257.847656 109.742188 260.574219 109.957031 C 263.300781 110.175781 264.515625 122.902344 263.285156 138.386719 L 251.644531 284.886719 C 250.414062 300.367188 247.207031 312.746094 244.476562 312.527344 C 241.75 312.3125 240.535156 299.585938 241.765625 284.101562 Z M 253.40625 137.601562 " clip-rule="nonzero"/></clipPath><clipPath id="35fe84d23f"><path d="M 111 110 L 136 110 L 136 312 L 111 312 Z M 111 110 " clip-rule="nonzero"/></clipPath><clipPath id="3b3de83ba2"><path d="M 127.082031 312.449219 L 109.480469 110.472656 L 119.875 109.566406 L 137.472656 311.542969 Z M 127.082031 312.449219 " clip-rule="nonzero"/></clipPath><clipPath id="288d7876ad"><path d="M 111.921875 138.492188 C 110.574219 123.015625 111.808594 110.269531 114.679688 110.019531 C 117.546875 109.769531 120.96875 122.109375 122.316406 137.585938 L 135.03125 283.523438 C 136.378906 299 135.148438 311.746094 132.277344 311.996094 C 129.40625 312.246094 125.988281 299.90625 124.640625 284.429688 Z M 111.921875 138.492188 " clip-rule="nonzero"/></clipPath><clipPath id="1a2100cd68"><path d="M 183.398438 109.5625 L 192.109375 109.5625 L 192.109375 312.445312 L 183.398438 312.445312 Z M 183.398438 109.5625 " clip-rule="nonzero"/></clipPath><clipPath id="62f98ace8e"><path d="M 183.398438 137.6875 C 183.398438 122.15625 185.347656 109.5625 187.753906 109.5625 C 190.160156 109.5625 192.109375 122.15625 192.109375 137.6875 L 192.109375 284.320312 C 192.109375 299.855469 190.160156 312.445312 187.753906 312.445312 C 185.347656 312.445312 183.398438 299.855469 183.398438 284.320312 Z M 183.398438 137.6875 " clip-rule="nonzero"/></clipPath><clipPath id="ca1375f5d8"><path d="M 128 0 L 246 0 L 246 33 L 128 33 Z M 128 0 " clip-rule="nonzero"/></clipPath></defs><g clip-path="url(#9d102a9425)"><path fill="#5271ff" d="M 268.988281 361.492188 L 105.867188 361.492188 C 93.132812 361.492188 81.859375 351.203125 80.691406 338.507812 L 56.652344 77.496094 L 318.199219 77.496094 L 294.164062 338.507812 C 292.992188 351.203125 281.722656 361.492188 268.988281 361.492188 " fill-opacity="1" fill-rule="nonzero"/></g><path fill="#5271ff" d="M 127.59375 332.050781 C 121.632812 332.050781 116.582031 327.464844 116.105469 321.410156 L 101.152344 129.617188 C 100.65625 123.265625 105.398438 117.707031 111.753906 117.210938 C 118.121094 116.796875 123.644531 121.472656 124.144531 127.820312 L 139.101562 319.617188 C 139.589844 325.964844 134.847656 331.527344 128.496094 332.023438 C 128.195312 332.042969 127.890625 332.050781 127.59375 332.050781 " fill-opacity="1" fill-rule="nonzero"/><path fill="#5271ff" d="M 187.425781 332.050781 C 181.054688 332.050781 175.890625 326.886719 175.890625 320.515625 L 175.890625 128.71875 C 175.890625 122.347656 181.054688 117.179688 187.425781 117.179688 C 193.796875 117.179688 198.957031 122.347656 198.957031 128.71875 L 198.957031 320.515625 C 198.957031 326.886719 193.796875 332.050781 187.425781 332.050781 " fill-opacity="1" fill-rule="nonzero"/><path fill="#5271ff" d="M 247.265625 332.050781 C 246.960938 332.050781 246.660156 332.042969 246.355469 332.023438 C 240.007812 331.527344 235.261719 325.964844 235.757812 319.617188 L 250.707031 127.820312 C 251.203125 121.46875 256.742188 116.699219 263.101562 117.210938 C 269.445312 117.707031 274.195312 123.265625 273.699219 129.617188 L 258.746094 321.410156 C 258.269531 327.464844 253.21875 332.050781 247.265625 332.050781 " fill-opacity="1" fill-rule="nonzero"/><g clip-path="url(#d475070c2f)"><path fill="#5271ff" d="M 325.78125 67.824219 C 325.78125 48.648438 310.253906 33.109375 291.105469 33.109375 L 83.746094 33.109375 C 64.597656 33.109375 49.066406 48.648438 49.066406 67.824219 L 49.066406 77.496094 L 325.78125 77.496094 L 325.78125 67.824219 " fill-opacity="1" fill-rule="nonzero"/></g><path fill="#5271ff" d="M 144.242188 33.105469 L 144.242188 23.089844 C 144.242188 18.851562 147.695312 15.394531 151.933594 15.394531 L 222.921875 15.394531 C 227.164062 15.394531 230.613281 18.851562 230.613281 23.089844 L 230.613281 33.105469 L 245.980469 33.105469 L 245.980469 23.089844 C 245.980469 10.363281 235.636719 0.0078125 222.921875 0.0078125 L 151.933594 0.0078125 C 139.214844 0.0078125 128.871094 10.363281 128.871094 23.089844 L 128.871094 33.105469 L 144.242188 33.105469 " fill-opacity="1" fill-rule="nonzero"/><path fill="#5271ff" d="M 57.359375 85.191406 L 317.496094 85.191406 L 318.199219 77.496094 L 56.652344 77.496094 L 57.359375 85.191406 " fill-opacity="1" fill-rule="nonzero"/><g clip-path="url(#6eae57d0c1)"><g clip-path="url(#97b2ab21d7)"><g clip-path="url(#b155ed1f8b)"><path fill="#545454" d="M 239.539062 312.136719 L 255.636719 109.566406 L 265.515625 110.347656 L 249.417969 312.921875 Z M 239.539062 312.136719 " fill-opacity="1" fill-rule="nonzero"/></g></g></g><g clip-path="url(#35fe84d23f)"><g clip-path="url(#3b3de83ba2)"><g clip-path="url(#288d7876ad)"><path fill="#545454" d="M 127.082031 312.449219 L 109.480469 110.472656 L 119.875 109.566406 L 137.472656 311.542969 Z M 127.082031 312.449219 " fill-opacity="1" fill-rule="nonzero"/></g></g></g><g clip-path="url(#1a2100cd68)"><g clip-path="url(#62f98ace8e)"><path fill="#545454" d="M 183.398438 312.445312 L 183.398438 109.5625 L 192.109375 109.5625 L 192.109375 312.445312 Z M 183.398438 312.445312 " fill-opacity="1" fill-rule="nonzero"/></g></g><path fill="#2e2a2a" d="M 128.296875 154.75 L 246.796875 154.75 C 255.847656 154.75 263.183594 162.082031 263.183594 171.125 L 263.183594 203.875 C 263.183594 212.917969 255.847656 220.25 246.796875 220.25 L 128.296875 220.25 C 119.246094 220.25 111.910156 212.917969 111.910156 203.875 L 111.910156 171.125 C 111.910156 162.082031 119.246094 154.75 128.296875 154.75 Z M 128.296875 154.75 " fill-opacity="1" fill-rule="nonzero"/><g fill="#ffffff" fill-opacity="1"><g transform="translate(127.92187, 201.749987)"><g><path d="M 14.5625 -28 C 15.945312 -28 17.242188 -27.597656 18.453125 -26.796875 C 19.671875 -25.992188 20.648438 -24.910156 21.390625 -23.546875 C 22.140625 -22.191406 22.515625 -20.675781 22.515625 -19 C 22.515625 -17.34375 22.140625 -15.832031 21.390625 -14.46875 C 20.648438 -13.113281 19.671875 -12.03125 18.453125 -11.21875 C 17.242188 -10.40625 15.945312 -10 14.5625 -10 L 7.203125 -10 L 7.59375 -10.71875 L 7.59375 -2.4375 C 7.59375 -1.75 7.378906 -1.171875 6.953125 -0.703125 C 6.523438 -0.234375 5.96875 0 5.28125 0 C 4.613281 0 4.066406 -0.234375 3.640625 -0.703125 C 3.210938 -1.171875 3 -1.75 3 -2.4375 L 3 -25.5625 C 3 -26.25 3.234375 -26.828125 3.703125 -27.296875 C 4.171875 -27.765625 4.75 -28 5.4375 -28 Z M 14.5625 -14.5625 C 15.0625 -14.5625 15.550781 -14.773438 16.03125 -15.203125 C 16.519531 -15.628906 16.921875 -16.179688 17.234375 -16.859375 C 17.554688 -17.535156 17.71875 -18.25 17.71875 -19 C 17.71875 -19.769531 17.554688 -20.488281 17.234375 -21.15625 C 16.921875 -21.820312 16.519531 -22.363281 16.03125 -22.78125 C 15.550781 -23.195312 15.0625 -23.40625 14.5625 -23.40625 L 7.125 -23.40625 L 7.59375 -24.125 L 7.59375 -13.921875 L 7.15625 -14.5625 Z M 14.5625 -14.5625 "/></g></g></g><g fill="#ffffff" fill-opacity="1"><g transform="translate(152.039468, 201.749987)"><g><path d="M 13.28125 -21.71875 L 4.640625 -1.40625 C 4.453125 -0.894531 4.164062 -0.5 3.78125 -0.21875 C 3.394531 0.0625 2.972656 0.203125 2.515625 0.203125 C 1.796875 0.203125 1.265625 0.00390625 0.921875 -0.390625 C 0.578125 -0.796875 0.40625 -1.289062 0.40625 -1.875 C 0.40625 -2.113281 0.441406 -2.367188 0.515625 -2.640625 L 10.484375 -26.5625 C 10.691406 -27.09375 11.015625 -27.503906 11.453125 -27.796875 C 11.898438 -28.085938 12.375 -28.207031 12.875 -28.15625 C 13.351562 -28.15625 13.800781 -28.015625 14.21875 -27.734375 C 14.632812 -27.453125 14.9375 -27.0625 15.125 -26.5625 L 24.953125 -3.125 C 25.085938 -2.769531 25.15625 -2.445312 25.15625 -2.15625 C 25.15625 -1.4375 24.921875 -0.863281 24.453125 -0.4375 C 23.992188 -0.0078125 23.484375 0.203125 22.921875 0.203125 C 22.441406 0.203125 22.007812 0.0546875 21.625 -0.234375 C 21.238281 -0.535156 20.9375 -0.9375 20.71875 -1.4375 L 12.125 -21.484375 Z M 5.875 -6.28125 L 8.078125 -10.875 L 18.875 -10.875 L 19.640625 -6.28125 Z M 5.875 -6.28125 "/></g></g></g><g fill="#ffffff" fill-opacity="1"><g transform="translate(177.596927, 201.749987)"><g><path d="M 14.5625 -28 C 15.945312 -28 17.242188 -27.597656 18.453125 -26.796875 C 19.671875 -25.992188 20.648438 -24.910156 21.390625 -23.546875 C 22.140625 -22.191406 22.515625 -20.675781 22.515625 -19 C 22.515625 -17.34375 22.140625 -15.832031 21.390625 -14.46875 C 20.648438 -13.113281 19.671875 -12.03125 18.453125 -11.21875 C 17.242188 -10.40625 15.945312 -10 14.5625 -10 L 7.203125 -10 L 7.59375 -10.71875 L 7.59375 -2.4375 C 7.59375 -1.75 7.378906 -1.171875 6.953125 -0.703125 C 6.523438 -0.234375 5.96875 0 5.28125 0 C 4.613281 0 4.066406 -0.234375 3.640625 -0.703125 C 3.210938 -1.171875 3 -1.75 3 -2.4375 L 3 -25.5625 C 3 -26.25 3.234375 -26.828125 3.703125 -27.296875 C 4.171875 -27.765625 4.75 -28 5.4375 -28 Z M 14.5625 -14.5625 C 15.0625 -14.5625 15.550781 -14.773438 16.03125 -15.203125 C 16.519531 -15.628906 16.921875 -16.179688 17.234375 -16.859375 C 17.554688 -17.535156 17.71875 -18.25 17.71875 -19 C 17.71875 -19.769531 17.554688 -20.488281 17.234375 -21.15625 C 16.921875 -21.820312 16.519531 -22.363281 16.03125 -22.78125 C 15.550781 -23.195312 15.0625 -23.40625 14.5625 -23.40625 L 7.125 -23.40625 L 7.59375 -24.125 L 7.59375 -13.921875 L 7.15625 -14.5625 Z M 14.5625 -14.5625 "/></g></g></g><g fill="#ffffff" fill-opacity="1"><g transform="translate(201.714525, 201.749987)"><g><path d="M 5.4375 -28 L 18.84375 -28 C 19.53125 -28 20.109375 -27.78125 20.578125 -27.34375 C 21.046875 -26.90625 21.28125 -26.335938 21.28125 -25.640625 C 21.28125 -24.972656 21.046875 -24.429688 20.578125 -24.015625 C 20.109375 -23.609375 19.53125 -23.40625 18.84375 -23.40625 L 7.640625 -23.40625 L 8 -24.078125 L 8 -16.28125 L 7.6875 -16.59375 L 17.046875 -16.59375 C 17.734375 -16.59375 18.3125 -16.375 18.78125 -15.9375 C 19.25 -15.5 19.484375 -14.929688 19.484375 -14.234375 C 19.484375 -13.566406 19.25 -13.023438 18.78125 -12.609375 C 18.3125 -12.203125 17.734375 -12 17.046875 -12 L 7.796875 -12 L 8 -12.3125 L 8 -4.234375 L 7.6875 -4.59375 L 18.84375 -4.59375 C 19.53125 -4.59375 20.109375 -4.359375 20.578125 -3.890625 C 21.046875 -3.429688 21.28125 -2.894531 21.28125 -2.28125 C 21.28125 -1.613281 21.046875 -1.066406 20.578125 -0.640625 C 20.109375 -0.210938 19.53125 0 18.84375 0 L 5.4375 0 C 4.75 0 4.171875 -0.234375 3.703125 -0.703125 C 3.234375 -1.171875 3 -1.75 3 -2.4375 L 3 -25.5625 C 3 -26.25 3.234375 -26.828125 3.703125 -27.296875 C 4.171875 -27.765625 4.75 -28 5.4375 -28 Z M 5.4375 -28 "/></g></g></g><g fill="#ffffff" fill-opacity="1"><g transform="translate(224.592247, 201.749987)"><g><path d="M 18.4375 -4.6875 C 19.132812 -4.6875 19.710938 -4.460938 20.171875 -4.015625 C 20.640625 -3.578125 20.875 -3.007812 20.875 -2.3125 C 20.875 -1.644531 20.640625 -1.09375 20.171875 -0.65625 C 19.710938 -0.21875 19.132812 0 18.4375 0 L 5.4375 0 C 4.75 0 4.171875 -0.234375 3.703125 -0.703125 C 3.234375 -1.171875 3 -1.75 3 -2.4375 L 3 -25.5625 C 3 -26.25 3.238281 -26.828125 3.71875 -27.296875 C 4.195312 -27.765625 4.8125 -28 5.5625 -28 C 6.195312 -28 6.757812 -27.765625 7.25 -27.296875 C 7.75 -26.828125 8 -26.25 8 -25.5625 L 8 -4 L 7.125 -4.6875 Z M 18.4375 -4.6875 "/></g></g></g><g clip-path="url(#ca1375f5d8)"><path fill="#737373" d="M 144.242188 33.105469 L 144.242188 23.089844 C 144.242188 18.851562 147.695312 15.394531 151.933594 15.394531 L 222.921875 15.394531 C 227.164062 15.394531 230.613281 18.851562 230.613281 23.089844 L 230.613281 33.105469 L 245.980469 33.105469 L 245.980469 23.089844 C 245.980469 10.363281 235.636719 0.0078125 222.921875 0.0078125 L 151.933594 0.0078125 C 139.214844 0.0078125 128.871094 10.363281 128.871094 23.089844 L 128.871094 33.105469 L 144.242188 33.105469 " fill-opacity="1" fill-rule="nonzero"/></g></svg>