<svg xmlns="http://www.w3.org/2000/svg" xmlns:xlink="http://www.w3.org/1999/xlink" width="500" zoomAndPan="magnify" viewBox="0 0 375 374.999991" height="500" preserveAspectRatio="xMidYMid meet" version="1.0"><defs><g/><clipPath id="ca6750554f"><path d="M 56 77 L 319 77 L 319 361.5 L 56 361.5 Z M 56 77 " clip-rule="nonzero"/></clipPath><clipPath id="ae4f3500a7"><path d="M 49.050781 33 L 325.800781 33 L 325.800781 78 L 49.050781 78 Z M 49.050781 33 " clip-rule="nonzero"/></clipPath><clipPath id="552652ee11"><path d="M 241 109 L 264 109 L 264 313 L 241 313 Z M 241 109 " clip-rule="nonzero"/></clipPath><clipPath id="d34126d67e"><path d="M 239.539062 312.136719 L 255.636719 109.566406 L 265.515625 110.347656 L 249.417969 312.921875 Z M 239.539062 312.136719 " clip-rule="nonzero"/></clipPath><clipPath id="4c5d085a5e"><path d="M 253.40625 137.601562 C 254.636719 122.117188 257.847656 109.742188 260.574219 109.957031 C 263.300781 110.175781 264.515625 122.902344 263.285156 138.386719 L 251.644531 284.886719 C 250.414062 300.367188 247.207031 312.746094 244.476562 312.527344 C 241.75 312.3125 240.535156 299.585938 241.765625 284.101562 Z M 253.40625 137.601562 " clip-rule="nonzero"/></clipPath><clipPath id="c2348826a6"><path d="M 111 110 L 136 110 L 136 312 L 111 312 Z M 111 110 " clip-rule="nonzero"/></clipPath><clipPath id="f8d23f57c5"><path d="M 127.082031 312.449219 L 109.480469 110.472656 L 119.875 109.566406 L 137.472656 311.542969 Z M 127.082031 312.449219 " clip-rule="nonzero"/></clipPath><clipPath id="1fa57d07bd"><path d="M 111.921875 138.492188 C 110.574219 123.015625 111.808594 110.269531 114.679688 110.019531 C 117.546875 109.769531 120.96875 122.109375 122.316406 137.585938 L 135.03125 283.523438 C 136.378906 299 135.148438 311.746094 132.277344 311.996094 C 129.40625 312.246094 125.988281 299.90625 124.640625 284.429688 Z M 111.921875 138.492188 " clip-rule="nonzero"/></clipPath><clipPath id="b7e9e12dac"><path d="M 183.398438 109.5625 L 192.109375 109.5625 L 192.109375 312.445312 L 183.398438 312.445312 Z M 183.398438 109.5625 " clip-rule="nonzero"/></clipPath><clipPath id="7806198d2d"><path d="M 183.398438 137.6875 C 183.398438 122.15625 185.347656 109.5625 187.753906 109.5625 C 190.160156 109.5625 192.109375 122.15625 192.109375 137.6875 L 192.109375 284.320312 C 192.109375 299.855469 190.160156 312.445312 187.753906 312.445312 C 185.347656 312.445312 183.398438 299.855469 183.398438 284.320312 Z M 183.398438 137.6875 " clip-rule="nonzero"/></clipPath></defs><g clip-path="url(#ca6750554f)"><path fill="#737373" d="M 268.988281 361.492188 L 105.867188 361.492188 C 93.132812 361.492188 81.859375 351.203125 80.691406 338.507812 L 56.652344 77.496094 L 318.199219 77.496094 L 294.164062 338.507812 C 292.992188 351.203125 281.722656 361.492188 268.988281 361.492188 " fill-opacity="1" fill-rule="nonzero"/></g><path fill="#737373" d="M 127.59375 332.050781 C 121.632812 332.050781 116.582031 327.464844 116.105469 321.410156 L 101.152344 129.617188 C 100.65625 123.265625 105.398438 117.707031 111.753906 117.210938 C 118.121094 116.796875 123.644531 121.472656 124.144531 127.820312 L 139.101562 319.617188 C 139.589844 325.964844 134.847656 331.527344 128.496094 332.023438 C 128.195312 332.042969 127.890625 332.050781 127.59375 332.050781 " fill-opacity="1" fill-rule="nonzero"/><path fill="#737373" d="M 187.425781 332.050781 C 181.054688 332.050781 175.890625 326.886719 175.890625 320.515625 L 175.890625 128.71875 C 175.890625 122.347656 181.054688 117.179688 187.425781 117.179688 C 193.796875 117.179688 198.957031 122.347656 198.957031 128.71875 L 198.957031 320.515625 C 198.957031 326.886719 193.796875 332.050781 187.425781 332.050781 " fill-opacity="1" fill-rule="nonzero"/><path fill="#737373" d="M 247.265625 332.050781 C 246.960938 332.050781 246.660156 332.042969 246.355469 332.023438 C 240.007812 331.527344 235.261719 325.964844 235.757812 319.617188 L 250.707031 127.820312 C 251.203125 121.46875 256.742188 116.699219 263.101562 117.210938 C 269.445312 117.707031 274.195312 123.265625 273.699219 129.617188 L 258.746094 321.410156 C 258.269531 327.464844 253.21875 332.050781 247.265625 332.050781 " fill-opacity="1" fill-rule="nonzero"/><g clip-path="url(#ae4f3500a7)"><path fill="#737373" d="M 325.78125 67.824219 C 325.78125 48.648438 310.253906 33.109375 291.105469 33.109375 L 83.746094 33.109375 C 64.597656 33.109375 49.066406 48.648438 49.066406 67.824219 L 49.066406 77.496094 L 325.78125 77.496094 L 325.78125 67.824219 " fill-opacity="1" fill-rule="nonzero"/></g><path fill="#737373" d="M 144.242188 33.105469 L 144.242188 23.089844 C 144.242188 18.851562 147.695312 15.394531 151.933594 15.394531 L 222.921875 15.394531 C 227.164062 15.394531 230.613281 18.851562 230.613281 23.089844 L 230.613281 33.105469 L 245.980469 33.105469 L 245.980469 23.089844 C 245.980469 10.363281 235.636719 0.0078125 222.921875 0.0078125 L 151.933594 0.0078125 C 139.214844 0.0078125 128.871094 10.363281 128.871094 23.089844 L 128.871094 33.105469 L 144.242188 33.105469 " fill-opacity="1" fill-rule="nonzero"/><path fill="#737373" d="M 57.359375 85.191406 L 317.496094 85.191406 L 318.199219 77.496094 L 56.652344 77.496094 L 57.359375 85.191406 " fill-opacity="1" fill-rule="nonzero"/><g clip-path="url(#552652ee11)"><g clip-path="url(#d34126d67e)"><g clip-path="url(#4c5d085a5e)"><path fill="#545454" d="M 239.539062 312.136719 L 255.636719 109.566406 L 265.515625 110.347656 L 249.417969 312.921875 Z M 239.539062 312.136719 " fill-opacity="1" fill-rule="nonzero"/></g></g></g><g clip-path="url(#c2348826a6)"><g clip-path="url(#f8d23f57c5)"><g clip-path="url(#1fa57d07bd)"><path fill="#545454" d="M 127.082031 312.449219 L 109.480469 110.472656 L 119.875 109.566406 L 137.472656 311.542969 Z M 127.082031 312.449219 " fill-opacity="1" fill-rule="nonzero"/></g></g></g><g clip-path="url(#b7e9e12dac)"><g clip-path="url(#7806198d2d)"><path fill="#545454" d="M 183.398438 312.445312 L 183.398438 109.5625 L 192.109375 109.5625 L 192.109375 312.445312 Z M 183.398438 312.445312 " fill-opacity="1" fill-rule="nonzero"/></g></g><path fill="#2e2a2a" d="M 125.59375 154.75 L 249.347656 154.75 C 258.386719 154.75 265.714844 162.082031 265.714844 171.125 L 265.714844 203.875 C 265.714844 212.917969 258.386719 220.25 249.347656 220.25 L 125.59375 220.25 C 116.554688 220.25 109.226562 212.917969 109.226562 203.875 L 109.226562 171.125 C 109.226562 162.082031 116.554688 154.75 125.59375 154.75 Z M 125.59375 154.75 " fill-opacity="1" fill-rule="nonzero"/><g fill="#ffffff" fill-opacity="1"><g transform="translate(125.220699, 201.749987)"><g><path d="M 23.4375 -28.078125 C 24.101562 -28.078125 24.679688 -27.859375 25.171875 -27.421875 C 25.671875 -26.984375 25.921875 -26.429688 25.921875 -25.765625 C 25.921875 -25.410156 25.84375 -25.050781 25.6875 -24.6875 L 15.796875 -1.5625 C 15.554688 -1.03125 15.21875 -0.632812 14.78125 -0.375 C 14.34375 -0.125 13.894531 0 13.4375 0 C 13.007812 -0.03125 12.59375 -0.171875 12.1875 -0.421875 C 11.789062 -0.671875 11.488281 -1.035156 11.28125 -1.515625 L 1.40625 -24.71875 C 1.320312 -24.875 1.265625 -25.039062 1.234375 -25.21875 C 1.210938 -25.394531 1.203125 -25.5625 1.203125 -25.71875 C 1.203125 -26.488281 1.476562 -27.082031 2.03125 -27.5 C 2.59375 -27.914062 3.128906 -28.125 3.640625 -28.125 C 4.648438 -28.125 5.382812 -27.601562 5.84375 -26.5625 L 14.59375 -5.953125 L 13.203125 -5.921875 L 21.234375 -26.5625 C 21.691406 -27.570312 22.425781 -28.078125 23.4375 -28.078125 Z M 23.4375 -28.078125 "/></g></g></g><g fill="#ffffff" fill-opacity="1"><g transform="translate(152.338, 201.749987)"><g><path d="M 8 -2.4375 C 8 -1.75 7.742188 -1.171875 7.234375 -0.703125 C 6.734375 -0.234375 6.148438 0 5.484375 0 C 4.734375 0 4.128906 -0.234375 3.671875 -0.703125 C 3.222656 -1.171875 3 -1.75 3 -2.4375 L 3 -25.5625 C 3 -26.25 3.238281 -26.828125 3.71875 -27.296875 C 4.195312 -27.765625 4.8125 -28 5.5625 -28 C 6.195312 -28 6.757812 -27.765625 7.25 -27.296875 C 7.75 -26.828125 8 -26.25 8 -25.5625 Z M 8 -2.4375 "/></g></g></g><g fill="#ffffff" fill-opacity="1"><g transform="translate(163.336904, 201.749987)"><g><path d="M 15 -28 C 16.914062 -28 18.617188 -27.640625 20.109375 -26.921875 C 21.609375 -26.203125 22.867188 -25.191406 23.890625 -23.890625 C 24.921875 -22.597656 25.695312 -21.101562 26.21875 -19.40625 C 26.738281 -17.71875 27 -15.914062 27 -14 C 27 -11.414062 26.53125 -9.0625 25.59375 -6.9375 C 24.664062 -4.820312 23.3125 -3.132812 21.53125 -1.875 C 19.757812 -0.625 17.582031 0 15 0 L 5.4375 0 C 4.75 0 4.171875 -0.234375 3.703125 -0.703125 C 3.234375 -1.171875 3 -1.75 3 -2.4375 L 3 -25.5625 C 3 -26.25 3.234375 -26.828125 3.703125 -27.296875 C 4.171875 -27.765625 4.75 -28 5.4375 -28 Z M 14.59375 -4.59375 C 16.28125 -4.59375 17.65625 -5.023438 18.71875 -5.890625 C 19.78125 -6.765625 20.554688 -7.914062 21.046875 -9.34375 C 21.546875 -10.769531 21.796875 -12.320312 21.796875 -14 C 21.796875 -15.25 21.65625 -16.441406 21.375 -17.578125 C 21.09375 -18.710938 20.660156 -19.710938 20.078125 -20.578125 C 19.492188 -21.441406 18.75 -22.128906 17.84375 -22.640625 C 16.9375 -23.148438 15.851562 -23.40625 14.59375 -23.40625 L 7.59375 -23.40625 L 8 -23.765625 L 8 -4.15625 L 7.765625 -4.59375 Z M 14.59375 -4.59375 "/></g></g></g><g fill="#ffffff" fill-opacity="1"><g transform="translate(191.934063, 201.749987)"><g><path d="M 5.875 0 C 5.132812 0 4.46875 -0.234375 3.875 -0.703125 C 3.289062 -1.171875 3 -1.75 3 -2.4375 L 3 -25.5625 C 3 -26.25 3.234375 -26.828125 3.703125 -27.296875 C 4.171875 -27.765625 4.75 -28 5.4375 -28 L 16.953125 -28 C 18.347656 -28 19.648438 -27.628906 20.859375 -26.890625 C 22.078125 -26.160156 23.054688 -25.148438 23.796875 -23.859375 C 24.546875 -22.566406 24.921875 -21.082031 24.921875 -19.40625 C 24.921875 -18.382812 24.710938 -17.394531 24.296875 -16.4375 C 23.890625 -15.476562 23.332031 -14.613281 22.625 -13.84375 C 21.914062 -13.070312 21.117188 -12.472656 20.234375 -12.046875 L 20.28125 -12.953125 C 21.03125 -12.554688 21.648438 -12.082031 22.140625 -11.53125 C 22.628906 -10.988281 23.015625 -10.40625 23.296875 -9.78125 C 23.578125 -9.15625 23.742188 -8.484375 23.796875 -7.765625 C 23.898438 -7.097656 23.972656 -6.507812 24.015625 -6 C 24.054688 -5.488281 24.132812 -5.0625 24.25 -4.71875 C 24.375 -4.375 24.609375 -4.109375 24.953125 -3.921875 C 25.546875 -3.578125 25.914062 -3.078125 26.0625 -2.421875 C 26.207031 -1.765625 26.050781 -1.1875 25.59375 -0.6875 C 25.300781 -0.332031 24.925781 -0.109375 24.46875 -0.015625 C 24.019531 0.078125 23.566406 0.078125 23.109375 -0.015625 C 22.660156 -0.109375 22.289062 -0.238281 22 -0.40625 C 21.539062 -0.664062 21.082031 -1.054688 20.625 -1.578125 C 20.175781 -2.097656 19.8125 -2.796875 19.53125 -3.671875 C 19.257812 -4.554688 19.125 -5.691406 19.125 -7.078125 C 19.125 -7.535156 19.039062 -7.957031 18.875 -8.34375 C 18.71875 -8.726562 18.492188 -9.0625 18.203125 -9.34375 C 17.910156 -9.625 17.535156 -9.835938 17.078125 -9.984375 C 16.628906 -10.128906 16.097656 -10.203125 15.484375 -10.203125 L 7.40625 -10.203125 L 8 -11.125 L 8 -2.4375 C 8 -1.75 7.8125 -1.171875 7.4375 -0.703125 C 7.0625 -0.234375 6.539062 0 5.875 0 Z M 7.4375 -14.3125 L 16.765625 -14.3125 C 17.242188 -14.3125 17.707031 -14.53125 18.15625 -14.96875 C 18.613281 -15.414062 18.988281 -16.019531 19.28125 -16.78125 C 19.570312 -17.539062 19.71875 -18.375 19.71875 -19.28125 C 19.71875 -20.457031 19.40625 -21.4375 18.78125 -22.21875 C 18.15625 -23.007812 17.484375 -23.40625 16.765625 -23.40625 L 7.515625 -23.40625 L 8 -24.6875 L 8 -13.359375 Z M 7.4375 -14.3125 "/></g></g></g><g fill="#ffffff" fill-opacity="1"><g transform="translate(219.411337, 201.749987)"><g><path d="M 28.765625 -14 C 28.765625 -12 28.429688 -10.128906 27.765625 -8.390625 C 27.097656 -6.660156 26.15625 -5.132812 24.9375 -3.8125 C 23.726562 -2.5 22.289062 -1.46875 20.625 -0.71875 C 18.957031 0.03125 17.132812 0.40625 15.15625 0.40625 C 13.1875 0.40625 11.375 0.03125 9.71875 -0.71875 C 8.0625 -1.46875 6.625 -2.5 5.40625 -3.8125 C 4.195312 -5.132812 3.257812 -6.660156 2.59375 -8.390625 C 1.925781 -10.128906 1.59375 -12 1.59375 -14 C 1.59375 -16 1.925781 -17.863281 2.59375 -19.59375 C 3.257812 -21.332031 4.195312 -22.859375 5.40625 -24.171875 C 6.625 -25.492188 8.0625 -26.53125 9.71875 -27.28125 C 11.375 -28.03125 13.1875 -28.40625 15.15625 -28.40625 C 17.132812 -28.40625 18.957031 -28.03125 20.625 -27.28125 C 22.289062 -26.53125 23.726562 -25.492188 24.9375 -24.171875 C 26.15625 -22.859375 27.097656 -21.332031 27.765625 -19.59375 C 28.429688 -17.863281 28.765625 -16 28.765625 -14 Z M 23.5625 -14 C 23.5625 -15.789062 23.203125 -17.410156 22.484375 -18.859375 C 21.765625 -20.316406 20.773438 -21.46875 19.515625 -22.3125 C 18.265625 -23.164062 16.8125 -23.59375 15.15625 -23.59375 C 13.507812 -23.59375 12.054688 -23.164062 10.796875 -22.3125 C 9.546875 -21.46875 8.566406 -20.320312 7.859375 -18.875 C 7.148438 -17.4375 6.796875 -15.8125 6.796875 -14 C 6.796875 -12.207031 7.148438 -10.582031 7.859375 -9.125 C 8.566406 -7.675781 9.546875 -6.523438 10.796875 -5.671875 C 12.054688 -4.828125 13.507812 -4.40625 15.15625 -4.40625 C 16.8125 -4.40625 18.265625 -4.828125 19.515625 -5.671875 C 20.773438 -6.523438 21.765625 -7.675781 22.484375 -9.125 C 23.203125 -10.582031 23.5625 -12.207031 23.5625 -14 Z M 23.5625 -14 "/></g></g></g></svg>