<svg xmlns="http://www.w3.org/2000/svg" xmlns:xlink="http://www.w3.org/1999/xlink" width="500" zoomAndPan="magnify" viewBox="0 0 375 374.999991" height="500" preserveAspectRatio="xMidYMid meet" version="1.0"><defs><g/><clipPath id="48dbbb3e06"><path d="M 50.378906 50.378906 L 324.878906 50.378906 L 324.878906 324.878906 L 50.378906 324.878906 Z M 50.378906 50.378906 " clip-rule="nonzero"/></clipPath><clipPath id="f27ec547c5"><path d="M 140 143 L 287 143 L 287 301.90625 L 140 301.90625 Z M 140 143 " clip-rule="nonzero"/></clipPath><clipPath id="8edebea00d"><path d="M 136.308594 118 L 290.808594 118 L 290.808594 144 L 136.308594 144 Z M 136.308594 118 " clip-rule="nonzero"/></clipPath><clipPath id="d8e550071f"><path d="M 180 100.15625 L 247 100.15625 L 247 119 L 180 119 Z M 180 100.15625 " clip-rule="nonzero"/></clipPath><clipPath id="ee99299b46"><path d="M 243 161 L 257 161 L 257 275 L 243 275 Z M 243 161 " clip-rule="nonzero"/></clipPath><clipPath id="5954e177d8"><path d="M 242.617188 274.347656 L 251.597656 161.296875 L 257.113281 161.734375 L 248.128906 274.785156 Z M 242.617188 274.347656 " clip-rule="nonzero"/></clipPath><clipPath id="c5d4d69802"><path d="M 250.355469 176.945312 C 251.042969 168.304688 252.832031 161.394531 254.355469 161.515625 C 255.878906 161.636719 256.554688 168.742188 255.867188 177.382812 L 249.371094 259.136719 C 248.683594 267.777344 246.894531 274.6875 245.371094 274.566406 C 243.851562 274.445312 243.171875 267.339844 243.859375 258.699219 Z M 250.355469 176.945312 " clip-rule="nonzero"/></clipPath><clipPath id="fa16414627"><path d="M 171 161 L 185 161 L 185 275 L 171 275 Z M 171 161 " clip-rule="nonzero"/></clipPath><clipPath id="bacae50de0"><path d="M 179.855469 274.515625 L 170.03125 161.796875 L 175.832031 161.292969 L 185.652344 274.011719 Z M 179.855469 274.515625 " clip-rule="nonzero"/></clipPath><clipPath id="df669045da"><path d="M 171.394531 177.433594 C 170.644531 168.800781 171.332031 161.683594 172.933594 161.546875 C 174.535156 161.40625 176.441406 168.292969 177.195312 176.929688 L 184.292969 258.375 C 185.042969 267.007812 184.355469 274.121094 182.753906 274.261719 C 181.152344 274.402344 179.246094 267.515625 178.492188 258.878906 Z M 171.394531 177.433594 " clip-rule="nonzero"/></clipPath><clipPath id="978716a3d6"><path d="M 211.277344 161.300781 L 216.140625 161.300781 L 216.140625 274.523438 L 211.277344 274.523438 Z M 211.277344 161.300781 " clip-rule="nonzero"/></clipPath><clipPath id="edd7857493"><path d="M 211.277344 176.996094 C 211.277344 168.328125 212.367188 161.300781 213.710938 161.300781 C 215.050781 161.300781 216.140625 168.328125 216.140625 176.996094 L 216.140625 258.828125 C 216.140625 267.496094 215.050781 274.523438 213.710938 274.523438 C 212.367188 274.523438 211.277344 267.496094 211.277344 258.828125 Z M 211.277344 176.996094 " clip-rule="nonzero"/></clipPath><clipPath id="9fd02c6f78"><path d="M 146.789062 182.441406 L 280.355469 182.441406 L 280.355469 227.539062 L 146.789062 227.539062 Z M 146.789062 182.441406 " clip-rule="nonzero"/></clipPath><clipPath id="a08551bd9b"><path d="M 164.039062 182.441406 L 263.105469 182.441406 C 267.679688 182.441406 272.066406 184.261719 275.300781 187.496094 C 278.539062 190.730469 280.355469 195.117188 280.355469 199.691406 L 280.355469 210.289062 C 280.355469 214.863281 278.539062 219.25 275.300781 222.484375 C 272.066406 225.71875 267.679688 227.539062 263.105469 227.539062 L 164.039062 227.539062 C 159.460938 227.539062 155.074219 225.71875 151.839844 222.484375 C 148.605469 219.25 146.789062 214.863281 146.789062 210.289062 L 146.789062 199.691406 C 146.789062 195.117188 148.605469 190.730469 151.839844 187.496094 C 155.074219 184.261719 159.460938 182.441406 164.039062 182.441406 Z M 164.039062 182.441406 " clip-rule="nonzero"/></clipPath><clipPath id="242876fcf7"><path d="M 83.234375 87.050781 L 119.984375 87.050781 L 119.984375 123.800781 L 83.234375 123.800781 Z M 83.234375 87.050781 " clip-rule="nonzero"/></clipPath><clipPath id="aca134c4e0"><path d="M 88.289062 92.105469 L 114.539062 92.105469 L 114.539062 118.355469 L 88.289062 118.355469 Z M 88.289062 92.105469 " clip-rule="nonzero"/></clipPath></defs><g clip-path="url(#48dbbb3e06)"><path fill="#00bf63" d="M 96.128906 50.378906 C 70.929688 50.378906 50.378906 70.929688 50.378906 96.128906 L 50.378906 279.128906 C 50.378906 304.328125 70.929688 324.878906 96.128906 324.878906 L 279.128906 324.878906 C 304.328125 324.878906 324.878906 304.328125 324.878906 279.128906 L 324.878906 96.128906 C 324.878906 70.929688 304.328125 50.378906 279.128906 50.378906 Z M 96.128906 63.449219 L 279.128906 63.449219 C 297.253906 63.449219 311.804688 78 311.804688 96.128906 L 311.804688 279.128906 C 311.804688 297.253906 297.253906 311.804688 279.128906 311.804688 L 96.128906 311.804688 C 78 311.804688 63.449219 297.253906 63.449219 279.128906 L 63.449219 96.128906 C 63.449219 78 78 63.449219 96.128906 63.449219 Z M 96.128906 63.449219 " fill-opacity="1" fill-rule="nonzero"/></g><g clip-path="url(#f27ec547c5)"><path fill="#ff3131" d="M 259.089844 301.902344 L 168.027344 301.902344 C 160.917969 301.902344 154.625 296.160156 153.972656 289.074219 L 140.554688 143.40625 L 286.5625 143.40625 L 273.144531 289.074219 C 272.488281 296.160156 266.199219 301.902344 259.089844 301.902344 " fill-opacity="1" fill-rule="nonzero"/></g><path fill="#ff3131" d="M 180.15625 285.46875 C 176.828125 285.46875 174.007812 282.910156 173.742188 279.53125 L 165.394531 172.496094 C 165.117188 168.949219 167.765625 165.847656 171.3125 165.570312 C 174.867188 165.339844 177.953125 167.949219 178.230469 171.492188 L 186.582031 278.53125 C 186.855469 282.074219 184.207031 285.175781 180.660156 285.457031 C 180.492188 285.46875 180.320312 285.46875 180.15625 285.46875 " fill-opacity="1" fill-rule="nonzero"/><path fill="#ff3131" d="M 213.558594 285.46875 C 210 285.46875 207.117188 282.589844 207.117188 279.03125 L 207.117188 171.992188 C 207.117188 168.4375 210 165.550781 213.558594 165.550781 C 217.113281 165.550781 219.996094 168.4375 219.996094 171.992188 L 219.996094 279.03125 C 219.996094 282.589844 217.113281 285.46875 213.558594 285.46875 " fill-opacity="1" fill-rule="nonzero"/><path fill="#ff3131" d="M 246.964844 285.46875 C 246.792969 285.46875 246.625 285.46875 246.457031 285.457031 C 242.914062 285.175781 240.261719 282.074219 240.539062 278.53125 L 248.882812 171.492188 C 249.164062 167.945312 252.253906 165.285156 255.804688 165.570312 C 259.347656 165.847656 261.996094 168.949219 261.71875 172.496094 L 253.371094 279.53125 C 253.105469 282.910156 250.285156 285.46875 246.964844 285.46875 " fill-opacity="1" fill-rule="nonzero"/><g clip-path="url(#8edebea00d)"><path fill="#ff3131" d="M 290.796875 138.007812 C 290.796875 127.304688 282.125 118.632812 271.4375 118.632812 L 155.679688 118.632812 C 144.988281 118.632812 136.316406 127.304688 136.316406 138.007812 L 136.316406 143.40625 L 290.796875 143.40625 L 290.796875 138.007812 " fill-opacity="1" fill-rule="nonzero"/></g><g clip-path="url(#d8e550071f)"><path fill="#ff3131" d="M 189.449219 118.632812 L 189.449219 113.042969 C 189.449219 110.675781 191.378906 108.75 193.746094 108.75 L 233.371094 108.75 C 235.742188 108.75 237.667969 110.675781 237.667969 113.042969 L 237.667969 118.632812 L 246.246094 118.632812 L 246.246094 113.042969 C 246.246094 105.9375 240.472656 100.160156 233.371094 100.160156 L 193.746094 100.160156 C 186.644531 100.160156 180.867188 105.9375 180.867188 113.042969 L 180.867188 118.632812 L 189.449219 118.632812 " fill-opacity="1" fill-rule="nonzero"/></g><path fill="#ff3131" d="M 140.949219 147.699219 L 286.167969 147.699219 L 286.5625 143.40625 L 140.554688 143.40625 L 140.949219 147.699219 " fill-opacity="1" fill-rule="nonzero"/><g clip-path="url(#ee99299b46)"><g clip-path="url(#5954e177d8)"><g clip-path="url(#c5d4d69802)"><path fill="#545454" d="M 242.617188 274.347656 L 251.597656 161.296875 L 257.113281 161.734375 L 248.128906 274.785156 Z M 242.617188 274.347656 " fill-opacity="1" fill-rule="nonzero"/></g></g></g><g clip-path="url(#fa16414627)"><g clip-path="url(#bacae50de0)"><g clip-path="url(#df669045da)"><path fill="#545454" d="M 179.855469 274.515625 L 170.03125 161.796875 L 175.832031 161.292969 L 185.652344 274.011719 Z M 179.855469 274.515625 " fill-opacity="1" fill-rule="nonzero"/></g></g></g><g clip-path="url(#978716a3d6)"><g clip-path="url(#edd7857493)"><path fill="#545454" d="M 211.277344 274.523438 L 211.277344 161.300781 L 216.140625 161.300781 L 216.140625 274.523438 Z M 211.277344 274.523438 " fill-opacity="1" fill-rule="nonzero"/></g></g><g clip-path="url(#9fd02c6f78)"><g clip-path="url(#a08551bd9b)"><path fill="#2e2a2a" d="M 146.789062 182.441406 L 280.355469 182.441406 L 280.355469 227.539062 L 146.789062 227.539062 Z M 146.789062 182.441406 " fill-opacity="1" fill-rule="nonzero"/></g></g><g clip-path="url(#242876fcf7)"><path fill="#000000" d="M 113.09375 89.875 C 115.332031 89.875 117.15625 91.699219 117.15625 93.941406 L 117.15625 116.910156 C 117.15625 119.148438 115.332031 120.972656 113.09375 120.972656 L 90.125 120.972656 C 87.882812 120.972656 86.058594 119.148438 86.058594 116.910156 L 86.058594 93.941406 C 86.058594 91.699219 87.882812 89.875 90.125 89.875 L 113.09375 89.875 M 113.09375 87.050781 L 90.125 87.050781 C 86.316406 87.050781 83.234375 90.132812 83.234375 93.941406 L 83.234375 116.910156 C 83.234375 120.714844 86.316406 123.800781 90.125 123.800781 L 113.09375 123.800781 C 116.898438 123.800781 119.984375 120.714844 119.984375 116.910156 L 119.984375 93.941406 C 119.984375 90.132812 116.898438 87.050781 113.09375 87.050781 Z M 113.09375 87.050781 " fill-opacity="1" fill-rule="nonzero"/></g><g clip-path="url(#aca134c4e0)"><path fill="#ffffff" d="M 114.539062 115.4375 C 114.539062 117.050781 113.230469 118.355469 111.621094 118.355469 L 91.203125 118.355469 C 89.59375 118.355469 88.289062 117.050781 88.289062 115.4375 L 88.289062 95.019531 C 88.289062 93.410156 89.59375 92.105469 91.203125 92.105469 L 111.621094 92.105469 C 113.230469 92.105469 114.539062 93.410156 114.539062 95.019531 Z M 114.539062 115.4375 " fill-opacity="1" fill-rule="nonzero"/></g><path fill="#00bf63" d="M 109.636719 96.742188 C 108.796875 96.195312 107.667969 96.4375 107.117188 97.28125 L 99.179688 109.515625 L 95.511719 106.125 C 94.773438 105.441406 93.621094 105.488281 92.9375 106.226562 C 92.253906 106.964844 92.296875 108.117188 93.039062 108.800781 L 98.292969 113.660156 C 98.644531 113.988281 99.089844 114.148438 99.53125 114.148438 C 100.019531 114.148438 100.648438 113.941406 101.0625 113.316406 C 101.304688 112.949219 110.175781 99.265625 110.175781 99.265625 C 110.722656 98.421875 110.484375 97.292969 109.636719 96.742188 Z M 109.636719 96.742188 " fill-opacity="1" fill-rule="nonzero"/><g fill="#ffffff" fill-opacity="1"><g transform="translate(174.931566, 211.268269)"><g><path d="M 6.40625 -12.3125 C 7.007812 -12.3125 7.578125 -12.132812 8.109375 -11.78125 C 8.640625 -11.425781 9.066406 -10.945312 9.390625 -10.34375 C 9.722656 -9.75 9.890625 -9.082031 9.890625 -8.34375 C 9.890625 -7.625 9.722656 -6.960938 9.390625 -6.359375 C 9.066406 -5.765625 8.640625 -5.285156 8.109375 -4.921875 C 7.578125 -4.566406 7.007812 -4.390625 6.40625 -4.390625 L 3.171875 -4.390625 L 3.34375 -4.71875 L 3.34375 -1.078125 C 3.34375 -0.765625 3.25 -0.503906 3.0625 -0.296875 C 2.875 -0.0976562 2.628906 0 2.328125 0 C 2.023438 0 1.78125 -0.0976562 1.59375 -0.296875 C 1.40625 -0.503906 1.3125 -0.765625 1.3125 -1.078125 L 1.3125 -11.234375 C 1.3125 -11.535156 1.414062 -11.789062 1.625 -12 C 1.832031 -12.207031 2.085938 -12.3125 2.390625 -12.3125 Z M 6.40625 -6.40625 C 6.625 -6.40625 6.835938 -6.5 7.046875 -6.6875 C 7.253906 -6.875 7.425781 -7.113281 7.5625 -7.40625 C 7.707031 -7.707031 7.78125 -8.019531 7.78125 -8.34375 C 7.78125 -8.6875 7.707031 -9.003906 7.5625 -9.296875 C 7.425781 -9.585938 7.253906 -9.820312 7.046875 -10 C 6.835938 -10.1875 6.625 -10.28125 6.40625 -10.28125 L 3.125 -10.28125 L 3.34375 -10.59375 L 3.34375 -6.125 L 3.140625 -6.40625 Z M 6.40625 -6.40625 "/></g></g></g><g fill="#ffffff" fill-opacity="1"><g transform="translate(185.531718, 211.268269)"><g><path d="M 8.109375 -2.0625 C 8.410156 -2.0625 8.660156 -1.960938 8.859375 -1.765625 C 9.066406 -1.578125 9.171875 -1.328125 9.171875 -1.015625 C 9.171875 -0.722656 9.066406 -0.476562 8.859375 -0.28125 C 8.660156 -0.09375 8.410156 0 8.109375 0 L 2.390625 0 C 2.085938 0 1.832031 -0.0976562 1.625 -0.296875 C 1.414062 -0.503906 1.3125 -0.765625 1.3125 -1.078125 L 1.3125 -11.234375 C 1.3125 -11.535156 1.414062 -11.789062 1.625 -12 C 1.84375 -12.207031 2.113281 -12.3125 2.4375 -12.3125 C 2.71875 -12.3125 2.96875 -12.207031 3.1875 -12 C 3.40625 -11.789062 3.515625 -11.535156 3.515625 -11.234375 L 3.515625 -1.765625 L 3.125 -2.0625 Z M 8.109375 -2.0625 "/></g></g></g><g fill="#ffffff" fill-opacity="1"><g transform="translate(195.41113, 211.268269)"><g><path d="M 5.84375 -9.546875 L 2.046875 -0.609375 C 1.960938 -0.390625 1.832031 -0.21875 1.65625 -0.09375 C 1.488281 0.03125 1.304688 0.09375 1.109375 0.09375 C 0.796875 0.09375 0.5625 0.00390625 0.40625 -0.171875 C 0.25 -0.347656 0.171875 -0.566406 0.171875 -0.828125 C 0.171875 -0.929688 0.191406 -1.039062 0.234375 -1.15625 L 4.609375 -11.671875 C 4.703125 -11.910156 4.84375 -12.09375 5.03125 -12.21875 C 5.226562 -12.34375 5.4375 -12.394531 5.65625 -12.375 C 5.875 -12.375 6.070312 -12.3125 6.25 -12.1875 C 6.425781 -12.0625 6.554688 -11.890625 6.640625 -11.671875 L 10.96875 -1.375 C 11.03125 -1.21875 11.0625 -1.078125 11.0625 -0.953125 C 11.0625 -0.628906 10.957031 -0.375 10.75 -0.1875 C 10.539062 0 10.316406 0.09375 10.078125 0.09375 C 9.859375 0.09375 9.664062 0.03125 9.5 -0.09375 C 9.332031 -0.226562 9.203125 -0.410156 9.109375 -0.640625 L 5.328125 -9.4375 Z M 2.578125 -2.765625 L 3.546875 -4.78125 L 8.296875 -4.78125 L 8.625 -2.765625 Z M 5.671875 -12.96875 C 5.453125 -12.96875 5.273438 -13.023438 5.140625 -13.140625 C 5.003906 -13.265625 4.9375 -13.421875 4.9375 -13.609375 C 4.9375 -13.691406 4.957031 -13.769531 5 -13.84375 C 5.039062 -13.914062 5.101562 -13.992188 5.1875 -14.078125 L 6.6875 -15.421875 C 6.820312 -15.523438 6.960938 -15.613281 7.109375 -15.6875 C 7.253906 -15.757812 7.398438 -15.796875 7.546875 -15.796875 C 7.753906 -15.796875 7.960938 -15.71875 8.171875 -15.5625 C 8.378906 -15.414062 8.484375 -15.207031 8.484375 -14.9375 C 8.484375 -14.757812 8.425781 -14.585938 8.3125 -14.421875 C 8.207031 -14.253906 8.046875 -14.117188 7.828125 -14.015625 L 6.078125 -13.078125 C 6.003906 -13.035156 5.929688 -13.003906 5.859375 -12.984375 C 5.796875 -12.972656 5.734375 -12.96875 5.671875 -12.96875 Z M 5.671875 -12.96875 "/></g></g></g><g fill="#ffffff" fill-opacity="1"><g transform="translate(206.644122, 211.268269)"><g><path d="M 5.28125 0.171875 C 4.457031 0.171875 3.71875 0.0703125 3.0625 -0.125 C 2.40625 -0.332031 1.773438 -0.695312 1.171875 -1.21875 C 1.023438 -1.34375 0.910156 -1.488281 0.828125 -1.65625 C 0.742188 -1.820312 0.703125 -1.984375 0.703125 -2.140625 C 0.703125 -2.410156 0.796875 -2.648438 0.984375 -2.859375 C 1.179688 -3.066406 1.425781 -3.171875 1.71875 -3.171875 C 1.945312 -3.171875 2.148438 -3.097656 2.328125 -2.953125 C 2.765625 -2.585938 3.203125 -2.3125 3.640625 -2.125 C 4.085938 -1.9375 4.632812 -1.84375 5.28125 -1.84375 C 5.707031 -1.84375 6.101562 -1.910156 6.46875 -2.046875 C 6.832031 -2.179688 7.125 -2.363281 7.34375 -2.59375 C 7.570312 -2.820312 7.6875 -3.082031 7.6875 -3.375 C 7.6875 -3.726562 7.578125 -4.023438 7.359375 -4.265625 C 7.148438 -4.515625 6.828125 -4.722656 6.390625 -4.890625 C 5.960938 -5.066406 5.414062 -5.203125 4.75 -5.296875 C 4.113281 -5.390625 3.554688 -5.53125 3.078125 -5.71875 C 2.597656 -5.914062 2.195312 -6.160156 1.875 -6.453125 C 1.550781 -6.753906 1.304688 -7.109375 1.140625 -7.515625 C 0.972656 -7.921875 0.890625 -8.375 0.890625 -8.875 C 0.890625 -9.632812 1.085938 -10.285156 1.484375 -10.828125 C 1.878906 -11.367188 2.410156 -11.78125 3.078125 -12.0625 C 3.742188 -12.34375 4.484375 -12.484375 5.296875 -12.484375 C 6.054688 -12.484375 6.757812 -12.367188 7.40625 -12.140625 C 8.0625 -11.910156 8.59375 -11.617188 9 -11.265625 C 9.34375 -10.992188 9.515625 -10.6875 9.515625 -10.34375 C 9.515625 -10.082031 9.410156 -9.84375 9.203125 -9.625 C 9.003906 -9.414062 8.773438 -9.3125 8.515625 -9.3125 C 8.335938 -9.3125 8.175781 -9.363281 8.03125 -9.46875 C 7.84375 -9.632812 7.585938 -9.789062 7.265625 -9.9375 C 6.953125 -10.082031 6.617188 -10.203125 6.265625 -10.296875 C 5.921875 -10.398438 5.597656 -10.453125 5.296875 -10.453125 C 4.785156 -10.453125 4.359375 -10.390625 4.015625 -10.265625 C 3.671875 -10.140625 3.410156 -9.960938 3.234375 -9.734375 C 3.054688 -9.515625 2.96875 -9.257812 2.96875 -8.96875 C 2.96875 -8.613281 3.070312 -8.320312 3.28125 -8.09375 C 3.488281 -7.863281 3.785156 -7.679688 4.171875 -7.546875 C 4.554688 -7.410156 5.019531 -7.289062 5.5625 -7.1875 C 6.257812 -7.0625 6.875 -6.910156 7.40625 -6.734375 C 7.9375 -6.554688 8.378906 -6.328125 8.734375 -6.046875 C 9.085938 -5.773438 9.351562 -5.429688 9.53125 -5.015625 C 9.707031 -4.597656 9.796875 -4.09375 9.796875 -3.5 C 9.796875 -2.738281 9.582031 -2.082031 9.15625 -1.53125 C 8.738281 -0.976562 8.1875 -0.554688 7.5 -0.265625 C 6.8125 0.0234375 6.070312 0.171875 5.28125 0.171875 Z M 5.28125 0.171875 "/></g></g></g><g fill="#ffffff" fill-opacity="1"><g transform="translate(217.1388, 211.268269)"><g><path d="M 5.484375 0 C 5.160156 0 4.890625 -0.0976562 4.671875 -0.296875 C 4.460938 -0.503906 4.359375 -0.765625 4.359375 -1.078125 L 4.359375 -11.265625 L 6.640625 -11.265625 L 6.640625 -1.078125 C 6.640625 -0.765625 6.53125 -0.503906 6.3125 -0.296875 C 6.101562 -0.0976562 5.828125 0 5.484375 0 Z M 1.59375 -10.28125 C 1.289062 -10.28125 1.035156 -10.375 0.828125 -10.5625 C 0.628906 -10.75 0.53125 -10.992188 0.53125 -11.296875 C 0.53125 -11.609375 0.628906 -11.851562 0.828125 -12.03125 C 1.035156 -12.21875 1.289062 -12.3125 1.59375 -12.3125 L 9.40625 -12.3125 C 9.707031 -12.3125 9.960938 -12.21875 10.171875 -12.03125 C 10.378906 -11.84375 10.484375 -11.59375 10.484375 -11.28125 C 10.484375 -10.976562 10.378906 -10.734375 10.171875 -10.546875 C 9.960938 -10.367188 9.707031 -10.28125 9.40625 -10.28125 Z M 1.59375 -10.28125 "/></g></g></g><g fill="#ffffff" fill-opacity="1"><g transform="translate(228.14327, 211.268269)"><g><path d="M 3.515625 -1.078125 C 3.515625 -0.765625 3.398438 -0.503906 3.171875 -0.296875 C 2.953125 -0.0976562 2.695312 0 2.40625 0 C 2.082031 0 1.816406 -0.0976562 1.609375 -0.296875 C 1.410156 -0.503906 1.3125 -0.765625 1.3125 -1.078125 L 1.3125 -11.234375 C 1.3125 -11.535156 1.414062 -11.789062 1.625 -12 C 1.84375 -12.207031 2.113281 -12.3125 2.4375 -12.3125 C 2.71875 -12.3125 2.96875 -12.207031 3.1875 -12 C 3.40625 -11.789062 3.515625 -11.535156 3.515625 -11.234375 Z M 3.515625 -1.078125 "/></g></g></g><g fill="#ffffff" fill-opacity="1"><g transform="translate(232.977502, 211.268269)"><g><path d="M 9.9375 -11.703125 C 10.238281 -11.554688 10.414062 -11.316406 10.46875 -10.984375 C 10.519531 -10.660156 10.4375 -10.363281 10.21875 -10.09375 C 10.0625 -9.882812 9.863281 -9.765625 9.625 -9.734375 C 9.382812 -9.710938 9.140625 -9.757812 8.890625 -9.875 C 8.609375 -10.007812 8.3125 -10.109375 8 -10.171875 C 7.695312 -10.242188 7.375 -10.28125 7.03125 -10.28125 C 6.394531 -10.28125 5.828125 -10.179688 5.328125 -9.984375 C 4.835938 -9.785156 4.414062 -9.5 4.0625 -9.125 C 3.707031 -8.757812 3.4375 -8.320312 3.25 -7.8125 C 3.070312 -7.3125 2.984375 -6.757812 2.984375 -6.15625 C 2.984375 -5.4375 3.085938 -4.8125 3.296875 -4.28125 C 3.503906 -3.757812 3.785156 -3.320312 4.140625 -2.96875 C 4.503906 -2.613281 4.929688 -2.351562 5.421875 -2.1875 C 5.921875 -2.019531 6.457031 -1.9375 7.03125 -1.9375 C 7.34375 -1.9375 7.65625 -1.960938 7.96875 -2.015625 C 8.289062 -2.078125 8.597656 -2.1875 8.890625 -2.34375 C 9.140625 -2.457031 9.382812 -2.492188 9.625 -2.453125 C 9.863281 -2.421875 10.066406 -2.300781 10.234375 -2.09375 C 10.460938 -1.800781 10.546875 -1.5 10.484375 -1.1875 C 10.421875 -0.875 10.242188 -0.648438 9.953125 -0.515625 C 9.648438 -0.359375 9.335938 -0.226562 9.015625 -0.125 C 8.691406 -0.03125 8.363281 0.0390625 8.03125 0.09375 C 7.707031 0.144531 7.375 0.171875 7.03125 0.171875 C 6.1875 0.171875 5.382812 0.0351562 4.625 -0.234375 C 3.875 -0.503906 3.203125 -0.898438 2.609375 -1.421875 C 2.015625 -1.953125 1.546875 -2.613281 1.203125 -3.40625 C 0.867188 -4.195312 0.703125 -5.113281 0.703125 -6.15625 C 0.703125 -7.050781 0.859375 -7.878906 1.171875 -8.640625 C 1.484375 -9.410156 1.921875 -10.070312 2.484375 -10.625 C 3.054688 -11.1875 3.726562 -11.617188 4.5 -11.921875 C 5.269531 -12.234375 6.113281 -12.390625 7.03125 -12.390625 C 7.550781 -12.390625 8.054688 -12.332031 8.546875 -12.21875 C 9.035156 -12.101562 9.5 -11.929688 9.9375 -11.703125 Z M 9.9375 -11.703125 "/></g></g></g><g fill="#ffffff" fill-opacity="1"><g transform="translate(243.999548, 211.268269)"><g><path d="M 12.640625 -6.15625 C 12.640625 -5.269531 12.492188 -4.445312 12.203125 -3.6875 C 11.910156 -2.925781 11.492188 -2.253906 10.953125 -1.671875 C 10.421875 -1.097656 9.789062 -0.644531 9.0625 -0.3125 C 8.332031 0.0078125 7.53125 0.171875 6.65625 0.171875 C 5.789062 0.171875 4.992188 0.0078125 4.265625 -0.3125 C 3.546875 -0.644531 2.914062 -1.097656 2.375 -1.671875 C 1.84375 -2.253906 1.429688 -2.925781 1.140625 -3.6875 C 0.847656 -4.445312 0.703125 -5.269531 0.703125 -6.15625 C 0.703125 -7.03125 0.847656 -7.847656 1.140625 -8.609375 C 1.429688 -9.367188 1.84375 -10.039062 2.375 -10.625 C 2.914062 -11.207031 3.546875 -11.660156 4.265625 -11.984375 C 4.992188 -12.316406 5.789062 -12.484375 6.65625 -12.484375 C 7.53125 -12.484375 8.332031 -12.316406 9.0625 -11.984375 C 9.789062 -11.660156 10.421875 -11.207031 10.953125 -10.625 C 11.492188 -10.039062 11.910156 -9.367188 12.203125 -8.609375 C 12.492188 -7.847656 12.640625 -7.03125 12.640625 -6.15625 Z M 10.359375 -6.15625 C 10.359375 -6.9375 10.195312 -7.644531 9.875 -8.28125 C 9.5625 -8.925781 9.128906 -9.4375 8.578125 -9.8125 C 8.023438 -10.1875 7.382812 -10.375 6.65625 -10.375 C 5.9375 -10.375 5.300781 -10.1875 4.75 -9.8125 C 4.195312 -9.4375 3.765625 -8.929688 3.453125 -8.296875 C 3.140625 -7.660156 2.984375 -6.945312 2.984375 -6.15625 C 2.984375 -5.363281 3.140625 -4.648438 3.453125 -4.015625 C 3.765625 -3.378906 4.195312 -2.875 4.75 -2.5 C 5.300781 -2.125 5.9375 -1.9375 6.65625 -1.9375 C 7.382812 -1.9375 8.023438 -2.125 8.578125 -2.5 C 9.128906 -2.875 9.5625 -3.378906 9.875 -4.015625 C 10.195312 -4.648438 10.359375 -5.363281 10.359375 -6.15625 Z M 10.359375 -6.15625 "/></g></g></g></svg>