<svg xmlns="http://www.w3.org/2000/svg" xmlns:xlink="http://www.w3.org/1999/xlink" width="500" zoomAndPan="magnify" viewBox="0 0 375 374.999991" height="500" preserveAspectRatio="xMidYMid meet" version="1.0"><defs><g/><clipPath id="475425465d"><path d="M 56 77 L 319 77 L 319 361.5 L 56 361.5 Z M 56 77 " clip-rule="nonzero"/></clipPath><clipPath id="5c362d128c"><path d="M 49.050781 33 L 325.800781 33 L 325.800781 78 L 49.050781 78 Z M 49.050781 33 " clip-rule="nonzero"/></clipPath><clipPath id="635ede67fd"><path d="M 241 109 L 264 109 L 264 313 L 241 313 Z M 241 109 " clip-rule="nonzero"/></clipPath><clipPath id="aef7794bb2"><path d="M 239.539062 312.136719 L 255.636719 109.566406 L 265.515625 110.351562 L 249.417969 312.921875 Z M 239.539062 312.136719 " clip-rule="nonzero"/></clipPath><clipPath id="da918b447c"><path d="M 253.40625 137.601562 C 254.636719 122.117188 257.847656 109.742188 260.574219 109.957031 C 263.300781 110.175781 264.515625 122.902344 263.285156 138.386719 L 251.644531 284.886719 C 250.414062 300.371094 247.207031 312.746094 244.476562 312.527344 C 241.75 312.3125 240.535156 299.585938 241.765625 284.101562 Z M 253.40625 137.601562 " clip-rule="nonzero"/></clipPath><clipPath id="9695a9a623"><path d="M 111 110 L 136 110 L 136 312 L 111 312 Z M 111 110 " clip-rule="nonzero"/></clipPath><clipPath id="aeeb2fbab1"><path d="M 127.082031 312.449219 L 109.480469 110.472656 L 119.875 109.566406 L 137.472656 311.542969 Z M 127.082031 312.449219 " clip-rule="nonzero"/></clipPath><clipPath id="be85ea4d8b"><path d="M 111.921875 138.492188 C 110.574219 123.015625 111.808594 110.269531 114.679688 110.019531 C 117.546875 109.769531 120.96875 122.109375 122.316406 137.585938 L 135.03125 283.523438 C 136.378906 299 135.148438 311.746094 132.277344 311.996094 C 129.40625 312.246094 125.988281 299.90625 124.640625 284.429688 Z M 111.921875 138.492188 " clip-rule="nonzero"/></clipPath><clipPath id="9ab038abc1"><path d="M 183.398438 109.5625 L 192.109375 109.5625 L 192.109375 312.445312 L 183.398438 312.445312 Z M 183.398438 109.5625 " clip-rule="nonzero"/></clipPath><clipPath id="b610f94dbe"><path d="M 183.398438 137.6875 C 183.398438 122.15625 185.347656 109.5625 187.753906 109.5625 C 190.160156 109.5625 192.109375 122.15625 192.109375 137.6875 L 192.109375 284.320312 C 192.109375 299.855469 190.160156 312.445312 187.753906 312.445312 C 185.347656 312.445312 183.398438 299.855469 183.398438 284.320312 Z M 183.398438 137.6875 " clip-rule="nonzero"/></clipPath><clipPath id="245011f221"><path d="M 128 0 L 246 0 L 246 33 L 128 33 Z M 128 0 " clip-rule="nonzero"/></clipPath></defs><g clip-path="url(#475425465d)"><path fill="#ff3131" d="M 268.988281 361.492188 L 105.867188 361.492188 C 93.132812 361.492188 81.859375 351.203125 80.691406 338.507812 L 56.652344 77.496094 L 318.199219 77.496094 L 294.164062 338.507812 C 292.992188 351.203125 281.722656 361.492188 268.988281 361.492188 " fill-opacity="1" fill-rule="nonzero"/></g><path fill="#ff3131" d="M 127.59375 332.050781 C 121.632812 332.050781 116.582031 327.464844 116.105469 321.410156 L 101.152344 129.617188 C 100.65625 123.265625 105.398438 117.707031 111.753906 117.210938 C 118.121094 116.796875 123.644531 121.472656 124.144531 127.820312 L 139.101562 319.617188 C 139.589844 325.964844 134.847656 331.527344 128.496094 332.023438 C 128.195312 332.042969 127.890625 332.050781 127.59375 332.050781 " fill-opacity="1" fill-rule="nonzero"/><path fill="#ff3131" d="M 187.425781 332.050781 C 181.054688 332.050781 175.890625 326.886719 175.890625 320.515625 L 175.890625 128.71875 C 175.890625 122.347656 181.054688 117.179688 187.425781 117.179688 C 193.796875 117.179688 198.957031 122.347656 198.957031 128.71875 L 198.957031 320.515625 C 198.957031 326.886719 193.796875 332.050781 187.425781 332.050781 " fill-opacity="1" fill-rule="nonzero"/><path fill="#ff3131" d="M 247.265625 332.050781 C 246.960938 332.050781 246.660156 332.042969 246.355469 332.023438 C 240.007812 331.527344 235.261719 325.964844 235.757812 319.617188 L 250.707031 127.820312 C 251.203125 121.46875 256.742188 116.699219 263.101562 117.210938 C 269.445312 117.707031 274.195312 123.265625 273.699219 129.617188 L 258.746094 321.410156 C 258.269531 327.464844 253.21875 332.050781 247.265625 332.050781 " fill-opacity="1" fill-rule="nonzero"/><g clip-path="url(#5c362d128c)"><path fill="#ff3131" d="M 325.78125 67.824219 C 325.78125 48.648438 310.253906 33.109375 291.105469 33.109375 L 83.746094 33.109375 C 64.597656 33.109375 49.066406 48.648438 49.066406 67.824219 L 49.066406 77.496094 L 325.78125 77.496094 L 325.78125 67.824219 " fill-opacity="1" fill-rule="nonzero"/></g><path fill="#ff3131" d="M 144.242188 33.105469 L 144.242188 23.089844 C 144.242188 18.851562 147.695312 15.394531 151.933594 15.394531 L 222.921875 15.394531 C 227.164062 15.394531 230.613281 18.851562 230.613281 23.089844 L 230.613281 33.105469 L 245.980469 33.105469 L 245.980469 23.089844 C 245.980469 10.363281 235.636719 0.0078125 222.921875 0.0078125 L 151.933594 0.0078125 C 139.214844 0.0078125 128.871094 10.363281 128.871094 23.089844 L 128.871094 33.105469 L 144.242188 33.105469 " fill-opacity="1" fill-rule="nonzero"/><path fill="#ff3131" d="M 57.359375 85.191406 L 317.496094 85.191406 L 318.199219 77.496094 L 56.652344 77.496094 L 57.359375 85.191406 " fill-opacity="1" fill-rule="nonzero"/><g clip-path="url(#635ede67fd)"><g clip-path="url(#aef7794bb2)"><g clip-path="url(#da918b447c)"><path fill="#545454" d="M 239.539062 312.136719 L 255.636719 109.566406 L 265.515625 110.351562 L 249.417969 312.921875 Z M 239.539062 312.136719 " fill-opacity="1" fill-rule="nonzero"/></g></g></g><g clip-path="url(#9695a9a623)"><g clip-path="url(#aeeb2fbab1)"><g clip-path="url(#be85ea4d8b)"><path fill="#545454" d="M 127.082031 312.449219 L 109.480469 110.472656 L 119.875 109.566406 L 137.472656 311.542969 Z M 127.082031 312.449219 " fill-opacity="1" fill-rule="nonzero"/></g></g></g><g clip-path="url(#9ab038abc1)"><g clip-path="url(#b610f94dbe)"><path fill="#545454" d="M 183.398438 312.445312 L 183.398438 109.5625 L 192.109375 109.5625 L 192.109375 312.445312 Z M 183.398438 312.445312 " fill-opacity="1" fill-rule="nonzero"/></g></g><path fill="#2e2a2a" d="M 94.117188 154.75 L 280.867188 154.75 C 289.914062 154.75 297.242188 162.082031 297.242188 171.125 L 297.242188 203.875 C 297.242188 212.917969 289.914062 220.25 280.867188 220.25 L 94.117188 220.25 C 85.074219 220.25 77.746094 212.917969 77.746094 203.875 L 77.746094 171.125 C 77.746094 162.082031 85.074219 154.75 94.117188 154.75 Z M 94.117188 154.75 " fill-opacity="1" fill-rule="nonzero"/><g fill="#ffffff" fill-opacity="1"><g transform="translate(93.74414, 201.749987)"><g><path d="M 14.5625 -28 C 15.945312 -28 17.242188 -27.597656 18.453125 -26.796875 C 19.671875 -25.992188 20.648438 -24.910156 21.390625 -23.546875 C 22.140625 -22.191406 22.515625 -20.675781 22.515625 -19 C 22.515625 -17.34375 22.140625 -15.832031 21.390625 -14.46875 C 20.648438 -13.113281 19.671875 -12.03125 18.453125 -11.21875 C 17.242188 -10.40625 15.945312 -10 14.5625 -10 L 7.203125 -10 L 7.59375 -10.71875 L 7.59375 -2.4375 C 7.59375 -1.75 7.378906 -1.171875 6.953125 -0.703125 C 6.523438 -0.234375 5.96875 0 5.28125 0 C 4.613281 0 4.066406 -0.234375 3.640625 -0.703125 C 3.210938 -1.171875 3 -1.75 3 -2.4375 L 3 -25.5625 C 3 -26.25 3.234375 -26.828125 3.703125 -27.296875 C 4.171875 -27.765625 4.75 -28 5.4375 -28 Z M 14.5625 -14.5625 C 15.0625 -14.5625 15.550781 -14.773438 16.03125 -15.203125 C 16.519531 -15.628906 16.921875 -16.179688 17.234375 -16.859375 C 17.554688 -17.535156 17.71875 -18.25 17.71875 -19 C 17.71875 -19.769531 17.554688 -20.488281 17.234375 -21.15625 C 16.921875 -21.820312 16.519531 -22.363281 16.03125 -22.78125 C 15.550781 -23.195312 15.0625 -23.40625 14.5625 -23.40625 L 7.125 -23.40625 L 7.59375 -24.125 L 7.59375 -13.921875 L 7.15625 -14.5625 Z M 14.5625 -14.5625 "/></g></g></g><g fill="#ffffff" fill-opacity="1"><g transform="translate(117.861738, 201.749987)"><g><path d="M 18.4375 -4.6875 C 19.132812 -4.6875 19.710938 -4.460938 20.171875 -4.015625 C 20.640625 -3.578125 20.875 -3.007812 20.875 -2.3125 C 20.875 -1.644531 20.640625 -1.09375 20.171875 -0.65625 C 19.710938 -0.21875 19.132812 0 18.4375 0 L 5.4375 0 C 4.75 0 4.171875 -0.234375 3.703125 -0.703125 C 3.234375 -1.171875 3 -1.75 3 -2.4375 L 3 -25.5625 C 3 -26.25 3.238281 -26.828125 3.71875 -27.296875 C 4.195312 -27.765625 4.8125 -28 5.5625 -28 C 6.195312 -28 6.757812 -27.765625 7.25 -27.296875 C 7.75 -26.828125 8 -26.25 8 -25.5625 L 8 -4 L 7.125 -4.6875 Z M 18.4375 -4.6875 "/></g></g></g><g fill="#ffffff" fill-opacity="1"><g transform="translate(140.3395, 201.749987)"><g><path d="M 13.28125 -21.71875 L 4.640625 -1.40625 C 4.453125 -0.894531 4.164062 -0.5 3.78125 -0.21875 C 3.394531 0.0625 2.972656 0.203125 2.515625 0.203125 C 1.796875 0.203125 1.265625 0.00390625 0.921875 -0.390625 C 0.578125 -0.796875 0.40625 -1.289062 0.40625 -1.875 C 0.40625 -2.113281 0.441406 -2.367188 0.515625 -2.640625 L 10.484375 -26.5625 C 10.691406 -27.09375 11.015625 -27.503906 11.453125 -27.796875 C 11.898438 -28.085938 12.375 -28.207031 12.875 -28.15625 C 13.351562 -28.15625 13.800781 -28.015625 14.21875 -27.734375 C 14.632812 -27.453125 14.9375 -27.0625 15.125 -26.5625 L 24.953125 -3.125 C 25.085938 -2.769531 25.15625 -2.445312 25.15625 -2.15625 C 25.15625 -1.4375 24.921875 -0.863281 24.453125 -0.4375 C 23.992188 -0.0078125 23.484375 0.203125 22.921875 0.203125 C 22.441406 0.203125 22.007812 0.0546875 21.625 -0.234375 C 21.238281 -0.535156 20.9375 -0.9375 20.71875 -1.4375 L 12.125 -21.484375 Z M 5.875 -6.28125 L 8.078125 -10.875 L 18.875 -10.875 L 19.640625 -6.28125 Z M 12.921875 -29.515625 C 12.410156 -29.515625 12 -29.644531 11.6875 -29.90625 C 11.382812 -30.175781 11.234375 -30.523438 11.234375 -30.953125 C 11.234375 -31.140625 11.28125 -31.320312 11.375 -31.5 C 11.46875 -31.675781 11.609375 -31.859375 11.796875 -32.046875 L 15.234375 -35.078125 C 15.523438 -35.316406 15.835938 -35.519531 16.171875 -35.6875 C 16.503906 -35.863281 16.847656 -35.953125 17.203125 -35.953125 C 17.648438 -35.953125 18.113281 -35.78125 18.59375 -35.4375 C 19.070312 -35.09375 19.3125 -34.613281 19.3125 -34 C 19.3125 -33.601562 19.1875 -33.207031 18.9375 -32.8125 C 18.6875 -32.425781 18.320312 -32.113281 17.84375 -31.875 L 13.84375 -29.765625 C 13.675781 -29.648438 13.515625 -29.578125 13.359375 -29.546875 C 13.203125 -29.523438 13.054688 -29.515625 12.921875 -29.515625 Z M 12.921875 -29.515625 "/></g></g></g><g fill="#ffffff" fill-opacity="1"><g transform="translate(165.896959, 201.749987)"><g><path d="M 12 0.40625 C 10.132812 0.40625 8.453125 0.171875 6.953125 -0.296875 C 5.460938 -0.765625 4.039062 -1.585938 2.6875 -2.765625 C 2.332031 -3.054688 2.0625 -3.382812 1.875 -3.75 C 1.6875 -4.125 1.59375 -4.5 1.59375 -4.875 C 1.59375 -5.488281 1.8125 -6.03125 2.25 -6.5 C 2.695312 -6.96875 3.253906 -7.203125 3.921875 -7.203125 C 4.429688 -7.203125 4.882812 -7.039062 5.28125 -6.71875 C 6.289062 -5.894531 7.296875 -5.269531 8.296875 -4.84375 C 9.296875 -4.414062 10.53125 -4.203125 12 -4.203125 C 12.988281 -4.203125 13.894531 -4.351562 14.71875 -4.65625 C 15.539062 -4.96875 16.207031 -5.382812 16.71875 -5.90625 C 17.226562 -6.425781 17.484375 -7.019531 17.484375 -7.6875 C 17.484375 -8.476562 17.242188 -9.15625 16.765625 -9.71875 C 16.285156 -10.28125 15.550781 -10.753906 14.5625 -11.140625 C 13.570312 -11.523438 12.316406 -11.828125 10.796875 -12.046875 C 9.359375 -12.253906 8.09375 -12.578125 7 -13.015625 C 5.90625 -13.460938 4.988281 -14.023438 4.25 -14.703125 C 3.519531 -15.378906 2.96875 -16.175781 2.59375 -17.09375 C 2.226562 -18.019531 2.046875 -19.054688 2.046875 -20.203125 C 2.046875 -21.929688 2.488281 -23.410156 3.375 -24.640625 C 4.269531 -25.867188 5.476562 -26.800781 7 -27.4375 C 8.519531 -28.082031 10.203125 -28.40625 12.046875 -28.40625 C 13.773438 -28.40625 15.378906 -28.144531 16.859375 -27.625 C 18.335938 -27.101562 19.546875 -26.441406 20.484375 -25.640625 C 21.253906 -25.023438 21.640625 -24.316406 21.640625 -23.515625 C 21.640625 -22.929688 21.410156 -22.398438 20.953125 -21.921875 C 20.503906 -21.441406 19.972656 -21.203125 19.359375 -21.203125 C 18.960938 -21.203125 18.601562 -21.320312 18.28125 -21.5625 C 17.851562 -21.9375 17.28125 -22.289062 16.5625 -22.625 C 15.84375 -22.957031 15.082031 -23.234375 14.28125 -23.453125 C 13.476562 -23.679688 12.734375 -23.796875 12.046875 -23.796875 C 10.890625 -23.796875 9.914062 -23.648438 9.125 -23.359375 C 8.34375 -23.066406 7.753906 -22.664062 7.359375 -22.15625 C 6.960938 -21.65625 6.765625 -21.070312 6.765625 -20.40625 C 6.765625 -19.601562 6.992188 -18.941406 7.453125 -18.421875 C 7.921875 -17.898438 8.59375 -17.484375 9.46875 -17.171875 C 10.351562 -16.867188 11.410156 -16.597656 12.640625 -16.359375 C 14.242188 -16.066406 15.648438 -15.71875 16.859375 -15.3125 C 18.078125 -14.914062 19.082031 -14.40625 19.875 -13.78125 C 20.675781 -13.15625 21.273438 -12.367188 21.671875 -11.421875 C 22.078125 -10.472656 22.28125 -9.316406 22.28125 -7.953125 C 22.28125 -6.222656 21.800781 -4.726562 20.84375 -3.46875 C 19.882812 -2.21875 18.625 -1.257812 17.0625 -0.59375 C 15.5 0.0703125 13.8125 0.40625 12 0.40625 Z M 12 0.40625 "/></g></g></g><g fill="#ffffff" fill-opacity="1"><g transform="translate(189.774586, 201.749987)"><g><path d="M 12.484375 0 C 11.734375 0 11.117188 -0.234375 10.640625 -0.703125 C 10.160156 -1.171875 9.921875 -1.75 9.921875 -2.4375 L 9.921875 -25.640625 L 15.125 -25.640625 L 15.125 -2.4375 C 15.125 -1.75 14.875 -1.171875 14.375 -0.703125 C 13.882812 -0.234375 13.253906 0 12.484375 0 Z M 3.640625 -23.40625 C 2.941406 -23.40625 2.359375 -23.617188 1.890625 -24.046875 C 1.429688 -24.472656 1.203125 -25.03125 1.203125 -25.71875 C 1.203125 -26.414062 1.429688 -26.96875 1.890625 -27.375 C 2.359375 -27.789062 2.941406 -28 3.640625 -28 L 21.40625 -28 C 22.09375 -28 22.671875 -27.785156 23.140625 -27.359375 C 23.609375 -26.929688 23.84375 -26.375 23.84375 -25.6875 C 23.84375 -24.988281 23.609375 -24.429688 23.140625 -24.015625 C 22.671875 -23.609375 22.09375 -23.40625 21.40625 -23.40625 Z M 3.640625 -23.40625 "/></g></g></g><g fill="#ffffff" fill-opacity="1"><g transform="translate(214.812094, 201.749987)"><g><path d="M 8 -2.4375 C 8 -1.75 7.742188 -1.171875 7.234375 -0.703125 C 6.734375 -0.234375 6.148438 0 5.484375 0 C 4.734375 0 4.128906 -0.234375 3.671875 -0.703125 C 3.222656 -1.171875 3 -1.75 3 -2.4375 L 3 -25.5625 C 3 -26.25 3.238281 -26.828125 3.71875 -27.296875 C 4.195312 -27.765625 4.8125 -28 5.5625 -28 C 6.195312 -28 6.757812 -27.765625 7.25 -27.296875 C 7.75 -26.828125 8 -26.25 8 -25.5625 Z M 8 -2.4375 "/></g></g></g><g fill="#ffffff" fill-opacity="1"><g transform="translate(225.810999, 201.749987)"><g><path d="M 22.59375 -26.640625 C 23.289062 -26.296875 23.695312 -25.75 23.8125 -25 C 23.9375 -24.25 23.742188 -23.566406 23.234375 -22.953125 C 22.890625 -22.472656 22.441406 -22.207031 21.890625 -22.15625 C 21.347656 -22.101562 20.796875 -22.210938 20.234375 -22.484375 C 19.597656 -22.773438 18.925781 -23 18.21875 -23.15625 C 17.507812 -23.320312 16.769531 -23.40625 16 -23.40625 C 14.5625 -23.40625 13.273438 -23.175781 12.140625 -22.71875 C 11.003906 -22.269531 10.035156 -21.625 9.234375 -20.78125 C 8.441406 -19.9375 7.835938 -18.941406 7.421875 -17.796875 C 7.003906 -16.648438 6.796875 -15.382812 6.796875 -14 C 6.796875 -12.375 7.03125 -10.957031 7.5 -9.75 C 7.96875 -8.550781 8.613281 -7.550781 9.4375 -6.75 C 10.269531 -5.957031 11.242188 -5.367188 12.359375 -4.984375 C 13.484375 -4.597656 14.695312 -4.40625 16 -4.40625 C 16.71875 -4.40625 17.4375 -4.46875 18.15625 -4.59375 C 18.875 -4.726562 19.566406 -4.96875 20.234375 -5.3125 C 20.796875 -5.582031 21.347656 -5.675781 21.890625 -5.59375 C 22.441406 -5.519531 22.90625 -5.242188 23.28125 -4.765625 C 23.8125 -4.097656 24.003906 -3.410156 23.859375 -2.703125 C 23.710938 -1.992188 23.304688 -1.476562 22.640625 -1.15625 C 21.941406 -0.8125 21.226562 -0.523438 20.5 -0.296875 C 19.769531 -0.0664062 19.03125 0.101562 18.28125 0.21875 C 17.53125 0.34375 16.769531 0.40625 16 0.40625 C 14.082031 0.40625 12.257812 0.0976562 10.53125 -0.515625 C 8.8125 -1.128906 7.28125 -2.035156 5.9375 -3.234375 C 4.59375 -4.441406 3.53125 -5.941406 2.75 -7.734375 C 1.976562 -9.535156 1.59375 -11.625 1.59375 -14 C 1.59375 -16.050781 1.945312 -17.941406 2.65625 -19.671875 C 3.363281 -21.410156 4.363281 -22.910156 5.65625 -24.171875 C 6.945312 -25.441406 8.472656 -26.429688 10.234375 -27.140625 C 11.992188 -27.847656 13.914062 -28.203125 16 -28.203125 C 17.175781 -28.203125 18.320312 -28.066406 19.4375 -27.796875 C 20.5625 -27.535156 21.613281 -27.148438 22.59375 -26.640625 Z M 22.59375 -26.640625 "/></g></g></g><g fill="#ffffff" fill-opacity="1"><g transform="translate(250.888504, 201.749987)"><g><path d="M 28.765625 -14 C 28.765625 -12 28.429688 -10.128906 27.765625 -8.390625 C 27.097656 -6.660156 26.15625 -5.132812 24.9375 -3.8125 C 23.726562 -2.5 22.289062 -1.46875 20.625 -0.71875 C 18.957031 0.03125 17.132812 0.40625 15.15625 0.40625 C 13.1875 0.40625 11.375 0.03125 9.71875 -0.71875 C 8.0625 -1.46875 6.625 -2.5 5.40625 -3.8125 C 4.195312 -5.132812 3.257812 -6.660156 2.59375 -8.390625 C 1.925781 -10.128906 1.59375 -12 1.59375 -14 C 1.59375 -16 1.925781 -17.863281 2.59375 -19.59375 C 3.257812 -21.332031 4.195312 -22.859375 5.40625 -24.171875 C 6.625 -25.492188 8.0625 -26.53125 9.71875 -27.28125 C 11.375 -28.03125 13.1875 -28.40625 15.15625 -28.40625 C 17.132812 -28.40625 18.957031 -28.03125 20.625 -27.28125 C 22.289062 -26.53125 23.726562 -25.492188 24.9375 -24.171875 C 26.15625 -22.859375 27.097656 -21.332031 27.765625 -19.59375 C 28.429688 -17.863281 28.765625 -16 28.765625 -14 Z M 23.5625 -14 C 23.5625 -15.789062 23.203125 -17.410156 22.484375 -18.859375 C 21.765625 -20.316406 20.773438 -21.46875 19.515625 -22.3125 C 18.265625 -23.164062 16.8125 -23.59375 15.15625 -23.59375 C 13.507812 -23.59375 12.054688 -23.164062 10.796875 -22.3125 C 9.546875 -21.46875 8.566406 -20.320312 7.859375 -18.875 C 7.148438 -17.4375 6.796875 -15.8125 6.796875 -14 C 6.796875 -12.207031 7.148438 -10.582031 7.859375 -9.125 C 8.566406 -7.675781 9.546875 -6.523438 10.796875 -5.671875 C 12.054688 -4.828125 13.507812 -4.40625 15.15625 -4.40625 C 16.8125 -4.40625 18.265625 -4.828125 19.515625 -5.671875 C 20.773438 -6.523438 21.765625 -7.675781 22.484375 -9.125 C 23.203125 -10.582031 23.5625 -12.207031 23.5625 -14 Z M 23.5625 -14 "/></g></g></g><g clip-path="url(#245011f221)"><path fill="#737373" d="M 144.242188 33.105469 L 144.242188 23.089844 C 144.242188 18.851562 147.695312 15.394531 151.933594 15.394531 L 222.921875 15.394531 C 227.164062 15.394531 230.613281 18.851562 230.613281 23.089844 L 230.613281 33.105469 L 245.980469 33.105469 L 245.980469 23.089844 C 245.980469 10.363281 235.636719 0.0078125 222.921875 0.0078125 L 151.933594 0.0078125 C 139.214844 0.0078125 128.871094 10.363281 128.871094 23.089844 L 128.871094 33.105469 L 144.242188 33.105469 " fill-opacity="1" fill-rule="nonzero"/></g></svg>