<svg xmlns="http://www.w3.org/2000/svg" xmlns:xlink="http://www.w3.org/1999/xlink" width="500" zoomAndPan="magnify" viewBox="0 0 375 374.999991" height="500" preserveAspectRatio="xMidYMid meet" version="1.0"><defs><g/><clipPath id="e8c6858d60"><path d="M 140 143 L 287 143 L 287 301.78125 L 140 301.78125 Z M 140 143 " clip-rule="nonzero"/></clipPath><clipPath id="2088834a5d"><path d="M 136.308594 118 L 290.957031 118 L 290.957031 144 L 136.308594 144 Z M 136.308594 118 " clip-rule="nonzero"/></clipPath><clipPath id="feb2f2458f"><path d="M 180 100.15625 L 247 100.15625 L 247 119 L 180 119 Z M 180 100.15625 " clip-rule="nonzero"/></clipPath><clipPath id="2d589d496f"><path d="M 243 161 L 257 161 L 257 275 L 243 275 Z M 243 161 " clip-rule="nonzero"/></clipPath><clipPath id="3b59b03470"><path d="M 242.613281 274.347656 L 251.597656 161.296875 L 257.109375 161.738281 L 248.128906 274.785156 Z M 242.613281 274.347656 " clip-rule="nonzero"/></clipPath><clipPath id="39baf43d1b"><path d="M 250.355469 176.945312 C 251.042969 168.304688 252.832031 161.398438 254.355469 161.519531 C 255.875 161.640625 256.554688 168.742188 255.867188 177.382812 L 249.371094 259.136719 C 248.683594 267.78125 246.894531 274.6875 245.371094 274.566406 C 243.847656 274.445312 243.171875 267.339844 243.859375 258.699219 Z M 250.355469 176.945312 " clip-rule="nonzero"/></clipPath><clipPath id="a8199d64d9"><path d="M 171 161 L 185 161 L 185 275 L 171 275 Z M 171 161 " clip-rule="nonzero"/></clipPath><clipPath id="d8d691c75f"><path d="M 179.859375 274.523438 L 170.035156 161.804688 L 175.835938 161.300781 L 185.65625 274.015625 Z M 179.859375 274.523438 " clip-rule="nonzero"/></clipPath><clipPath id="ebd97772a3"><path d="M 171.398438 177.441406 C 170.648438 168.804688 171.335938 161.691406 172.9375 161.550781 C 174.539062 161.414062 176.445312 168.300781 177.199219 176.9375 L 184.296875 258.378906 C 185.046875 267.015625 184.359375 274.128906 182.757812 274.269531 C 181.15625 274.410156 179.25 267.519531 178.496094 258.886719 Z M 171.398438 177.441406 " clip-rule="nonzero"/></clipPath><clipPath id="e90709519b"><path d="M 211.285156 161.300781 L 216.148438 161.300781 L 216.148438 274.519531 L 211.285156 274.519531 Z M 211.285156 161.300781 " clip-rule="nonzero"/></clipPath><clipPath id="003266e574"><path d="M 211.285156 176.996094 C 211.285156 168.328125 212.375 161.300781 213.71875 161.300781 C 215.058594 161.300781 216.148438 168.328125 216.148438 176.996094 L 216.148438 258.824219 C 216.148438 267.496094 215.058594 274.519531 213.71875 274.519531 C 212.375 274.519531 211.285156 267.496094 211.285156 258.824219 Z M 211.285156 176.996094 " clip-rule="nonzero"/></clipPath><clipPath id="f7275564f6"><path d="M 146.789062 182.441406 L 280.355469 182.441406 L 280.355469 227.539062 L 146.789062 227.539062 Z M 146.789062 182.441406 " clip-rule="nonzero"/></clipPath><clipPath id="eff75288ed"><path d="M 164.039062 182.441406 L 263.105469 182.441406 C 267.679688 182.441406 272.066406 184.261719 275.300781 187.496094 C 278.539062 190.730469 280.355469 195.117188 280.355469 199.691406 L 280.355469 210.289062 C 280.355469 214.863281 278.539062 219.25 275.300781 222.484375 C 272.066406 225.71875 267.679688 227.539062 263.105469 227.539062 L 164.039062 227.539062 C 159.460938 227.539062 155.074219 225.71875 151.839844 222.484375 C 148.605469 219.25 146.789062 214.863281 146.789062 210.289062 L 146.789062 199.691406 C 146.789062 195.117188 148.605469 190.730469 151.839844 187.496094 C 155.074219 184.261719 159.460938 182.441406 164.039062 182.441406 Z M 164.039062 182.441406 " clip-rule="nonzero"/></clipPath><clipPath id="d4b84d838f"><path d="M 83.234375 87.050781 L 119.984375 87.050781 L 119.984375 123.800781 L 83.234375 123.800781 Z M 83.234375 87.050781 " clip-rule="nonzero"/></clipPath><clipPath id="1380de295f"><path d="M 50.378906 50.378906 L 324.878906 50.378906 L 324.878906 324.878906 L 50.378906 324.878906 Z M 50.378906 50.378906 " clip-rule="nonzero"/></clipPath></defs><g clip-path="url(#e8c6858d60)"><path fill="#737373" d="M 259.210938 301.777344 L 168.058594 301.777344 C 160.945312 301.777344 154.644531 296.035156 153.992188 288.953125 L 140.558594 143.378906 L 286.707031 143.378906 L 273.277344 288.953125 C 272.621094 296.035156 266.324219 301.777344 259.210938 301.777344 " fill-opacity="1" fill-rule="nonzero"/></g><path fill="#737373" d="M 180.199219 285.355469 C 176.867188 285.355469 174.046875 282.796875 173.78125 279.421875 L 165.425781 172.449219 C 165.144531 168.90625 167.796875 165.808594 171.347656 165.53125 C 174.90625 165.296875 177.992188 167.90625 178.273438 171.445312 L 186.628906 278.417969 C 186.902344 281.960938 184.253906 285.0625 180.703125 285.339844 C 180.535156 285.351562 180.363281 285.355469 180.199219 285.355469 " fill-opacity="1" fill-rule="nonzero"/><path fill="#737373" d="M 213.632812 285.355469 C 210.074219 285.355469 207.1875 282.476562 207.1875 278.921875 L 207.1875 171.949219 C 207.1875 168.394531 210.074219 165.511719 213.632812 165.511719 C 217.191406 165.511719 220.078125 168.394531 220.078125 171.949219 L 220.078125 278.921875 C 220.078125 282.476562 217.191406 285.355469 213.632812 285.355469 " fill-opacity="1" fill-rule="nonzero"/><path fill="#737373" d="M 247.070312 285.355469 C 246.898438 285.355469 246.734375 285.351562 246.5625 285.339844 C 243.015625 285.0625 240.363281 281.960938 240.640625 278.417969 L 248.992188 171.445312 C 249.273438 167.902344 252.367188 165.242188 255.921875 165.53125 C 259.464844 165.808594 262.117188 168.90625 261.839844 172.449219 L 253.488281 279.421875 C 253.21875 282.796875 250.398438 285.355469 247.070312 285.355469 " fill-opacity="1" fill-rule="nonzero"/><g clip-path="url(#2088834a5d)"><path fill="#737373" d="M 290.945312 137.984375 C 290.945312 127.289062 282.269531 118.621094 271.566406 118.621094 L 155.699219 118.621094 C 144.996094 118.621094 136.320312 127.289062 136.320312 137.984375 L 136.320312 143.378906 L 290.945312 143.378906 L 290.945312 137.984375 " fill-opacity="1" fill-rule="nonzero"/></g><g clip-path="url(#feb2f2458f)"><path fill="#737373" d="M 189.503906 118.621094 L 189.503906 113.035156 C 189.503906 110.667969 191.433594 108.742188 193.800781 108.742188 L 233.46875 108.742188 C 235.835938 108.742188 237.765625 110.667969 237.765625 113.035156 L 237.765625 118.621094 L 246.351562 118.621094 L 246.351562 113.035156 C 246.351562 105.9375 240.574219 100.160156 233.46875 100.160156 L 193.800781 100.160156 C 186.691406 100.160156 180.914062 105.9375 180.914062 113.035156 L 180.914062 118.621094 L 189.503906 118.621094 " fill-opacity="1" fill-rule="nonzero"/></g><path fill="#737373" d="M 140.953125 147.671875 L 286.3125 147.671875 L 286.707031 143.378906 L 140.558594 143.378906 L 140.953125 147.671875 " fill-opacity="1" fill-rule="nonzero"/><g clip-path="url(#2d589d496f)"><g clip-path="url(#3b59b03470)"><g clip-path="url(#39baf43d1b)"><path fill="#545454" d="M 242.613281 274.347656 L 251.597656 161.296875 L 257.109375 161.738281 L 248.128906 274.785156 Z M 242.613281 274.347656 " fill-opacity="1" fill-rule="nonzero"/></g></g></g><g clip-path="url(#a8199d64d9)"><g clip-path="url(#d8d691c75f)"><g clip-path="url(#ebd97772a3)"><path fill="#545454" d="M 179.859375 274.523438 L 170.035156 161.804688 L 175.835938 161.300781 L 185.65625 274.015625 Z M 179.859375 274.523438 " fill-opacity="1" fill-rule="nonzero"/></g></g></g><g clip-path="url(#e90709519b)"><g clip-path="url(#003266e574)"><path fill="#545454" d="M 211.285156 274.519531 L 211.285156 161.300781 L 216.148438 161.300781 L 216.148438 274.519531 Z M 211.285156 274.519531 " fill-opacity="1" fill-rule="nonzero"/></g></g><g clip-path="url(#f7275564f6)"><g clip-path="url(#eff75288ed)"><path fill="#2e2a2a" d="M 146.789062 182.441406 L 280.355469 182.441406 L 280.355469 227.539062 L 146.789062 227.539062 Z M 146.789062 182.441406 " fill-opacity="1" fill-rule="nonzero"/></g></g><g fill="#ffffff" fill-opacity="1"><g transform="translate(186.198727, 211.268183)"><g><path d="M 10.296875 -12.34375 C 10.585938 -12.34375 10.84375 -12.242188 11.0625 -12.046875 C 11.28125 -11.859375 11.390625 -11.617188 11.390625 -11.328125 C 11.390625 -11.171875 11.351562 -11.007812 11.28125 -10.84375 L 6.9375 -0.6875 C 6.832031 -0.445312 6.679688 -0.269531 6.484375 -0.15625 C 6.296875 -0.0507812 6.101562 0 5.90625 0 C 5.71875 -0.0078125 5.535156 -0.0703125 5.359375 -0.1875 C 5.179688 -0.300781 5.046875 -0.460938 4.953125 -0.671875 L 0.609375 -10.859375 C 0.578125 -10.929688 0.554688 -11.003906 0.546875 -11.078125 C 0.535156 -11.160156 0.53125 -11.234375 0.53125 -11.296875 C 0.53125 -11.640625 0.648438 -11.898438 0.890625 -12.078125 C 1.140625 -12.265625 1.375 -12.359375 1.59375 -12.359375 C 2.039062 -12.359375 2.363281 -12.128906 2.5625 -11.671875 L 6.421875 -2.625 L 5.796875 -2.609375 L 9.328125 -11.671875 C 9.535156 -12.117188 9.859375 -12.34375 10.296875 -12.34375 Z M 10.296875 -12.34375 "/></g></g></g><g fill="#ffffff" fill-opacity="1"><g transform="translate(198.117307, 211.268183)"><g><path d="M 3.515625 -1.078125 C 3.515625 -0.765625 3.398438 -0.503906 3.171875 -0.296875 C 2.953125 -0.0976562 2.695312 0 2.40625 0 C 2.082031 0 1.816406 -0.0976562 1.609375 -0.296875 C 1.410156 -0.503906 1.3125 -0.765625 1.3125 -1.078125 L 1.3125 -11.234375 C 1.3125 -11.535156 1.414062 -11.789062 1.625 -12 C 1.84375 -12.207031 2.113281 -12.3125 2.4375 -12.3125 C 2.71875 -12.3125 2.96875 -12.207031 3.1875 -12 C 3.40625 -11.789062 3.515625 -11.535156 3.515625 -11.234375 Z M 3.515625 -1.078125 "/></g></g></g><g fill="#ffffff" fill-opacity="1"><g transform="translate(202.951539, 211.268183)"><g><path d="M 6.59375 -12.3125 C 7.4375 -12.3125 8.1875 -12.148438 8.84375 -11.828125 C 9.5 -11.515625 10.050781 -11.070312 10.5 -10.5 C 10.957031 -9.9375 11.296875 -9.28125 11.515625 -8.53125 C 11.742188 -7.789062 11.859375 -7 11.859375 -6.15625 C 11.859375 -5.019531 11.65625 -3.984375 11.25 -3.046875 C 10.84375 -2.117188 10.25 -1.378906 9.46875 -0.828125 C 8.6875 -0.273438 7.726562 0 6.59375 0 L 2.390625 0 C 2.085938 0 1.832031 -0.0976562 1.625 -0.296875 C 1.414062 -0.503906 1.3125 -0.765625 1.3125 -1.078125 L 1.3125 -11.234375 C 1.3125 -11.535156 1.414062 -11.789062 1.625 -12 C 1.832031 -12.207031 2.085938 -12.3125 2.390625 -12.3125 Z M 6.421875 -2.015625 C 7.160156 -2.015625 7.765625 -2.207031 8.234375 -2.59375 C 8.703125 -2.976562 9.039062 -3.484375 9.25 -4.109375 C 9.46875 -4.734375 9.578125 -5.414062 9.578125 -6.15625 C 9.578125 -6.707031 9.515625 -7.226562 9.390625 -7.71875 C 9.273438 -8.21875 9.085938 -8.65625 8.828125 -9.03125 C 8.566406 -9.414062 8.238281 -9.71875 7.84375 -9.9375 C 7.445312 -10.164062 6.972656 -10.28125 6.421875 -10.28125 L 3.34375 -10.28125 L 3.515625 -10.4375 L 3.515625 -1.828125 L 3.40625 -2.015625 Z M 6.421875 -2.015625 "/></g></g></g><g fill="#ffffff" fill-opacity="1"><g transform="translate(215.520543, 211.268183)"><g><path d="M 2.578125 0 C 2.253906 0 1.960938 -0.0976562 1.703125 -0.296875 C 1.441406 -0.503906 1.3125 -0.765625 1.3125 -1.078125 L 1.3125 -11.234375 C 1.3125 -11.535156 1.414062 -11.789062 1.625 -12 C 1.832031 -12.207031 2.085938 -12.3125 2.390625 -12.3125 L 7.453125 -12.3125 C 8.066406 -12.3125 8.640625 -12.148438 9.171875 -11.828125 C 9.703125 -11.503906 10.128906 -11.054688 10.453125 -10.484375 C 10.785156 -9.921875 10.953125 -9.269531 10.953125 -8.53125 C 10.953125 -8.082031 10.859375 -7.644531 10.671875 -7.21875 C 10.492188 -6.800781 10.25 -6.421875 9.9375 -6.078125 C 9.625 -5.742188 9.273438 -5.484375 8.890625 -5.296875 L 8.90625 -5.703125 C 9.238281 -5.523438 9.515625 -5.316406 9.734375 -5.078125 C 9.953125 -4.835938 10.117188 -4.578125 10.234375 -4.296875 C 10.359375 -4.023438 10.429688 -3.726562 10.453125 -3.40625 C 10.503906 -3.113281 10.535156 -2.851562 10.546875 -2.625 C 10.566406 -2.40625 10.601562 -2.21875 10.65625 -2.0625 C 10.707031 -1.914062 10.8125 -1.800781 10.96875 -1.71875 C 11.226562 -1.570312 11.390625 -1.351562 11.453125 -1.0625 C 11.515625 -0.78125 11.445312 -0.523438 11.25 -0.296875 C 11.125 -0.148438 10.957031 -0.0546875 10.75 -0.015625 C 10.550781 0.0234375 10.351562 0.0234375 10.15625 -0.015625 C 9.957031 -0.0546875 9.796875 -0.109375 9.671875 -0.171875 C 9.472656 -0.296875 9.269531 -0.46875 9.0625 -0.6875 C 8.863281 -0.914062 8.703125 -1.222656 8.578125 -1.609375 C 8.460938 -2.003906 8.40625 -2.503906 8.40625 -3.109375 C 8.40625 -3.304688 8.367188 -3.488281 8.296875 -3.65625 C 8.222656 -3.832031 8.125 -3.984375 8 -4.109375 C 7.875 -4.234375 7.707031 -4.328125 7.5 -4.390625 C 7.300781 -4.453125 7.066406 -4.484375 6.796875 -4.484375 L 3.25 -4.484375 L 3.515625 -4.890625 L 3.515625 -1.078125 C 3.515625 -0.765625 3.429688 -0.503906 3.265625 -0.296875 C 3.109375 -0.0976562 2.878906 0 2.578125 0 Z M 3.265625 -6.296875 L 7.359375 -6.296875 C 7.578125 -6.296875 7.785156 -6.390625 7.984375 -6.578125 C 8.179688 -6.773438 8.34375 -7.039062 8.46875 -7.375 C 8.601562 -7.707031 8.671875 -8.070312 8.671875 -8.46875 C 8.671875 -8.988281 8.53125 -9.421875 8.25 -9.765625 C 7.976562 -10.109375 7.679688 -10.28125 7.359375 -10.28125 L 3.3125 -10.28125 L 3.515625 -10.84375 L 3.515625 -5.875 Z M 3.265625 -6.296875 "/></g></g></g><g fill="#ffffff" fill-opacity="1"><g transform="translate(227.59733, 211.268183)"><g><path d="M 12.640625 -6.15625 C 12.640625 -5.269531 12.492188 -4.445312 12.203125 -3.6875 C 11.910156 -2.925781 11.492188 -2.253906 10.953125 -1.671875 C 10.421875 -1.097656 9.789062 -0.644531 9.0625 -0.3125 C 8.332031 0.0078125 7.53125 0.171875 6.65625 0.171875 C 5.789062 0.171875 4.992188 0.0078125 4.265625 -0.3125 C 3.546875 -0.644531 2.914062 -1.097656 2.375 -1.671875 C 1.84375 -2.253906 1.429688 -2.925781 1.140625 -3.6875 C 0.847656 -4.445312 0.703125 -5.269531 0.703125 -6.15625 C 0.703125 -7.03125 0.847656 -7.847656 1.140625 -8.609375 C 1.429688 -9.367188 1.84375 -10.039062 2.375 -10.625 C 2.914062 -11.207031 3.546875 -11.660156 4.265625 -11.984375 C 4.992188 -12.316406 5.789062 -12.484375 6.65625 -12.484375 C 7.53125 -12.484375 8.332031 -12.316406 9.0625 -11.984375 C 9.789062 -11.660156 10.421875 -11.207031 10.953125 -10.625 C 11.492188 -10.039062 11.910156 -9.367188 12.203125 -8.609375 C 12.492188 -7.847656 12.640625 -7.03125 12.640625 -6.15625 Z M 10.359375 -6.15625 C 10.359375 -6.9375 10.195312 -7.644531 9.875 -8.28125 C 9.5625 -8.925781 9.128906 -9.4375 8.578125 -9.8125 C 8.023438 -10.1875 7.382812 -10.375 6.65625 -10.375 C 5.9375 -10.375 5.300781 -10.1875 4.75 -9.8125 C 4.195312 -9.4375 3.765625 -8.929688 3.453125 -8.296875 C 3.140625 -7.660156 2.984375 -6.945312 2.984375 -6.15625 C 2.984375 -5.363281 3.140625 -4.648438 3.453125 -4.015625 C 3.765625 -3.378906 4.195312 -2.875 4.75 -2.5 C 5.300781 -2.125 5.9375 -1.9375 6.65625 -1.9375 C 7.382812 -1.9375 8.023438 -2.125 8.578125 -2.5 C 9.128906 -2.875 9.5625 -3.378906 9.875 -4.015625 C 10.195312 -4.648438 10.359375 -5.363281 10.359375 -6.15625 Z M 10.359375 -6.15625 "/></g></g></g><g clip-path="url(#d4b84d838f)"><path fill="#000000" d="M 113.09375 89.875 C 115.332031 89.875 117.15625 91.699219 117.15625 93.941406 L 117.15625 116.910156 C 117.15625 119.148438 115.332031 120.972656 113.09375 120.972656 L 90.125 120.972656 C 87.882812 120.972656 86.058594 119.148438 86.058594 116.910156 L 86.058594 93.941406 C 86.058594 91.699219 87.882812 89.875 90.125 89.875 L 113.09375 89.875 M 113.09375 87.050781 L 90.125 87.050781 C 86.316406 87.050781 83.234375 90.132812 83.234375 93.941406 L 83.234375 116.910156 C 83.234375 120.714844 86.316406 123.800781 90.125 123.800781 L 113.09375 123.800781 C 116.898438 123.800781 119.984375 120.714844 119.984375 116.910156 L 119.984375 93.941406 C 119.984375 90.132812 116.898438 87.050781 113.09375 87.050781 Z M 113.09375 87.050781 " fill-opacity="1" fill-rule="nonzero"/></g><g clip-path="url(#1380de295f)"><path fill="#737373" d="M 96.128906 50.378906 C 70.929688 50.378906 50.378906 70.929688 50.378906 96.128906 L 50.378906 279.128906 C 50.378906 304.328125 70.929688 324.878906 96.128906 324.878906 L 279.128906 324.878906 C 304.328125 324.878906 324.878906 304.328125 324.878906 279.128906 L 324.878906 96.128906 C 324.878906 70.929688 304.328125 50.378906 279.128906 50.378906 Z M 96.128906 63.449219 L 279.128906 63.449219 C 297.253906 63.449219 311.804688 78 311.804688 96.128906 L 311.804688 279.128906 C 311.804688 297.253906 297.253906 311.804688 279.128906 311.804688 L 96.128906 311.804688 C 78 311.804688 63.449219 297.253906 63.449219 279.128906 L 63.449219 96.128906 C 63.449219 78 78 63.449219 96.128906 63.449219 Z M 96.128906 63.449219 " fill-opacity="1" fill-rule="nonzero"/></g></svg>