<svg xmlns="http://www.w3.org/2000/svg" xmlns:xlink="http://www.w3.org/1999/xlink" width="500" zoomAndPan="magnify" viewBox="0 0 375 374.999991" height="500" preserveAspectRatio="xMidYMid meet" version="1.0"><defs><g/><clipPath id="43bc869e66"><path d="M 56 77 L 319 77 L 319 361.5 L 56 361.5 Z M 56 77 " clip-rule="nonzero"/></clipPath><clipPath id="0d75611d4a"><path d="M 49.050781 33 L 325.800781 33 L 325.800781 78 L 49.050781 78 Z M 49.050781 33 " clip-rule="nonzero"/></clipPath><clipPath id="9e91ab3933"><path d="M 241 109 L 264 109 L 264 313 L 241 313 Z M 241 109 " clip-rule="nonzero"/></clipPath><clipPath id="f2b3d97d33"><path d="M 239.539062 312.136719 L 255.636719 109.566406 L 265.515625 110.347656 L 249.417969 312.921875 Z M 239.539062 312.136719 " clip-rule="nonzero"/></clipPath><clipPath id="c1f8ced3c5"><path d="M 253.40625 137.601562 C 254.636719 122.117188 257.847656 109.742188 260.574219 109.957031 C 263.300781 110.175781 264.515625 122.902344 263.285156 138.386719 L 251.644531 284.886719 C 250.414062 300.367188 247.207031 312.746094 244.476562 312.527344 C 241.75 312.3125 240.535156 299.585938 241.765625 284.101562 Z M 253.40625 137.601562 " clip-rule="nonzero"/></clipPath><clipPath id="56547fba4e"><path d="M 111 110 L 136 110 L 136 312 L 111 312 Z M 111 110 " clip-rule="nonzero"/></clipPath><clipPath id="b59d1b965a"><path d="M 127.082031 312.449219 L 109.480469 110.472656 L 119.875 109.566406 L 137.472656 311.542969 Z M 127.082031 312.449219 " clip-rule="nonzero"/></clipPath><clipPath id="38a7b9da73"><path d="M 111.921875 138.492188 C 110.574219 123.015625 111.808594 110.269531 114.679688 110.019531 C 117.546875 109.769531 120.96875 122.109375 122.316406 137.585938 L 135.03125 283.523438 C 136.378906 299 135.148438 311.746094 132.277344 311.996094 C 129.40625 312.246094 125.988281 299.90625 124.640625 284.429688 Z M 111.921875 138.492188 " clip-rule="nonzero"/></clipPath><clipPath id="e0956616dc"><path d="M 183.398438 109.5625 L 192.109375 109.5625 L 192.109375 312.445312 L 183.398438 312.445312 Z M 183.398438 109.5625 " clip-rule="nonzero"/></clipPath><clipPath id="098b46fca1"><path d="M 183.398438 137.6875 C 183.398438 122.15625 185.347656 109.5625 187.753906 109.5625 C 190.160156 109.5625 192.109375 122.15625 192.109375 137.6875 L 192.109375 284.320312 C 192.109375 299.855469 190.160156 312.445312 187.753906 312.445312 C 185.347656 312.445312 183.398438 299.855469 183.398438 284.320312 Z M 183.398438 137.6875 " clip-rule="nonzero"/></clipPath><clipPath id="8342c8dcb7"><path d="M 128 0 L 246 0 L 246 33 L 128 33 Z M 128 0 " clip-rule="nonzero"/></clipPath></defs><g clip-path="url(#43bc869e66)"><path fill="#dbd2d2" d="M 268.988281 361.492188 L 105.867188 361.492188 C 93.132812 361.492188 81.859375 351.203125 80.691406 338.507812 L 56.652344 77.496094 L 318.199219 77.496094 L 294.164062 338.507812 C 292.992188 351.203125 281.722656 361.492188 268.988281 361.492188 " fill-opacity="1" fill-rule="nonzero"/></g><path fill="#dbd2d2" d="M 127.59375 332.050781 C 121.632812 332.050781 116.582031 327.464844 116.105469 321.410156 L 101.152344 129.617188 C 100.65625 123.265625 105.398438 117.707031 111.753906 117.210938 C 118.121094 116.796875 123.644531 121.472656 124.144531 127.820312 L 139.101562 319.617188 C 139.589844 325.964844 134.847656 331.527344 128.496094 332.023438 C 128.195312 332.042969 127.890625 332.050781 127.59375 332.050781 " fill-opacity="1" fill-rule="nonzero"/><path fill="#dbd2d2" d="M 187.425781 332.050781 C 181.054688 332.050781 175.890625 326.886719 175.890625 320.515625 L 175.890625 128.71875 C 175.890625 122.347656 181.054688 117.179688 187.425781 117.179688 C 193.796875 117.179688 198.957031 122.347656 198.957031 128.71875 L 198.957031 320.515625 C 198.957031 326.886719 193.796875 332.050781 187.425781 332.050781 " fill-opacity="1" fill-rule="nonzero"/><path fill="#dbd2d2" d="M 247.265625 332.050781 C 246.960938 332.050781 246.660156 332.042969 246.355469 332.023438 C 240.007812 331.527344 235.261719 325.964844 235.757812 319.617188 L 250.707031 127.820312 C 251.203125 121.46875 256.742188 116.699219 263.101562 117.210938 C 269.445312 117.707031 274.195312 123.265625 273.699219 129.617188 L 258.746094 321.410156 C 258.269531 327.464844 253.21875 332.050781 247.265625 332.050781 " fill-opacity="1" fill-rule="nonzero"/><g clip-path="url(#0d75611d4a)"><path fill="#dbd2d2" d="M 325.78125 67.824219 C 325.78125 48.648438 310.253906 33.109375 291.105469 33.109375 L 83.746094 33.109375 C 64.597656 33.109375 49.066406 48.648438 49.066406 67.824219 L 49.066406 77.496094 L 325.78125 77.496094 L 325.78125 67.824219 " fill-opacity="1" fill-rule="nonzero"/></g><path fill="#dbd2d2" d="M 144.242188 33.105469 L 144.242188 23.089844 C 144.242188 18.851562 147.695312 15.394531 151.933594 15.394531 L 222.921875 15.394531 C 227.164062 15.394531 230.613281 18.851562 230.613281 23.089844 L 230.613281 33.105469 L 245.980469 33.105469 L 245.980469 23.089844 C 245.980469 10.363281 235.636719 0.0078125 222.921875 0.0078125 L 151.933594 0.0078125 C 139.214844 0.0078125 128.871094 10.363281 128.871094 23.089844 L 128.871094 33.105469 L 144.242188 33.105469 " fill-opacity="1" fill-rule="nonzero"/><path fill="#dbd2d2" d="M 57.359375 85.191406 L 317.496094 85.191406 L 318.199219 77.496094 L 56.652344 77.496094 L 57.359375 85.191406 " fill-opacity="1" fill-rule="nonzero"/><g clip-path="url(#9e91ab3933)"><g clip-path="url(#f2b3d97d33)"><g clip-path="url(#c1f8ced3c5)"><path fill="#545454" d="M 239.539062 312.136719 L 255.636719 109.566406 L 265.515625 110.347656 L 249.417969 312.921875 Z M 239.539062 312.136719 " fill-opacity="1" fill-rule="nonzero"/></g></g></g><g clip-path="url(#56547fba4e)"><g clip-path="url(#b59d1b965a)"><g clip-path="url(#38a7b9da73)"><path fill="#545454" d="M 127.082031 312.449219 L 109.480469 110.472656 L 119.875 109.566406 L 137.472656 311.542969 Z M 127.082031 312.449219 " fill-opacity="1" fill-rule="nonzero"/></g></g></g><g clip-path="url(#e0956616dc)"><g clip-path="url(#098b46fca1)"><path fill="#545454" d="M 183.398438 312.445312 L 183.398438 109.5625 L 192.109375 109.5625 L 192.109375 312.445312 Z M 183.398438 312.445312 " fill-opacity="1" fill-rule="nonzero"/></g></g><path fill="#2e2a2a" d="M 91.5625 154.875 L 283.640625 154.875 C 290.773438 154.875 296.558594 160.652344 296.558594 167.78125 L 296.558594 193.589844 C 296.558594 200.714844 290.773438 206.492188 283.640625 206.492188 L 91.5625 206.492188 C 84.429688 206.492188 78.644531 200.714844 78.644531 193.589844 L 78.644531 167.78125 C 78.644531 160.652344 84.429688 154.875 91.5625 154.875 Z M 91.5625 154.875 " fill-opacity="1" fill-rule="nonzero"/><g fill="#ffffff" fill-opacity="1"><g transform="translate(91.266759, 191.914494)"><g><path d="M 4.375 -22.0625 C 4.882812 -22.0625 5.332031 -21.875 5.71875 -21.5 C 6.101562 -21.132812 6.296875 -20.679688 6.296875 -20.140625 L 6.296875 -1.921875 C 6.296875 -1.378906 6.097656 -0.921875 5.703125 -0.546875 C 5.304688 -0.179688 4.84375 0 4.3125 0 C 3.726562 0 3.253906 -0.179688 2.890625 -0.546875 C 2.535156 -0.921875 2.359375 -1.378906 2.359375 -1.921875 L 2.359375 -20.140625 C 2.359375 -20.679688 2.546875 -21.132812 2.921875 -21.5 C 3.304688 -21.875 3.789062 -22.0625 4.375 -22.0625 Z M 18.34375 -22.0625 C 18.925781 -22.0625 19.394531 -21.875 19.75 -21.5 C 20.113281 -21.132812 20.296875 -20.679688 20.296875 -20.140625 L 20.296875 -1.921875 C 20.296875 -1.378906 20.109375 -0.921875 19.734375 -0.546875 C 19.367188 -0.179688 18.882812 0 18.28125 0 C 17.769531 0 17.320312 -0.179688 16.9375 -0.546875 C 16.550781 -0.921875 16.359375 -1.378906 16.359375 -1.921875 L 16.359375 -20.140625 C 16.359375 -20.679688 16.554688 -21.132812 16.953125 -21.5 C 17.347656 -21.875 17.8125 -22.0625 18.34375 -22.0625 Z M 4.28125 -12.890625 L 18.34375 -12.890625 L 18.34375 -9.265625 L 4.28125 -9.265625 Z M 4.28125 -12.890625 "/></g></g></g><g fill="#ffffff" fill-opacity="1"><g transform="translate(113.928906, 191.914494)"><g><path d="M 22.65625 -11.03125 C 22.65625 -9.457031 22.390625 -7.984375 21.859375 -6.609375 C 21.335938 -5.242188 20.597656 -4.039062 19.640625 -3 C 18.691406 -1.96875 17.5625 -1.15625 16.25 -0.5625 C 14.9375 0.0195312 13.5 0.3125 11.9375 0.3125 C 10.382812 0.3125 8.957031 0.0195312 7.65625 -0.5625 C 6.351562 -1.15625 5.222656 -1.96875 4.265625 -3 C 3.316406 -4.039062 2.578125 -5.242188 2.046875 -6.609375 C 1.523438 -7.984375 1.265625 -9.457031 1.265625 -11.03125 C 1.265625 -12.601562 1.523438 -14.070312 2.046875 -15.4375 C 2.578125 -16.800781 3.316406 -18.003906 4.265625 -19.046875 C 5.222656 -20.085938 6.351562 -20.898438 7.65625 -21.484375 C 8.957031 -22.078125 10.382812 -22.375 11.9375 -22.375 C 13.5 -22.375 14.9375 -22.078125 16.25 -21.484375 C 17.5625 -20.898438 18.691406 -20.085938 19.640625 -19.046875 C 20.597656 -18.003906 21.335938 -16.800781 21.859375 -15.4375 C 22.390625 -14.070312 22.65625 -12.601562 22.65625 -11.03125 Z M 18.5625 -11.03125 C 18.5625 -12.4375 18.273438 -13.710938 17.703125 -14.859375 C 17.140625 -16.003906 16.363281 -16.910156 15.375 -17.578125 C 14.382812 -18.253906 13.238281 -18.59375 11.9375 -18.59375 C 10.632812 -18.59375 9.488281 -18.253906 8.5 -17.578125 C 7.519531 -16.910156 6.75 -16.007812 6.1875 -14.875 C 5.632812 -13.738281 5.359375 -12.457031 5.359375 -11.03125 C 5.359375 -9.625 5.632812 -8.347656 6.1875 -7.203125 C 6.75 -6.054688 7.519531 -5.144531 8.5 -4.46875 C 9.488281 -3.800781 10.632812 -3.46875 11.9375 -3.46875 C 13.238281 -3.46875 14.382812 -3.800781 15.375 -4.46875 C 16.363281 -5.144531 17.140625 -6.054688 17.703125 -7.203125 C 18.273438 -8.347656 18.5625 -9.625 18.5625 -11.03125 Z M 18.5625 -11.03125 "/></g></g></g><g fill="#ffffff" fill-opacity="1"><g transform="translate(137.851809, 191.914494)"><g><path d="M 9.453125 0.3125 C 7.984375 0.3125 6.660156 0.128906 5.484375 -0.234375 C 4.304688 -0.597656 3.179688 -1.242188 2.109375 -2.171875 C 1.835938 -2.398438 1.628906 -2.660156 1.484375 -2.953125 C 1.335938 -3.253906 1.265625 -3.550781 1.265625 -3.84375 C 1.265625 -4.320312 1.4375 -4.742188 1.78125 -5.109375 C 2.125 -5.484375 2.5625 -5.671875 3.09375 -5.671875 C 3.488281 -5.671875 3.84375 -5.546875 4.15625 -5.296875 C 4.957031 -4.640625 5.75 -4.144531 6.53125 -3.8125 C 7.320312 -3.476562 8.296875 -3.3125 9.453125 -3.3125 C 10.234375 -3.3125 10.945312 -3.429688 11.59375 -3.671875 C 12.25 -3.910156 12.773438 -4.234375 13.171875 -4.640625 C 13.566406 -5.054688 13.765625 -5.523438 13.765625 -6.046875 C 13.765625 -6.679688 13.578125 -7.21875 13.203125 -7.65625 C 12.828125 -8.09375 12.25 -8.460938 11.46875 -8.765625 C 10.695312 -9.078125 9.710938 -9.316406 8.515625 -9.484375 C 7.378906 -9.648438 6.378906 -9.90625 5.515625 -10.25 C 4.648438 -10.601562 3.925781 -11.046875 3.34375 -11.578125 C 2.769531 -12.117188 2.335938 -12.75 2.046875 -13.46875 C 1.753906 -14.195312 1.609375 -15.015625 1.609375 -15.921875 C 1.609375 -17.285156 1.957031 -18.445312 2.65625 -19.40625 C 3.363281 -20.375 4.316406 -21.109375 5.515625 -21.609375 C 6.710938 -22.117188 8.035156 -22.375 9.484375 -22.375 C 10.847656 -22.375 12.113281 -22.164062 13.28125 -21.75 C 14.445312 -21.34375 15.398438 -20.828125 16.140625 -20.203125 C 16.742188 -19.722656 17.046875 -19.164062 17.046875 -18.53125 C 17.046875 -18.070312 16.867188 -17.648438 16.515625 -17.265625 C 16.160156 -16.890625 15.738281 -16.703125 15.25 -16.703125 C 14.9375 -16.703125 14.65625 -16.796875 14.40625 -16.984375 C 14.0625 -17.273438 13.609375 -17.550781 13.046875 -17.8125 C 12.484375 -18.082031 11.882812 -18.304688 11.25 -18.484375 C 10.625 -18.660156 10.035156 -18.75 9.484375 -18.75 C 8.578125 -18.75 7.8125 -18.632812 7.1875 -18.40625 C 6.570312 -18.175781 6.109375 -17.859375 5.796875 -17.453125 C 5.484375 -17.054688 5.328125 -16.597656 5.328125 -16.078125 C 5.328125 -15.441406 5.507812 -14.914062 5.875 -14.5 C 6.238281 -14.09375 6.769531 -13.769531 7.46875 -13.53125 C 8.164062 -13.289062 8.992188 -13.078125 9.953125 -12.890625 C 11.210938 -12.660156 12.320312 -12.382812 13.28125 -12.0625 C 14.238281 -11.75 15.03125 -11.34375 15.65625 -10.84375 C 16.289062 -10.351562 16.765625 -9.734375 17.078125 -8.984375 C 17.390625 -8.242188 17.546875 -7.335938 17.546875 -6.265625 C 17.546875 -4.898438 17.164062 -3.722656 16.40625 -2.734375 C 15.65625 -1.753906 14.664062 -1 13.4375 -0.46875 C 12.207031 0.0507812 10.878906 0.3125 9.453125 0.3125 Z M 9.453125 0.3125 "/></g></g></g><g fill="#ffffff" fill-opacity="1"><g transform="translate(156.668637, 191.914494)"><g><path d="M 11.46875 -22.0625 C 12.5625 -22.0625 13.585938 -21.742188 14.546875 -21.109375 C 15.503906 -20.484375 16.273438 -19.632812 16.859375 -18.5625 C 17.453125 -17.488281 17.75 -16.289062 17.75 -14.96875 C 17.75 -13.664062 17.453125 -12.476562 16.859375 -11.40625 C 16.273438 -10.332031 15.503906 -9.472656 14.546875 -8.828125 C 13.585938 -8.191406 12.5625 -7.875 11.46875 -7.875 L 5.671875 -7.875 L 5.984375 -8.453125 L 5.984375 -1.921875 C 5.984375 -1.378906 5.816406 -0.921875 5.484375 -0.546875 C 5.148438 -0.179688 4.707031 0 4.15625 0 C 3.632812 0 3.203125 -0.179688 2.859375 -0.546875 C 2.523438 -0.921875 2.359375 -1.378906 2.359375 -1.921875 L 2.359375 -20.140625 C 2.359375 -20.679688 2.539062 -21.132812 2.90625 -21.5 C 3.28125 -21.875 3.738281 -22.0625 4.28125 -22.0625 Z M 11.46875 -11.46875 C 11.875 -11.46875 12.265625 -11.632812 12.640625 -11.96875 C 13.015625 -12.3125 13.328125 -12.75 13.578125 -13.28125 C 13.835938 -13.820312 13.96875 -14.382812 13.96875 -14.96875 C 13.96875 -15.582031 13.835938 -16.148438 13.578125 -16.671875 C 13.328125 -17.191406 13.015625 -17.613281 12.640625 -17.9375 C 12.265625 -18.269531 11.875 -18.4375 11.46875 -18.4375 L 5.609375 -18.4375 L 5.984375 -19 L 5.984375 -10.96875 L 5.640625 -11.46875 Z M 11.46875 -11.46875 "/></g></g></g><g fill="#ffffff" fill-opacity="1"><g transform="translate(175.674574, 191.914494)"><g><path d="M 6.296875 -1.921875 C 6.296875 -1.378906 6.097656 -0.921875 5.703125 -0.546875 C 5.304688 -0.179688 4.84375 0 4.3125 0 C 3.726562 0 3.253906 -0.179688 2.890625 -0.546875 C 2.535156 -0.921875 2.359375 -1.378906 2.359375 -1.921875 L 2.359375 -20.140625 C 2.359375 -20.679688 2.546875 -21.132812 2.921875 -21.5 C 3.304688 -21.875 3.789062 -22.0625 4.375 -22.0625 C 4.882812 -22.0625 5.332031 -21.875 5.71875 -21.5 C 6.101562 -21.132812 6.296875 -20.679688 6.296875 -20.140625 Z M 6.296875 -1.921875 "/></g></g></g><g fill="#ffffff" fill-opacity="1"><g transform="translate(184.34229, 191.914494)"><g><path d="M 9.828125 0 C 9.242188 0 8.757812 -0.179688 8.375 -0.546875 C 8 -0.921875 7.8125 -1.378906 7.8125 -1.921875 L 7.8125 -20.203125 L 11.90625 -20.203125 L 11.90625 -1.921875 C 11.90625 -1.378906 11.710938 -0.921875 11.328125 -0.546875 C 10.941406 -0.179688 10.441406 0 9.828125 0 Z M 2.875 -18.4375 C 2.320312 -18.4375 1.863281 -18.601562 1.5 -18.9375 C 1.132812 -19.269531 0.953125 -19.710938 0.953125 -20.265625 C 0.953125 -20.804688 1.132812 -21.238281 1.5 -21.5625 C 1.863281 -21.894531 2.320312 -22.0625 2.875 -22.0625 L 16.859375 -22.0625 C 17.410156 -22.0625 17.867188 -21.890625 18.234375 -21.546875 C 18.597656 -21.210938 18.78125 -20.773438 18.78125 -20.234375 C 18.78125 -19.679688 18.597656 -19.242188 18.234375 -18.921875 C 17.867188 -18.597656 17.410156 -18.4375 16.859375 -18.4375 Z M 2.875 -18.4375 "/></g></g></g><g fill="#ffffff" fill-opacity="1"><g transform="translate(204.073166, 191.914494)"><g><path d="M 10.46875 -17.109375 L 3.65625 -1.109375 C 3.507812 -0.703125 3.28125 -0.390625 2.96875 -0.171875 C 2.664062 0.046875 2.335938 0.15625 1.984375 0.15625 C 1.421875 0.15625 1 0 0.71875 -0.3125 C 0.445312 -0.625 0.3125 -1.015625 0.3125 -1.484375 C 0.3125 -1.671875 0.34375 -1.867188 0.40625 -2.078125 L 8.25 -20.921875 C 8.425781 -21.347656 8.6875 -21.675781 9.03125 -21.90625 C 9.375 -22.132812 9.742188 -22.226562 10.140625 -22.1875 C 10.523438 -22.1875 10.878906 -22.078125 11.203125 -21.859375 C 11.523438 -21.640625 11.757812 -21.328125 11.90625 -20.921875 L 19.671875 -2.453125 C 19.773438 -2.179688 19.828125 -1.929688 19.828125 -1.703125 C 19.828125 -1.128906 19.640625 -0.675781 19.265625 -0.34375 C 18.898438 -0.0078125 18.5 0.15625 18.0625 0.15625 C 17.675781 0.15625 17.332031 0.0390625 17.03125 -0.1875 C 16.726562 -0.414062 16.492188 -0.734375 16.328125 -1.140625 L 9.546875 -16.921875 Z M 4.625 -4.953125 L 6.359375 -8.578125 L 14.875 -8.578125 L 15.46875 -4.953125 Z M 4.625 -4.953125 "/></g></g></g><g fill="#ffffff" fill-opacity="1"><g transform="translate(224.213789, 191.914494)"><g><path d="M 14.53125 -3.6875 C 15.070312 -3.6875 15.523438 -3.507812 15.890625 -3.15625 C 16.265625 -2.8125 16.453125 -2.367188 16.453125 -1.828125 C 16.453125 -1.304688 16.265625 -0.867188 15.890625 -0.515625 C 15.523438 -0.171875 15.070312 0 14.53125 0 L 4.28125 0 C 3.738281 0 3.28125 -0.179688 2.90625 -0.546875 C 2.539062 -0.921875 2.359375 -1.378906 2.359375 -1.921875 L 2.359375 -20.140625 C 2.359375 -20.679688 2.546875 -21.132812 2.921875 -21.5 C 3.304688 -21.875 3.789062 -22.0625 4.375 -22.0625 C 4.882812 -22.0625 5.332031 -21.875 5.71875 -21.5 C 6.101562 -21.132812 6.296875 -20.679688 6.296875 -20.140625 L 6.296875 -3.15625 L 5.609375 -3.6875 Z M 14.53125 -3.6875 "/></g></g></g><g fill="#ffffff" fill-opacity="1"><g transform="translate(241.92745, 191.914494)"><g><path d="M 10.46875 -17.109375 L 3.65625 -1.109375 C 3.507812 -0.703125 3.28125 -0.390625 2.96875 -0.171875 C 2.664062 0.046875 2.335938 0.15625 1.984375 0.15625 C 1.421875 0.15625 1 0 0.71875 -0.3125 C 0.445312 -0.625 0.3125 -1.015625 0.3125 -1.484375 C 0.3125 -1.671875 0.34375 -1.867188 0.40625 -2.078125 L 8.25 -20.921875 C 8.425781 -21.347656 8.6875 -21.675781 9.03125 -21.90625 C 9.375 -22.132812 9.742188 -22.226562 10.140625 -22.1875 C 10.523438 -22.1875 10.878906 -22.078125 11.203125 -21.859375 C 11.523438 -21.640625 11.757812 -21.328125 11.90625 -20.921875 L 19.671875 -2.453125 C 19.773438 -2.179688 19.828125 -1.929688 19.828125 -1.703125 C 19.828125 -1.128906 19.640625 -0.675781 19.265625 -0.34375 C 18.898438 -0.0078125 18.5 0.15625 18.0625 0.15625 C 17.675781 0.15625 17.332031 0.0390625 17.03125 -0.1875 C 16.726562 -0.414062 16.492188 -0.734375 16.328125 -1.140625 L 9.546875 -16.921875 Z M 4.625 -4.953125 L 6.359375 -8.578125 L 14.875 -8.578125 L 15.46875 -4.953125 Z M 4.625 -4.953125 "/></g></g></g><g fill="#ffffff" fill-opacity="1"><g transform="translate(262.068074, 191.914494)"><g><path d="M 4.625 0 C 4.039062 0 3.515625 -0.179688 3.046875 -0.546875 C 2.585938 -0.921875 2.359375 -1.378906 2.359375 -1.921875 L 2.359375 -20.140625 C 2.359375 -20.679688 2.539062 -21.132812 2.90625 -21.5 C 3.28125 -21.875 3.738281 -22.0625 4.28125 -22.0625 L 13.359375 -22.0625 C 14.453125 -22.0625 15.476562 -21.769531 16.4375 -21.1875 C 17.394531 -20.613281 18.164062 -19.816406 18.75 -18.796875 C 19.34375 -17.773438 19.640625 -16.601562 19.640625 -15.28125 C 19.640625 -14.488281 19.472656 -13.710938 19.140625 -12.953125 C 18.816406 -12.191406 18.375 -11.503906 17.8125 -10.890625 C 17.257812 -10.285156 16.640625 -9.816406 15.953125 -9.484375 L 15.984375 -10.21875 C 16.566406 -9.894531 17.050781 -9.519531 17.4375 -9.09375 C 17.832031 -8.664062 18.140625 -8.203125 18.359375 -7.703125 C 18.578125 -7.210938 18.707031 -6.679688 18.75 -6.109375 C 18.832031 -5.585938 18.890625 -5.125 18.921875 -4.71875 C 18.953125 -4.320312 19.015625 -3.988281 19.109375 -3.71875 C 19.203125 -3.445312 19.390625 -3.238281 19.671875 -3.09375 C 20.128906 -2.8125 20.414062 -2.414062 20.53125 -1.90625 C 20.644531 -1.394531 20.523438 -0.9375 20.171875 -0.53125 C 19.941406 -0.257812 19.644531 -0.0859375 19.28125 -0.015625 C 18.925781 0.0546875 18.570312 0.0546875 18.21875 -0.015625 C 17.863281 -0.0859375 17.566406 -0.1875 17.328125 -0.3125 C 16.972656 -0.519531 16.613281 -0.828125 16.25 -1.234375 C 15.894531 -1.648438 15.609375 -2.203125 15.390625 -2.890625 C 15.171875 -3.585938 15.0625 -4.484375 15.0625 -5.578125 C 15.0625 -5.929688 15 -6.257812 14.875 -6.5625 C 14.75 -6.875 14.570312 -7.140625 14.34375 -7.359375 C 14.113281 -7.578125 13.816406 -7.742188 13.453125 -7.859375 C 13.097656 -7.972656 12.679688 -8.03125 12.203125 -8.03125 L 5.828125 -8.03125 L 6.296875 -8.765625 L 6.296875 -1.921875 C 6.296875 -1.378906 6.148438 -0.921875 5.859375 -0.546875 C 5.566406 -0.179688 5.15625 0 4.625 0 Z M 5.859375 -11.28125 L 13.203125 -11.28125 C 13.578125 -11.28125 13.941406 -11.453125 14.296875 -11.796875 C 14.660156 -12.148438 14.957031 -12.625 15.1875 -13.21875 C 15.414062 -13.820312 15.53125 -14.476562 15.53125 -15.1875 C 15.53125 -16.113281 15.285156 -16.882812 14.796875 -17.5 C 14.304688 -18.125 13.773438 -18.4375 13.203125 -18.4375 L 5.921875 -18.4375 L 6.296875 -19.4375 L 6.296875 -10.53125 Z M 5.859375 -11.28125 "/></g></g></g><g clip-path="url(#8342c8dcb7)"><path fill="#737373" d="M 144.242188 33.105469 L 144.242188 23.089844 C 144.242188 18.851562 147.695312 15.394531 151.933594 15.394531 L 222.921875 15.394531 C 227.164062 15.394531 230.613281 18.851562 230.613281 23.089844 L 230.613281 33.105469 L 245.980469 33.105469 L 245.980469 23.089844 C 245.980469 10.363281 235.636719 0.0078125 222.921875 0.0078125 L 151.933594 0.0078125 C 139.214844 0.0078125 128.871094 10.363281 128.871094 23.089844 L 128.871094 33.105469 L 144.242188 33.105469 " fill-opacity="1" fill-rule="nonzero"/></g></svg>