<svg xmlns="http://www.w3.org/2000/svg" xmlns:xlink="http://www.w3.org/1999/xlink" width="500" zoomAndPan="magnify" viewBox="0 0 375 374.999991" height="500" preserveAspectRatio="xMidYMid meet" version="1.0"><defs><g/><clipPath id="adbf12f9cf"><path d="M 50.378906 50.378906 L 324.878906 50.378906 L 324.878906 324.878906 L 50.378906 324.878906 Z M 50.378906 50.378906 " clip-rule="nonzero"/></clipPath><clipPath id="7c3ce42fa8"><path d="M 140 143 L 287 143 L 287 301.90625 L 140 301.90625 Z M 140 143 " clip-rule="nonzero"/></clipPath><clipPath id="d4b1ca9326"><path d="M 136.308594 118 L 290.808594 118 L 290.808594 144 L 136.308594 144 Z M 136.308594 118 " clip-rule="nonzero"/></clipPath><clipPath id="2056ed2784"><path d="M 180 100.15625 L 247 100.15625 L 247 119 L 180 119 Z M 180 100.15625 " clip-rule="nonzero"/></clipPath><clipPath id="2b97fac41e"><path d="M 243 161 L 257 161 L 257 275 L 243 275 Z M 243 161 " clip-rule="nonzero"/></clipPath><clipPath id="b174b7b0e9"><path d="M 242.617188 274.347656 L 251.597656 161.296875 L 257.113281 161.734375 L 248.128906 274.785156 Z M 242.617188 274.347656 " clip-rule="nonzero"/></clipPath><clipPath id="38bd2a52ab"><path d="M 250.355469 176.945312 C 251.042969 168.304688 252.832031 161.394531 254.355469 161.515625 C 255.878906 161.636719 256.554688 168.742188 255.867188 177.382812 L 249.371094 259.136719 C 248.683594 267.777344 246.894531 274.6875 245.371094 274.566406 C 243.851562 274.445312 243.171875 267.339844 243.859375 258.699219 Z M 250.355469 176.945312 " clip-rule="nonzero"/></clipPath><clipPath id="f8c40ec6bb"><path d="M 171 161 L 185 161 L 185 275 L 171 275 Z M 171 161 " clip-rule="nonzero"/></clipPath><clipPath id="d169596578"><path d="M 179.855469 274.515625 L 170.03125 161.796875 L 175.832031 161.292969 L 185.652344 274.011719 Z M 179.855469 274.515625 " clip-rule="nonzero"/></clipPath><clipPath id="931a640861"><path d="M 171.394531 177.433594 C 170.644531 168.800781 171.332031 161.683594 172.933594 161.546875 C 174.535156 161.40625 176.441406 168.292969 177.195312 176.929688 L 184.292969 258.375 C 185.042969 267.007812 184.355469 274.121094 182.753906 274.261719 C 181.152344 274.402344 179.246094 267.515625 178.492188 258.878906 Z M 171.394531 177.433594 " clip-rule="nonzero"/></clipPath><clipPath id="f3916f882e"><path d="M 211.277344 161.300781 L 216.140625 161.300781 L 216.140625 274.523438 L 211.277344 274.523438 Z M 211.277344 161.300781 " clip-rule="nonzero"/></clipPath><clipPath id="790233db12"><path d="M 211.277344 176.996094 C 211.277344 168.328125 212.367188 161.300781 213.710938 161.300781 C 215.050781 161.300781 216.140625 168.328125 216.140625 176.996094 L 216.140625 258.828125 C 216.140625 267.496094 215.050781 274.523438 213.710938 274.523438 C 212.367188 274.523438 211.277344 267.496094 211.277344 258.828125 Z M 211.277344 176.996094 " clip-rule="nonzero"/></clipPath><clipPath id="2a3c7804b0"><path d="M 146.789062 182.441406 L 280.355469 182.441406 L 280.355469 227.539062 L 146.789062 227.539062 Z M 146.789062 182.441406 " clip-rule="nonzero"/></clipPath><clipPath id="8cfae030b9"><path d="M 164.039062 182.441406 L 263.105469 182.441406 C 267.679688 182.441406 272.066406 184.261719 275.300781 187.496094 C 278.539062 190.730469 280.355469 195.117188 280.355469 199.691406 L 280.355469 210.289062 C 280.355469 214.863281 278.539062 219.25 275.300781 222.484375 C 272.066406 225.71875 267.679688 227.539062 263.105469 227.539062 L 164.039062 227.539062 C 159.460938 227.539062 155.074219 225.71875 151.839844 222.484375 C 148.605469 219.25 146.789062 214.863281 146.789062 210.289062 L 146.789062 199.691406 C 146.789062 195.117188 148.605469 190.730469 151.839844 187.496094 C 155.074219 184.261719 159.460938 182.441406 164.039062 182.441406 Z M 164.039062 182.441406 " clip-rule="nonzero"/></clipPath><clipPath id="aa94ac812a"><path d="M 83.234375 87.050781 L 119.984375 87.050781 L 119.984375 123.800781 L 83.234375 123.800781 Z M 83.234375 87.050781 " clip-rule="nonzero"/></clipPath></defs><g clip-path="url(#adbf12f9cf)"><path fill="#737373" d="M 96.128906 50.378906 C 70.929688 50.378906 50.378906 70.929688 50.378906 96.128906 L 50.378906 279.128906 C 50.378906 304.328125 70.929688 324.878906 96.128906 324.878906 L 279.128906 324.878906 C 304.328125 324.878906 324.878906 304.328125 324.878906 279.128906 L 324.878906 96.128906 C 324.878906 70.929688 304.328125 50.378906 279.128906 50.378906 Z M 96.128906 63.449219 L 279.128906 63.449219 C 297.253906 63.449219 311.804688 78 311.804688 96.128906 L 311.804688 279.128906 C 311.804688 297.253906 297.253906 311.804688 279.128906 311.804688 L 96.128906 311.804688 C 78 311.804688 63.449219 297.253906 63.449219 279.128906 L 63.449219 96.128906 C 63.449219 78 78 63.449219 96.128906 63.449219 Z M 96.128906 63.449219 " fill-opacity="1" fill-rule="nonzero"/></g><g clip-path="url(#7c3ce42fa8)"><path fill="#737373" d="M 259.089844 301.902344 L 168.027344 301.902344 C 160.917969 301.902344 154.625 296.160156 153.972656 289.074219 L 140.554688 143.40625 L 286.5625 143.40625 L 273.144531 289.074219 C 272.488281 296.160156 266.199219 301.902344 259.089844 301.902344 " fill-opacity="1" fill-rule="nonzero"/></g><path fill="#737373" d="M 180.15625 285.46875 C 176.828125 285.46875 174.007812 282.910156 173.742188 279.53125 L 165.394531 172.496094 C 165.117188 168.949219 167.765625 165.847656 171.3125 165.570312 C 174.867188 165.339844 177.953125 167.949219 178.230469 171.492188 L 186.582031 278.53125 C 186.855469 282.074219 184.207031 285.175781 180.660156 285.457031 C 180.492188 285.46875 180.320312 285.46875 180.15625 285.46875 " fill-opacity="1" fill-rule="nonzero"/><path fill="#737373" d="M 213.558594 285.46875 C 210 285.46875 207.117188 282.589844 207.117188 279.03125 L 207.117188 171.992188 C 207.117188 168.4375 210 165.550781 213.558594 165.550781 C 217.113281 165.550781 219.996094 168.4375 219.996094 171.992188 L 219.996094 279.03125 C 219.996094 282.589844 217.113281 285.46875 213.558594 285.46875 " fill-opacity="1" fill-rule="nonzero"/><path fill="#737373" d="M 246.964844 285.46875 C 246.792969 285.46875 246.625 285.46875 246.457031 285.457031 C 242.914062 285.175781 240.261719 282.074219 240.539062 278.53125 L 248.882812 171.492188 C 249.164062 167.945312 252.253906 165.285156 255.804688 165.570312 C 259.347656 165.847656 261.996094 168.949219 261.71875 172.496094 L 253.371094 279.53125 C 253.105469 282.910156 250.285156 285.46875 246.964844 285.46875 " fill-opacity="1" fill-rule="nonzero"/><g clip-path="url(#d4b1ca9326)"><path fill="#737373" d="M 290.796875 138.007812 C 290.796875 127.304688 282.125 118.632812 271.4375 118.632812 L 155.679688 118.632812 C 144.988281 118.632812 136.316406 127.304688 136.316406 138.007812 L 136.316406 143.40625 L 290.796875 143.40625 L 290.796875 138.007812 " fill-opacity="1" fill-rule="nonzero"/></g><g clip-path="url(#2056ed2784)"><path fill="#737373" d="M 189.449219 118.632812 L 189.449219 113.042969 C 189.449219 110.675781 191.378906 108.75 193.746094 108.75 L 233.371094 108.75 C 235.742188 108.75 237.667969 110.675781 237.667969 113.042969 L 237.667969 118.632812 L 246.246094 118.632812 L 246.246094 113.042969 C 246.246094 105.9375 240.472656 100.160156 233.371094 100.160156 L 193.746094 100.160156 C 186.644531 100.160156 180.867188 105.9375 180.867188 113.042969 L 180.867188 118.632812 L 189.449219 118.632812 " fill-opacity="1" fill-rule="nonzero"/></g><path fill="#737373" d="M 140.949219 147.699219 L 286.167969 147.699219 L 286.5625 143.40625 L 140.554688 143.40625 L 140.949219 147.699219 " fill-opacity="1" fill-rule="nonzero"/><g clip-path="url(#2b97fac41e)"><g clip-path="url(#b174b7b0e9)"><g clip-path="url(#38bd2a52ab)"><path fill="#545454" d="M 242.617188 274.347656 L 251.597656 161.296875 L 257.113281 161.734375 L 248.128906 274.785156 Z M 242.617188 274.347656 " fill-opacity="1" fill-rule="nonzero"/></g></g></g><g clip-path="url(#f8c40ec6bb)"><g clip-path="url(#d169596578)"><g clip-path="url(#931a640861)"><path fill="#545454" d="M 179.855469 274.515625 L 170.03125 161.796875 L 175.832031 161.292969 L 185.652344 274.011719 Z M 179.855469 274.515625 " fill-opacity="1" fill-rule="nonzero"/></g></g></g><g clip-path="url(#f3916f882e)"><g clip-path="url(#790233db12)"><path fill="#545454" d="M 211.277344 274.523438 L 211.277344 161.300781 L 216.140625 161.300781 L 216.140625 274.523438 Z M 211.277344 274.523438 " fill-opacity="1" fill-rule="nonzero"/></g></g><g clip-path="url(#2a3c7804b0)"><g clip-path="url(#8cfae030b9)"><path fill="#2e2a2a" d="M 146.789062 182.441406 L 280.355469 182.441406 L 280.355469 227.539062 L 146.789062 227.539062 Z M 146.789062 182.441406 " fill-opacity="1" fill-rule="nonzero"/></g></g><g fill="#ffffff" fill-opacity="1"><g transform="translate(170.634913, 211.268152)"><g><path d="M 12.640625 -6.15625 C 12.640625 -5.269531 12.492188 -4.445312 12.203125 -3.6875 C 11.910156 -2.925781 11.492188 -2.253906 10.953125 -1.671875 C 10.421875 -1.097656 9.789062 -0.644531 9.0625 -0.3125 C 8.332031 0.0078125 7.53125 0.171875 6.65625 0.171875 C 5.789062 0.171875 4.992188 0.0078125 4.265625 -0.3125 C 3.546875 -0.644531 2.914062 -1.097656 2.375 -1.671875 C 1.84375 -2.253906 1.429688 -2.925781 1.140625 -3.6875 C 0.847656 -4.445312 0.703125 -5.269531 0.703125 -6.15625 C 0.703125 -7.03125 0.847656 -7.847656 1.140625 -8.609375 C 1.429688 -9.367188 1.84375 -10.039062 2.375 -10.625 C 2.914062 -11.207031 3.546875 -11.660156 4.265625 -11.984375 C 4.992188 -12.316406 5.789062 -12.484375 6.65625 -12.484375 C 7.53125 -12.484375 8.332031 -12.316406 9.0625 -11.984375 C 9.789062 -11.660156 10.421875 -11.207031 10.953125 -10.625 C 11.492188 -10.039062 11.910156 -9.367188 12.203125 -8.609375 C 12.492188 -7.847656 12.640625 -7.03125 12.640625 -6.15625 Z M 10.359375 -6.15625 C 10.359375 -6.9375 10.195312 -7.644531 9.875 -8.28125 C 9.5625 -8.925781 9.128906 -9.4375 8.578125 -9.8125 C 8.023438 -10.1875 7.382812 -10.375 6.65625 -10.375 C 5.9375 -10.375 5.300781 -10.1875 4.75 -9.8125 C 4.195312 -9.4375 3.765625 -8.929688 3.453125 -8.296875 C 3.140625 -7.660156 2.984375 -6.945312 2.984375 -6.15625 C 2.984375 -5.363281 3.140625 -4.648438 3.453125 -4.015625 C 3.765625 -3.378906 4.195312 -2.875 4.75 -2.5 C 5.300781 -2.125 5.9375 -1.9375 6.65625 -1.9375 C 7.382812 -1.9375 8.023438 -2.125 8.578125 -2.5 C 9.128906 -2.875 9.5625 -3.378906 9.875 -4.015625 C 10.195312 -4.648438 10.359375 -5.363281 10.359375 -6.15625 Z M 10.359375 -6.15625 "/></g></g></g><g fill="#ffffff" fill-opacity="1"><g transform="translate(183.977389, 211.268152)"><g><path d="M 2.578125 0 C 2.253906 0 1.960938 -0.0976562 1.703125 -0.296875 C 1.441406 -0.503906 1.3125 -0.765625 1.3125 -1.078125 L 1.3125 -11.234375 C 1.3125 -11.535156 1.414062 -11.789062 1.625 -12 C 1.832031 -12.207031 2.085938 -12.3125 2.390625 -12.3125 L 7.453125 -12.3125 C 8.066406 -12.3125 8.640625 -12.148438 9.171875 -11.828125 C 9.703125 -11.503906 10.128906 -11.054688 10.453125 -10.484375 C 10.785156 -9.921875 10.953125 -9.269531 10.953125 -8.53125 C 10.953125 -8.082031 10.859375 -7.644531 10.671875 -7.21875 C 10.492188 -6.800781 10.25 -6.421875 9.9375 -6.078125 C 9.625 -5.742188 9.273438 -5.484375 8.890625 -5.296875 L 8.90625 -5.703125 C 9.238281 -5.523438 9.515625 -5.316406 9.734375 -5.078125 C 9.953125 -4.835938 10.117188 -4.578125 10.234375 -4.296875 C 10.359375 -4.023438 10.429688 -3.726562 10.453125 -3.40625 C 10.503906 -3.113281 10.535156 -2.851562 10.546875 -2.625 C 10.566406 -2.40625 10.601562 -2.21875 10.65625 -2.0625 C 10.707031 -1.914062 10.8125 -1.800781 10.96875 -1.71875 C 11.226562 -1.570312 11.390625 -1.351562 11.453125 -1.0625 C 11.515625 -0.78125 11.445312 -0.523438 11.25 -0.296875 C 11.125 -0.148438 10.957031 -0.0546875 10.75 -0.015625 C 10.550781 0.0234375 10.351562 0.0234375 10.15625 -0.015625 C 9.957031 -0.0546875 9.796875 -0.109375 9.671875 -0.171875 C 9.472656 -0.296875 9.269531 -0.46875 9.0625 -0.6875 C 8.863281 -0.914062 8.703125 -1.222656 8.578125 -1.609375 C 8.460938 -2.003906 8.40625 -2.503906 8.40625 -3.109375 C 8.40625 -3.304688 8.367188 -3.488281 8.296875 -3.65625 C 8.222656 -3.832031 8.125 -3.984375 8 -4.109375 C 7.875 -4.234375 7.707031 -4.328125 7.5 -4.390625 C 7.300781 -4.453125 7.066406 -4.484375 6.796875 -4.484375 L 3.25 -4.484375 L 3.515625 -4.890625 L 3.515625 -1.078125 C 3.515625 -0.765625 3.429688 -0.503906 3.265625 -0.296875 C 3.109375 -0.0976562 2.878906 0 2.578125 0 Z M 3.265625 -6.296875 L 7.359375 -6.296875 C 7.578125 -6.296875 7.785156 -6.390625 7.984375 -6.578125 C 8.179688 -6.773438 8.34375 -7.039062 8.46875 -7.375 C 8.601562 -7.707031 8.671875 -8.070312 8.671875 -8.46875 C 8.671875 -8.988281 8.53125 -9.421875 8.25 -9.765625 C 7.976562 -10.109375 7.679688 -10.28125 7.359375 -10.28125 L 3.3125 -10.28125 L 3.515625 -10.84375 L 3.515625 -5.875 Z M 3.265625 -6.296875 "/></g></g></g><g fill="#ffffff" fill-opacity="1"><g transform="translate(196.054176, 211.268152)"><g><path d="M 7.125 0.171875 C 6.226562 0.171875 5.394531 0.0078125 4.625 -0.3125 C 3.851562 -0.644531 3.171875 -1.097656 2.578125 -1.671875 C 1.992188 -2.253906 1.535156 -2.925781 1.203125 -3.6875 C 0.867188 -4.445312 0.703125 -5.269531 0.703125 -6.15625 C 0.703125 -7.03125 0.867188 -7.847656 1.203125 -8.609375 C 1.535156 -9.367188 1.992188 -10.039062 2.578125 -10.625 C 3.171875 -11.207031 3.851562 -11.660156 4.625 -11.984375 C 5.394531 -12.316406 6.226562 -12.484375 7.125 -12.484375 C 7.675781 -12.484375 8.207031 -12.421875 8.71875 -12.296875 C 9.238281 -12.179688 9.710938 -12.007812 10.140625 -11.78125 C 10.316406 -11.6875 10.445312 -11.554688 10.53125 -11.390625 C 10.625 -11.234375 10.671875 -11.078125 10.671875 -10.921875 C 10.671875 -10.640625 10.578125 -10.382812 10.390625 -10.15625 C 10.203125 -9.9375 9.960938 -9.828125 9.671875 -9.828125 C 9.578125 -9.828125 9.476562 -9.835938 9.375 -9.859375 C 9.28125 -9.878906 9.1875 -9.914062 9.09375 -9.96875 C 8.800781 -10.09375 8.488281 -10.191406 8.15625 -10.265625 C 7.832031 -10.335938 7.488281 -10.375 7.125 -10.375 C 6.363281 -10.375 5.664062 -10.179688 5.03125 -9.796875 C 4.40625 -9.421875 3.90625 -8.910156 3.53125 -8.265625 C 3.164062 -7.628906 2.984375 -6.925781 2.984375 -6.15625 C 2.984375 -5.394531 3.164062 -4.691406 3.53125 -4.046875 C 3.90625 -3.398438 4.40625 -2.882812 5.03125 -2.5 C 5.664062 -2.125 6.363281 -1.9375 7.125 -1.9375 C 7.46875 -1.9375 7.847656 -1.96875 8.265625 -2.03125 C 8.691406 -2.101562 9.039062 -2.203125 9.3125 -2.328125 L 9.15625 -1.796875 L 9.15625 -4.796875 L 9.453125 -4.53125 L 7.5 -4.53125 C 7.195312 -4.53125 6.941406 -4.628906 6.734375 -4.828125 C 6.535156 -5.035156 6.4375 -5.289062 6.4375 -5.59375 C 6.4375 -5.894531 6.535156 -6.144531 6.734375 -6.34375 C 6.941406 -6.539062 7.195312 -6.640625 7.5 -6.640625 L 10.390625 -6.640625 C 10.691406 -6.640625 10.941406 -6.535156 11.140625 -6.328125 C 11.335938 -6.128906 11.4375 -5.878906 11.4375 -5.578125 L 11.4375 -1.84375 C 11.4375 -1.613281 11.378906 -1.421875 11.265625 -1.265625 C 11.160156 -1.109375 11.039062 -0.984375 10.90625 -0.890625 C 10.363281 -0.566406 9.769531 -0.304688 9.125 -0.109375 C 8.488281 0.078125 7.820312 0.171875 7.125 0.171875 Z M 7.125 0.171875 "/></g></g></g><g fill="#ffffff" fill-opacity="1"><g transform="translate(208.289177, 211.268152)"><g><path d="M 5.84375 -9.546875 L 2.046875 -0.609375 C 1.960938 -0.390625 1.832031 -0.21875 1.65625 -0.09375 C 1.488281 0.03125 1.304688 0.09375 1.109375 0.09375 C 0.796875 0.09375 0.5625 0.00390625 0.40625 -0.171875 C 0.25 -0.347656 0.171875 -0.566406 0.171875 -0.828125 C 0.171875 -0.929688 0.191406 -1.039062 0.234375 -1.15625 L 4.609375 -11.671875 C 4.703125 -11.910156 4.84375 -12.09375 5.03125 -12.21875 C 5.226562 -12.34375 5.4375 -12.394531 5.65625 -12.375 C 5.875 -12.375 6.070312 -12.3125 6.25 -12.1875 C 6.425781 -12.0625 6.554688 -11.890625 6.640625 -11.671875 L 10.96875 -1.375 C 11.03125 -1.21875 11.0625 -1.078125 11.0625 -0.953125 C 11.0625 -0.628906 10.957031 -0.375 10.75 -0.1875 C 10.539062 0 10.316406 0.09375 10.078125 0.09375 C 9.859375 0.09375 9.664062 0.03125 9.5 -0.09375 C 9.332031 -0.226562 9.203125 -0.410156 9.109375 -0.640625 L 5.328125 -9.4375 Z M 2.578125 -2.765625 L 3.546875 -4.78125 L 8.296875 -4.78125 L 8.625 -2.765625 Z M 5.96875 -14.25 L 4.5 -13.390625 C 4.300781 -13.273438 4.128906 -13.179688 3.984375 -13.109375 C 3.847656 -13.035156 3.71875 -13 3.59375 -13 C 3.445312 -13 3.316406 -13.046875 3.203125 -13.140625 C 3.097656 -13.234375 3.046875 -13.332031 3.046875 -13.4375 C 3.046875 -13.53125 3.0625 -13.613281 3.09375 -13.6875 C 3.132812 -13.757812 3.207031 -13.851562 3.3125 -13.96875 L 4.421875 -15.234375 C 4.578125 -15.398438 4.734375 -15.523438 4.890625 -15.609375 C 5.054688 -15.703125 5.257812 -15.75 5.5 -15.75 L 5.78125 -15.75 C 6.007812 -15.75 6.207031 -15.703125 6.375 -15.609375 C 6.539062 -15.523438 6.695312 -15.398438 6.84375 -15.234375 L 7.953125 -13.96875 C 8.054688 -13.851562 8.125 -13.757812 8.15625 -13.6875 C 8.195312 -13.613281 8.21875 -13.53125 8.21875 -13.4375 C 8.21875 -13.332031 8.164062 -13.234375 8.0625 -13.140625 C 7.96875 -13.046875 7.835938 -13 7.671875 -13 C 7.554688 -13 7.425781 -13.035156 7.28125 -13.109375 C 7.144531 -13.179688 6.976562 -13.273438 6.78125 -13.390625 L 5.296875 -14.25 Z M 5.96875 -14.25 "/></g></g></g><g fill="#ffffff" fill-opacity="1"><g transform="translate(219.522169, 211.268152)"><g><path d="M 10.65625 -12.3125 C 10.9375 -12.3125 11.164062 -12.21875 11.34375 -12.03125 C 11.519531 -11.84375 11.609375 -11.609375 11.609375 -11.328125 L 11.609375 -1.078125 C 11.609375 -0.765625 11.503906 -0.503906 11.296875 -0.296875 C 11.085938 -0.0976562 10.832031 0 10.53125 0 C 10.375 0 10.21875 -0.0234375 10.0625 -0.078125 C 9.90625 -0.128906 9.785156 -0.203125 9.703125 -0.296875 L 2.796875 -9.078125 L 3.25 -9.359375 L 3.25 -0.984375 C 3.25 -0.703125 3.15625 -0.46875 2.96875 -0.28125 C 2.789062 -0.09375 2.554688 0 2.265625 0 C 1.984375 0 1.753906 -0.09375 1.578125 -0.28125 C 1.398438 -0.46875 1.3125 -0.703125 1.3125 -0.984375 L 1.3125 -11.234375 C 1.3125 -11.535156 1.414062 -11.789062 1.625 -12 C 1.832031 -12.207031 2.085938 -12.3125 2.390625 -12.3125 C 2.554688 -12.3125 2.726562 -12.273438 2.90625 -12.203125 C 3.082031 -12.140625 3.207031 -12.046875 3.28125 -11.921875 L 9.984375 -3.375 L 9.6875 -3.171875 L 9.6875 -11.328125 C 9.6875 -11.609375 9.773438 -11.84375 9.953125 -12.03125 C 10.128906 -12.21875 10.363281 -12.3125 10.65625 -12.3125 Z M 10.65625 -12.3125 "/></g></g></g><g fill="#ffffff" fill-opacity="1"><g transform="translate(232.442751, 211.268152)"><g><path d="M 3.515625 -1.078125 C 3.515625 -0.765625 3.398438 -0.503906 3.171875 -0.296875 C 2.953125 -0.0976562 2.695312 0 2.40625 0 C 2.082031 0 1.816406 -0.0976562 1.609375 -0.296875 C 1.410156 -0.503906 1.3125 -0.765625 1.3125 -1.078125 L 1.3125 -11.234375 C 1.3125 -11.535156 1.414062 -11.789062 1.625 -12 C 1.84375 -12.207031 2.113281 -12.3125 2.4375 -12.3125 C 2.71875 -12.3125 2.96875 -12.207031 3.1875 -12 C 3.40625 -11.789062 3.515625 -11.535156 3.515625 -11.234375 Z M 3.515625 -1.078125 "/></g></g></g><g fill="#ffffff" fill-opacity="1"><g transform="translate(237.276984, 211.268152)"><g><path d="M 9.9375 -11.703125 C 10.238281 -11.554688 10.414062 -11.316406 10.46875 -10.984375 C 10.519531 -10.660156 10.4375 -10.363281 10.21875 -10.09375 C 10.0625 -9.882812 9.863281 -9.765625 9.625 -9.734375 C 9.382812 -9.710938 9.140625 -9.757812 8.890625 -9.875 C 8.609375 -10.007812 8.3125 -10.109375 8 -10.171875 C 7.695312 -10.242188 7.375 -10.28125 7.03125 -10.28125 C 6.394531 -10.28125 5.828125 -10.179688 5.328125 -9.984375 C 4.835938 -9.785156 4.414062 -9.5 4.0625 -9.125 C 3.707031 -8.757812 3.4375 -8.320312 3.25 -7.8125 C 3.070312 -7.3125 2.984375 -6.757812 2.984375 -6.15625 C 2.984375 -5.4375 3.085938 -4.8125 3.296875 -4.28125 C 3.503906 -3.757812 3.785156 -3.320312 4.140625 -2.96875 C 4.503906 -2.613281 4.929688 -2.351562 5.421875 -2.1875 C 5.921875 -2.019531 6.457031 -1.9375 7.03125 -1.9375 C 7.34375 -1.9375 7.65625 -1.960938 7.96875 -2.015625 C 8.289062 -2.078125 8.597656 -2.1875 8.890625 -2.34375 C 9.140625 -2.457031 9.382812 -2.492188 9.625 -2.453125 C 9.863281 -2.421875 10.066406 -2.300781 10.234375 -2.09375 C 10.460938 -1.800781 10.546875 -1.5 10.484375 -1.1875 C 10.421875 -0.875 10.242188 -0.648438 9.953125 -0.515625 C 9.648438 -0.359375 9.335938 -0.226562 9.015625 -0.125 C 8.691406 -0.03125 8.363281 0.0390625 8.03125 0.09375 C 7.707031 0.144531 7.375 0.171875 7.03125 0.171875 C 6.1875 0.171875 5.382812 0.0351562 4.625 -0.234375 C 3.875 -0.503906 3.203125 -0.898438 2.609375 -1.421875 C 2.015625 -1.953125 1.546875 -2.613281 1.203125 -3.40625 C 0.867188 -4.195312 0.703125 -5.113281 0.703125 -6.15625 C 0.703125 -7.050781 0.859375 -7.878906 1.171875 -8.640625 C 1.484375 -9.410156 1.921875 -10.070312 2.484375 -10.625 C 3.054688 -11.1875 3.726562 -11.617188 4.5 -11.921875 C 5.269531 -12.234375 6.113281 -12.390625 7.03125 -12.390625 C 7.550781 -12.390625 8.054688 -12.332031 8.546875 -12.21875 C 9.035156 -12.101562 9.5 -11.929688 9.9375 -11.703125 Z M 9.9375 -11.703125 "/></g></g></g><g fill="#ffffff" fill-opacity="1"><g transform="translate(248.299029, 211.268152)"><g><path d="M 12.640625 -6.15625 C 12.640625 -5.269531 12.492188 -4.445312 12.203125 -3.6875 C 11.910156 -2.925781 11.492188 -2.253906 10.953125 -1.671875 C 10.421875 -1.097656 9.789062 -0.644531 9.0625 -0.3125 C 8.332031 0.0078125 7.53125 0.171875 6.65625 0.171875 C 5.789062 0.171875 4.992188 0.0078125 4.265625 -0.3125 C 3.546875 -0.644531 2.914062 -1.097656 2.375 -1.671875 C 1.84375 -2.253906 1.429688 -2.925781 1.140625 -3.6875 C 0.847656 -4.445312 0.703125 -5.269531 0.703125 -6.15625 C 0.703125 -7.03125 0.847656 -7.847656 1.140625 -8.609375 C 1.429688 -9.367188 1.84375 -10.039062 2.375 -10.625 C 2.914062 -11.207031 3.546875 -11.660156 4.265625 -11.984375 C 4.992188 -12.316406 5.789062 -12.484375 6.65625 -12.484375 C 7.53125 -12.484375 8.332031 -12.316406 9.0625 -11.984375 C 9.789062 -11.660156 10.421875 -11.207031 10.953125 -10.625 C 11.492188 -10.039062 11.910156 -9.367188 12.203125 -8.609375 C 12.492188 -7.847656 12.640625 -7.03125 12.640625 -6.15625 Z M 10.359375 -6.15625 C 10.359375 -6.9375 10.195312 -7.644531 9.875 -8.28125 C 9.5625 -8.925781 9.128906 -9.4375 8.578125 -9.8125 C 8.023438 -10.1875 7.382812 -10.375 6.65625 -10.375 C 5.9375 -10.375 5.300781 -10.1875 4.75 -9.8125 C 4.195312 -9.4375 3.765625 -8.929688 3.453125 -8.296875 C 3.140625 -7.660156 2.984375 -6.945312 2.984375 -6.15625 C 2.984375 -5.363281 3.140625 -4.648438 3.453125 -4.015625 C 3.765625 -3.378906 4.195312 -2.875 4.75 -2.5 C 5.300781 -2.125 5.9375 -1.9375 6.65625 -1.9375 C 7.382812 -1.9375 8.023438 -2.125 8.578125 -2.5 C 9.128906 -2.875 9.5625 -3.378906 9.875 -4.015625 C 10.195312 -4.648438 10.359375 -5.363281 10.359375 -6.15625 Z M 10.359375 -6.15625 "/></g></g></g><g clip-path="url(#aa94ac812a)"><path fill="#000000" d="M 113.09375 89.875 C 115.332031 89.875 117.15625 91.699219 117.15625 93.941406 L 117.15625 116.910156 C 117.15625 119.148438 115.332031 120.972656 113.09375 120.972656 L 90.125 120.972656 C 87.882812 120.972656 86.058594 119.148438 86.058594 116.910156 L 86.058594 93.941406 C 86.058594 91.699219 87.882812 89.875 90.125 89.875 L 113.09375 89.875 M 113.09375 87.050781 L 90.125 87.050781 C 86.316406 87.050781 83.234375 90.132812 83.234375 93.941406 L 83.234375 116.910156 C 83.234375 120.714844 86.316406 123.800781 90.125 123.800781 L 113.09375 123.800781 C 116.898438 123.800781 119.984375 120.714844 119.984375 116.910156 L 119.984375 93.941406 C 119.984375 90.132812 116.898438 87.050781 113.09375 87.050781 Z M 113.09375 87.050781 " fill-opacity="1" fill-rule="nonzero"/></g></svg>