<svg xmlns="http://www.w3.org/2000/svg" xmlns:xlink="http://www.w3.org/1999/xlink" width="500" zoomAndPan="magnify" viewBox="0 0 375 374.999991" height="500" preserveAspectRatio="xMidYMid meet" version="1.0"><defs><g/><clipPath id="1db1aeca5c"><path d="M 50.378906 50.378906 L 324.878906 50.378906 L 324.878906 324.878906 L 50.378906 324.878906 Z M 50.378906 50.378906 " clip-rule="nonzero"/></clipPath><clipPath id="b3dfd8c08d"><path d="M 140 143 L 287 143 L 287 301.90625 L 140 301.90625 Z M 140 143 " clip-rule="nonzero"/></clipPath><clipPath id="0b61a02c7e"><path d="M 136.308594 118 L 290.808594 118 L 290.808594 144 L 136.308594 144 Z M 136.308594 118 " clip-rule="nonzero"/></clipPath><clipPath id="4440eea1a3"><path d="M 180 100.15625 L 247 100.15625 L 247 119 L 180 119 Z M 180 100.15625 " clip-rule="nonzero"/></clipPath><clipPath id="a15a70ab6c"><path d="M 243 161 L 257 161 L 257 275 L 243 275 Z M 243 161 " clip-rule="nonzero"/></clipPath><clipPath id="2b7a0595ac"><path d="M 242.617188 274.347656 L 251.597656 161.296875 L 257.113281 161.734375 L 248.128906 274.785156 Z M 242.617188 274.347656 " clip-rule="nonzero"/></clipPath><clipPath id="0f0f616394"><path d="M 250.355469 176.945312 C 251.042969 168.304688 252.832031 161.394531 254.355469 161.515625 C 255.878906 161.636719 256.554688 168.742188 255.867188 177.382812 L 249.371094 259.136719 C 248.683594 267.777344 246.894531 274.6875 245.371094 274.566406 C 243.851562 274.445312 243.171875 267.339844 243.859375 258.699219 Z M 250.355469 176.945312 " clip-rule="nonzero"/></clipPath><clipPath id="2a81859874"><path d="M 171 161 L 185 161 L 185 275 L 171 275 Z M 171 161 " clip-rule="nonzero"/></clipPath><clipPath id="3966947fa1"><path d="M 179.855469 274.515625 L 170.03125 161.796875 L 175.832031 161.292969 L 185.652344 274.011719 Z M 179.855469 274.515625 " clip-rule="nonzero"/></clipPath><clipPath id="c44d3a8acc"><path d="M 171.394531 177.433594 C 170.644531 168.800781 171.332031 161.683594 172.933594 161.546875 C 174.535156 161.40625 176.441406 168.292969 177.195312 176.929688 L 184.292969 258.375 C 185.042969 267.007812 184.355469 274.121094 182.753906 274.261719 C 181.152344 274.402344 179.246094 267.515625 178.492188 258.878906 Z M 171.394531 177.433594 " clip-rule="nonzero"/></clipPath><clipPath id="567817d416"><path d="M 211.277344 161.300781 L 216.140625 161.300781 L 216.140625 274.523438 L 211.277344 274.523438 Z M 211.277344 161.300781 " clip-rule="nonzero"/></clipPath><clipPath id="ad3f780077"><path d="M 211.277344 176.996094 C 211.277344 168.328125 212.367188 161.300781 213.710938 161.300781 C 215.050781 161.300781 216.140625 168.328125 216.140625 176.996094 L 216.140625 258.828125 C 216.140625 267.496094 215.050781 274.523438 213.710938 274.523438 C 212.367188 274.523438 211.277344 267.496094 211.277344 258.828125 Z M 211.277344 176.996094 " clip-rule="nonzero"/></clipPath><clipPath id="7a93419c7e"><path d="M 146.789062 182.441406 L 280.355469 182.441406 L 280.355469 227.539062 L 146.789062 227.539062 Z M 146.789062 182.441406 " clip-rule="nonzero"/></clipPath><clipPath id="b958eee3c4"><path d="M 164.039062 182.441406 L 263.105469 182.441406 C 267.679688 182.441406 272.066406 184.261719 275.300781 187.496094 C 278.539062 190.730469 280.355469 195.117188 280.355469 199.691406 L 280.355469 210.289062 C 280.355469 214.863281 278.539062 219.25 275.300781 222.484375 C 272.066406 225.71875 267.679688 227.539062 263.105469 227.539062 L 164.039062 227.539062 C 159.460938 227.539062 155.074219 225.71875 151.839844 222.484375 C 148.605469 219.25 146.789062 214.863281 146.789062 210.289062 L 146.789062 199.691406 C 146.789062 195.117188 148.605469 190.730469 151.839844 187.496094 C 155.074219 184.261719 159.460938 182.441406 164.039062 182.441406 Z M 164.039062 182.441406 " clip-rule="nonzero"/></clipPath><clipPath id="17f8060de9"><path d="M 83.234375 87.050781 L 119.984375 87.050781 L 119.984375 123.800781 L 83.234375 123.800781 Z M 83.234375 87.050781 " clip-rule="nonzero"/></clipPath><clipPath id="778e0cfe4f"><path d="M 88.289062 92.105469 L 114.539062 92.105469 L 114.539062 118.355469 L 88.289062 118.355469 Z M 88.289062 92.105469 " clip-rule="nonzero"/></clipPath></defs><g clip-path="url(#1db1aeca5c)"><path fill="#00bf63" d="M 96.128906 50.378906 C 70.929688 50.378906 50.378906 70.929688 50.378906 96.128906 L 50.378906 279.128906 C 50.378906 304.328125 70.929688 324.878906 96.128906 324.878906 L 279.128906 324.878906 C 304.328125 324.878906 324.878906 304.328125 324.878906 279.128906 L 324.878906 96.128906 C 324.878906 70.929688 304.328125 50.378906 279.128906 50.378906 Z M 96.128906 63.449219 L 279.128906 63.449219 C 297.253906 63.449219 311.804688 78 311.804688 96.128906 L 311.804688 279.128906 C 311.804688 297.253906 297.253906 311.804688 279.128906 311.804688 L 96.128906 311.804688 C 78 311.804688 63.449219 297.253906 63.449219 279.128906 L 63.449219 96.128906 C 63.449219 78 78 63.449219 96.128906 63.449219 Z M 96.128906 63.449219 " fill-opacity="1" fill-rule="nonzero"/></g><g clip-path="url(#b3dfd8c08d)"><path fill="#000000" d="M 259.089844 301.902344 L 168.027344 301.902344 C 160.917969 301.902344 154.625 296.160156 153.972656 289.074219 L 140.554688 143.40625 L 286.5625 143.40625 L 273.144531 289.074219 C 272.488281 296.160156 266.199219 301.902344 259.089844 301.902344 " fill-opacity="1" fill-rule="nonzero"/></g><path fill="#000000" d="M 180.15625 285.46875 C 176.828125 285.46875 174.007812 282.910156 173.742188 279.53125 L 165.394531 172.496094 C 165.117188 168.949219 167.765625 165.847656 171.3125 165.570312 C 174.867188 165.339844 177.953125 167.949219 178.230469 171.492188 L 186.582031 278.53125 C 186.855469 282.074219 184.207031 285.175781 180.660156 285.457031 C 180.492188 285.46875 180.320312 285.46875 180.15625 285.46875 " fill-opacity="1" fill-rule="nonzero"/><path fill="#000000" d="M 213.558594 285.46875 C 210 285.46875 207.117188 282.589844 207.117188 279.03125 L 207.117188 171.992188 C 207.117188 168.4375 210 165.550781 213.558594 165.550781 C 217.113281 165.550781 219.996094 168.4375 219.996094 171.992188 L 219.996094 279.03125 C 219.996094 282.589844 217.113281 285.46875 213.558594 285.46875 " fill-opacity="1" fill-rule="nonzero"/><path fill="#000000" d="M 246.964844 285.46875 C 246.792969 285.46875 246.625 285.46875 246.457031 285.457031 C 242.914062 285.175781 240.261719 282.074219 240.539062 278.53125 L 248.882812 171.492188 C 249.164062 167.945312 252.253906 165.285156 255.804688 165.570312 C 259.347656 165.847656 261.996094 168.949219 261.71875 172.496094 L 253.371094 279.53125 C 253.105469 282.910156 250.285156 285.46875 246.964844 285.46875 " fill-opacity="1" fill-rule="nonzero"/><g clip-path="url(#0b61a02c7e)"><path fill="#000000" d="M 290.796875 138.007812 C 290.796875 127.304688 282.125 118.632812 271.4375 118.632812 L 155.679688 118.632812 C 144.988281 118.632812 136.316406 127.304688 136.316406 138.007812 L 136.316406 143.40625 L 290.796875 143.40625 L 290.796875 138.007812 " fill-opacity="1" fill-rule="nonzero"/></g><g clip-path="url(#4440eea1a3)"><path fill="#000000" d="M 189.449219 118.632812 L 189.449219 113.042969 C 189.449219 110.675781 191.378906 108.75 193.746094 108.75 L 233.371094 108.75 C 235.742188 108.75 237.667969 110.675781 237.667969 113.042969 L 237.667969 118.632812 L 246.246094 118.632812 L 246.246094 113.042969 C 246.246094 105.9375 240.472656 100.160156 233.371094 100.160156 L 193.746094 100.160156 C 186.644531 100.160156 180.867188 105.9375 180.867188 113.042969 L 180.867188 118.632812 L 189.449219 118.632812 " fill-opacity="1" fill-rule="nonzero"/></g><path fill="#000000" d="M 140.949219 147.699219 L 286.167969 147.699219 L 286.5625 143.40625 L 140.554688 143.40625 L 140.949219 147.699219 " fill-opacity="1" fill-rule="nonzero"/><g clip-path="url(#a15a70ab6c)"><g clip-path="url(#2b7a0595ac)"><g clip-path="url(#0f0f616394)"><path fill="#545454" d="M 242.617188 274.347656 L 251.597656 161.296875 L 257.113281 161.734375 L 248.128906 274.785156 Z M 242.617188 274.347656 " fill-opacity="1" fill-rule="nonzero"/></g></g></g><g clip-path="url(#2a81859874)"><g clip-path="url(#3966947fa1)"><g clip-path="url(#c44d3a8acc)"><path fill="#545454" d="M 179.855469 274.515625 L 170.03125 161.796875 L 175.832031 161.292969 L 185.652344 274.011719 Z M 179.855469 274.515625 " fill-opacity="1" fill-rule="nonzero"/></g></g></g><g clip-path="url(#567817d416)"><g clip-path="url(#ad3f780077)"><path fill="#545454" d="M 211.277344 274.523438 L 211.277344 161.300781 L 216.140625 161.300781 L 216.140625 274.523438 Z M 211.277344 274.523438 " fill-opacity="1" fill-rule="nonzero"/></g></g><g clip-path="url(#7a93419c7e)"><g clip-path="url(#b958eee3c4)"><path fill="#2e2a2a" d="M 146.789062 182.441406 L 280.355469 182.441406 L 280.355469 227.539062 L 146.789062 227.539062 Z M 146.789062 182.441406 " fill-opacity="1" fill-rule="nonzero"/></g></g><g clip-path="url(#17f8060de9)"><path fill="#000000" d="M 113.09375 89.875 C 115.332031 89.875 117.15625 91.699219 117.15625 93.941406 L 117.15625 116.910156 C 117.15625 119.148438 115.332031 120.972656 113.09375 120.972656 L 90.125 120.972656 C 87.882812 120.972656 86.058594 119.148438 86.058594 116.910156 L 86.058594 93.941406 C 86.058594 91.699219 87.882812 89.875 90.125 89.875 L 113.09375 89.875 M 113.09375 87.050781 L 90.125 87.050781 C 86.316406 87.050781 83.234375 90.132812 83.234375 93.941406 L 83.234375 116.910156 C 83.234375 120.714844 86.316406 123.800781 90.125 123.800781 L 113.09375 123.800781 C 116.898438 123.800781 119.984375 120.714844 119.984375 116.910156 L 119.984375 93.941406 C 119.984375 90.132812 116.898438 87.050781 113.09375 87.050781 Z M 113.09375 87.050781 " fill-opacity="1" fill-rule="nonzero"/></g><g clip-path="url(#778e0cfe4f)"><path fill="#ffffff" d="M 114.539062 115.4375 C 114.539062 117.050781 113.230469 118.355469 111.621094 118.355469 L 91.203125 118.355469 C 89.59375 118.355469 88.289062 117.050781 88.289062 115.4375 L 88.289062 95.019531 C 88.289062 93.410156 89.59375 92.105469 91.203125 92.105469 L 111.621094 92.105469 C 113.230469 92.105469 114.539062 93.410156 114.539062 95.019531 Z M 114.539062 115.4375 " fill-opacity="1" fill-rule="nonzero"/></g><path fill="#00bf63" d="M 109.636719 96.742188 C 108.796875 96.195312 107.667969 96.4375 107.117188 97.28125 L 99.179688 109.515625 L 95.511719 106.125 C 94.773438 105.441406 93.621094 105.488281 92.9375 106.226562 C 92.253906 106.964844 92.296875 108.117188 93.039062 108.800781 L 98.292969 113.660156 C 98.644531 113.988281 99.089844 114.148438 99.53125 114.148438 C 100.019531 114.148438 100.648438 113.941406 101.0625 113.316406 C 101.304688 112.949219 110.175781 99.265625 110.175781 99.265625 C 110.722656 98.421875 110.484375 97.292969 109.636719 96.742188 Z M 109.636719 96.742188 " fill-opacity="1" fill-rule="nonzero"/><g fill="#ffffff" fill-opacity="1"><g transform="translate(177.939877, 211.268152)"><g><path d="M 2.421875 -12.328125 C 2.585938 -12.328125 2.757812 -12.28125 2.9375 -12.1875 C 3.125 -12.101562 3.265625 -11.988281 3.359375 -11.84375 L 7.625 -5.28125 L 6.75 -5.3125 L 11.125 -11.84375 C 11.351562 -12.164062 11.640625 -12.328125 11.984375 -12.328125 C 12.265625 -12.328125 12.515625 -12.222656 12.734375 -12.015625 C 12.960938 -11.816406 13.078125 -11.5625 13.078125 -11.25 L 13.078125 -1.078125 C 13.078125 -0.765625 12.976562 -0.503906 12.78125 -0.296875 C 12.582031 -0.0976562 12.316406 0 11.984375 0 C 11.660156 0 11.394531 -0.0976562 11.1875 -0.296875 C 10.976562 -0.503906 10.875 -0.765625 10.875 -1.078125 L 10.875 -9.359375 L 11.5625 -9.1875 L 7.984375 -3.734375 C 7.878906 -3.597656 7.742188 -3.484375 7.578125 -3.390625 C 7.421875 -3.296875 7.265625 -3.253906 7.109375 -3.265625 C 6.953125 -3.253906 6.796875 -3.296875 6.640625 -3.390625 C 6.484375 -3.484375 6.347656 -3.597656 6.234375 -3.734375 L 2.890625 -9.03125 L 3.34375 -9.96875 L 3.34375 -1.078125 C 3.34375 -0.765625 3.25 -0.503906 3.0625 -0.296875 C 2.875 -0.0976562 2.628906 0 2.328125 0 C 2.023438 0 1.78125 -0.0976562 1.59375 -0.296875 C 1.40625 -0.503906 1.3125 -0.765625 1.3125 -1.078125 L 1.3125 -11.25 C 1.3125 -11.539062 1.421875 -11.789062 1.640625 -12 C 1.859375 -12.21875 2.117188 -12.328125 2.421875 -12.328125 Z M 2.421875 -12.328125 "/></g></g></g><g fill="#ffffff" fill-opacity="1"><g transform="translate(192.337095, 211.268152)"><g><path d="M 5.84375 -9.546875 L 2.046875 -0.609375 C 1.960938 -0.390625 1.832031 -0.21875 1.65625 -0.09375 C 1.488281 0.03125 1.304688 0.09375 1.109375 0.09375 C 0.796875 0.09375 0.5625 0.00390625 0.40625 -0.171875 C 0.25 -0.347656 0.171875 -0.566406 0.171875 -0.828125 C 0.171875 -0.929688 0.191406 -1.039062 0.234375 -1.15625 L 4.609375 -11.671875 C 4.703125 -11.910156 4.84375 -12.09375 5.03125 -12.21875 C 5.226562 -12.34375 5.4375 -12.394531 5.65625 -12.375 C 5.875 -12.375 6.070312 -12.3125 6.25 -12.1875 C 6.425781 -12.0625 6.554688 -11.890625 6.640625 -11.671875 L 10.96875 -1.375 C 11.03125 -1.21875 11.0625 -1.078125 11.0625 -0.953125 C 11.0625 -0.628906 10.957031 -0.375 10.75 -0.1875 C 10.539062 0 10.316406 0.09375 10.078125 0.09375 C 9.859375 0.09375 9.664062 0.03125 9.5 -0.09375 C 9.332031 -0.226562 9.203125 -0.410156 9.109375 -0.640625 L 5.328125 -9.4375 Z M 2.578125 -2.765625 L 3.546875 -4.78125 L 8.296875 -4.78125 L 8.625 -2.765625 Z M 2.578125 -2.765625 "/></g></g></g><g fill="#ffffff" fill-opacity="1"><g transform="translate(203.570088, 211.268152)"><g><path d="M 6.59375 -12.3125 C 7.4375 -12.3125 8.1875 -12.148438 8.84375 -11.828125 C 9.5 -11.515625 10.050781 -11.070312 10.5 -10.5 C 10.957031 -9.9375 11.296875 -9.28125 11.515625 -8.53125 C 11.742188 -7.789062 11.859375 -7 11.859375 -6.15625 C 11.859375 -5.019531 11.65625 -3.984375 11.25 -3.046875 C 10.84375 -2.117188 10.25 -1.378906 9.46875 -0.828125 C 8.6875 -0.273438 7.726562 0 6.59375 0 L 2.390625 0 C 2.085938 0 1.832031 -0.0976562 1.625 -0.296875 C 1.414062 -0.503906 1.3125 -0.765625 1.3125 -1.078125 L 1.3125 -11.234375 C 1.3125 -11.535156 1.414062 -11.789062 1.625 -12 C 1.832031 -12.207031 2.085938 -12.3125 2.390625 -12.3125 Z M 6.421875 -2.015625 C 7.160156 -2.015625 7.765625 -2.207031 8.234375 -2.59375 C 8.703125 -2.976562 9.039062 -3.484375 9.25 -4.109375 C 9.46875 -4.734375 9.578125 -5.414062 9.578125 -6.15625 C 9.578125 -6.707031 9.515625 -7.226562 9.390625 -7.71875 C 9.273438 -8.21875 9.085938 -8.65625 8.828125 -9.03125 C 8.566406 -9.414062 8.238281 -9.71875 7.84375 -9.9375 C 7.445312 -10.164062 6.972656 -10.28125 6.421875 -10.28125 L 3.34375 -10.28125 L 3.515625 -10.4375 L 3.515625 -1.828125 L 3.40625 -2.015625 Z M 6.421875 -2.015625 "/></g></g></g><g fill="#ffffff" fill-opacity="1"><g transform="translate(216.139091, 211.268152)"><g><path d="M 2.390625 -12.3125 L 8.28125 -12.3125 C 8.582031 -12.3125 8.835938 -12.210938 9.046875 -12.015625 C 9.253906 -11.816406 9.359375 -11.566406 9.359375 -11.265625 C 9.359375 -10.972656 9.253906 -10.734375 9.046875 -10.546875 C 8.835938 -10.367188 8.582031 -10.28125 8.28125 -10.28125 L 3.359375 -10.28125 L 3.515625 -10.578125 L 3.515625 -7.15625 L 3.375 -7.296875 L 7.484375 -7.296875 C 7.796875 -7.296875 8.050781 -7.195312 8.25 -7 C 8.457031 -6.8125 8.5625 -6.566406 8.5625 -6.265625 C 8.5625 -5.960938 8.457031 -5.722656 8.25 -5.546875 C 8.050781 -5.367188 7.796875 -5.28125 7.484375 -5.28125 L 3.421875 -5.28125 L 3.515625 -5.421875 L 3.515625 -1.859375 L 3.375 -2.015625 L 8.28125 -2.015625 C 8.582031 -2.015625 8.835938 -1.910156 9.046875 -1.703125 C 9.253906 -1.503906 9.359375 -1.269531 9.359375 -1 C 9.359375 -0.707031 9.253906 -0.46875 9.046875 -0.28125 C 8.835938 -0.09375 8.582031 0 8.28125 0 L 2.390625 0 C 2.085938 0 1.832031 -0.0976562 1.625 -0.296875 C 1.414062 -0.503906 1.3125 -0.765625 1.3125 -1.078125 L 1.3125 -11.234375 C 1.3125 -11.535156 1.414062 -11.789062 1.625 -12 C 1.832031 -12.207031 2.085938 -12.3125 2.390625 -12.3125 Z M 2.390625 -12.3125 "/></g></g></g><g fill="#ffffff" fill-opacity="1"><g transform="translate(226.194293, 211.268152)"><g><path d="M 3.515625 -1.078125 C 3.515625 -0.765625 3.398438 -0.503906 3.171875 -0.296875 C 2.953125 -0.0976562 2.695312 0 2.40625 0 C 2.082031 0 1.816406 -0.0976562 1.609375 -0.296875 C 1.410156 -0.503906 1.3125 -0.765625 1.3125 -1.078125 L 1.3125 -11.234375 C 1.3125 -11.535156 1.414062 -11.789062 1.625 -12 C 1.84375 -12.207031 2.113281 -12.3125 2.4375 -12.3125 C 2.71875 -12.3125 2.96875 -12.207031 3.1875 -12 C 3.40625 -11.789062 3.515625 -11.535156 3.515625 -11.234375 Z M 3.515625 -1.078125 "/></g></g></g><g fill="#ffffff" fill-opacity="1"><g transform="translate(231.028525, 211.268152)"><g><path d="M 2.578125 0 C 2.253906 0 1.960938 -0.0976562 1.703125 -0.296875 C 1.441406 -0.503906 1.3125 -0.765625 1.3125 -1.078125 L 1.3125 -11.234375 C 1.3125 -11.535156 1.414062 -11.789062 1.625 -12 C 1.832031 -12.207031 2.085938 -12.3125 2.390625 -12.3125 L 7.453125 -12.3125 C 8.066406 -12.3125 8.640625 -12.148438 9.171875 -11.828125 C 9.703125 -11.503906 10.128906 -11.054688 10.453125 -10.484375 C 10.785156 -9.921875 10.953125 -9.269531 10.953125 -8.53125 C 10.953125 -8.082031 10.859375 -7.644531 10.671875 -7.21875 C 10.492188 -6.800781 10.25 -6.421875 9.9375 -6.078125 C 9.625 -5.742188 9.273438 -5.484375 8.890625 -5.296875 L 8.90625 -5.703125 C 9.238281 -5.523438 9.515625 -5.316406 9.734375 -5.078125 C 9.953125 -4.835938 10.117188 -4.578125 10.234375 -4.296875 C 10.359375 -4.023438 10.429688 -3.726562 10.453125 -3.40625 C 10.503906 -3.113281 10.535156 -2.851562 10.546875 -2.625 C 10.566406 -2.40625 10.601562 -2.21875 10.65625 -2.0625 C 10.707031 -1.914062 10.8125 -1.800781 10.96875 -1.71875 C 11.226562 -1.570312 11.390625 -1.351562 11.453125 -1.0625 C 11.515625 -0.78125 11.445312 -0.523438 11.25 -0.296875 C 11.125 -0.148438 10.957031 -0.0546875 10.75 -0.015625 C 10.550781 0.0234375 10.351562 0.0234375 10.15625 -0.015625 C 9.957031 -0.0546875 9.796875 -0.109375 9.671875 -0.171875 C 9.472656 -0.296875 9.269531 -0.46875 9.0625 -0.6875 C 8.863281 -0.914062 8.703125 -1.222656 8.578125 -1.609375 C 8.460938 -2.003906 8.40625 -2.503906 8.40625 -3.109375 C 8.40625 -3.304688 8.367188 -3.488281 8.296875 -3.65625 C 8.222656 -3.832031 8.125 -3.984375 8 -4.109375 C 7.875 -4.234375 7.707031 -4.328125 7.5 -4.390625 C 7.300781 -4.453125 7.066406 -4.484375 6.796875 -4.484375 L 3.25 -4.484375 L 3.515625 -4.890625 L 3.515625 -1.078125 C 3.515625 -0.765625 3.429688 -0.503906 3.265625 -0.296875 C 3.109375 -0.0976562 2.878906 0 2.578125 0 Z M 3.265625 -6.296875 L 7.359375 -6.296875 C 7.578125 -6.296875 7.785156 -6.390625 7.984375 -6.578125 C 8.179688 -6.773438 8.34375 -7.039062 8.46875 -7.375 C 8.601562 -7.707031 8.671875 -8.070312 8.671875 -8.46875 C 8.671875 -8.988281 8.53125 -9.421875 8.25 -9.765625 C 7.976562 -10.109375 7.679688 -10.28125 7.359375 -10.28125 L 3.3125 -10.28125 L 3.515625 -10.84375 L 3.515625 -5.875 Z M 3.265625 -6.296875 "/></g></g></g><g fill="#ffffff" fill-opacity="1"><g transform="translate(243.105312, 211.268152)"><g><path d="M 5.84375 -9.546875 L 2.046875 -0.609375 C 1.960938 -0.390625 1.832031 -0.21875 1.65625 -0.09375 C 1.488281 0.03125 1.304688 0.09375 1.109375 0.09375 C 0.796875 0.09375 0.5625 0.00390625 0.40625 -0.171875 C 0.25 -0.347656 0.171875 -0.566406 0.171875 -0.828125 C 0.171875 -0.929688 0.191406 -1.039062 0.234375 -1.15625 L 4.609375 -11.671875 C 4.703125 -11.910156 4.84375 -12.09375 5.03125 -12.21875 C 5.226562 -12.34375 5.4375 -12.394531 5.65625 -12.375 C 5.875 -12.375 6.070312 -12.3125 6.25 -12.1875 C 6.425781 -12.0625 6.554688 -11.890625 6.640625 -11.671875 L 10.96875 -1.375 C 11.03125 -1.21875 11.0625 -1.078125 11.0625 -0.953125 C 11.0625 -0.628906 10.957031 -0.375 10.75 -0.1875 C 10.539062 0 10.316406 0.09375 10.078125 0.09375 C 9.859375 0.09375 9.664062 0.03125 9.5 -0.09375 C 9.332031 -0.226562 9.203125 -0.410156 9.109375 -0.640625 L 5.328125 -9.4375 Z M 2.578125 -2.765625 L 3.546875 -4.78125 L 8.296875 -4.78125 L 8.625 -2.765625 Z M 2.578125 -2.765625 "/></g></g></g></svg>