<?xml version="1.0" standalone="no"?>
<!DOCTYPE svg PUBLIC "-//W3C//DTD SVG 20010904//EN"
 "http://www.w3.org/TR/2001/REC-SVG-20010904/DTD/svg10.dtd">
<svg version="1.0" xmlns="http://www.w3.org/2000/svg"
 width="396.000000pt" height="127.000000pt" viewBox="0 0 396.000000 127.000000"
 preserveAspectRatio="xMidYMid meet">

<g transform="translate(0.000000,127.000000) scale(0.100000,-0.100000)"
fill="#000000" stroke="none">
<path d="M1522 1243 c-49 -24 -263 -255 -287 -309 -19 -44 -19 -48 -2 -167 19
-133 36 -170 80 -175 40 -5 53 6 136 114 85 111 128 140 186 130 26 -5 61 -34
157 -131 l123 -125 62 1 c59 1 64 3 117 51 31 27 53 55 50 60 -4 6 -2 8 3 5
11 -7 31 11 31 26 0 5 4 12 8 15 4 4 3 0 -1 -8 -8 -13 -7 -13 8 -1 19 15 23
36 5 25 -6 -4 -8 -3 -4 4 3 6 -2 15 -11 21 -16 9 -16 10 4 8 12 0 20 -4 17 -8
-2 -4 1 -11 7 -14 11 -8 38 23 35 40 -2 5 -1 7 1 4 2 -4 20 2 41 12 20 11 44
19 54 19 10 0 18 5 18 10 0 6 8 10 17 10 9 0 13 3 10 7 -4 3 -19 0 -34 -8 -20
-11 -27 -11 -30 -1 -3 6 -12 12 -21 11 -11 0 -12 -2 -4 -6 25 -10 11 -22 -15
-13 -25 9 -26 9 -10 -4 17 -13 17 -14 -6 -12 -29 1 -35 36 -6 36 18 0 19 8 19
119 0 86 3 121 13 124 18 8 -13 28 -35 23 -25 -6 -23 25 1 31 25 6 35 43 13
44 -12 0 -13 2 -4 6 7 3 22 -3 33 -13 10 -9 19 -13 19 -8 0 6 17 8 38 6 20 -3
35 -2 32 1 -3 4 -22 7 -42 9 -44 2 -40 17 5 19 l32 2 -30 4 c-16 3 -33 9 -36
14 -3 6 -18 7 -33 3 -21 -5 -24 -9 -14 -15 9 -6 6 -9 -12 -9 -18 0 -48 -23
-108 -83 -46 -46 -79 -87 -75 -93 4 -5 4 -6 -1 -2 -5 4 -21 1 -37 -7 -33 -17
-105 -20 -114 -4 -4 6 -14 8 -22 5 -8 -3 -12 -2 -9 2 6 10 -169 185 -201 201
-32 16 -133 13 -171 -6z m686 -73 c-7 -11 -17 -20 -22 -20 -5 0 -1 9 9 20 10
11 20 20 22 20 2 0 -2 -9 -9 -20z m19 -25 c-4 -8 -12 -15 -19 -14 -10 0 -10 2
0 6 6 2 12 12 12 21 0 8 3 13 6 9 4 -3 4 -13 1 -22z m-41 -17 c5 -7 2 -9 -8
-5 -9 3 -22 0 -29 -6 -11 -10 -11 -9 0 6 16 20 27 22 37 5z m84 -186 c0 -5 -7
-9 -15 -9 -8 0 -15 4 -15 9 0 4 7 8 15 8 8 0 15 -4 15 -8z m-150 -236 c0 -2
-8 -10 -17 -17 -16 -13 -17 -12 -4 4 13 16 21 21 21 13z"/>
<path d="M2383 1253 c9 -2 18 -11 18 -19 3 -28 4 -32 13 -41 6 -5 6 -2 1 6 -6
11 -4 13 8 8 8 -3 21 1 27 9 10 11 6 17 -23 29 -20 8 -42 14 -49 14 -7 -1 -5
-3 5 -6z m57 -23 c12 -8 11 -10 -7 -10 -13 0 -23 5 -23 10 0 13 11 13 30 0z"/>
<path d="M2465 1208 c-5 -7 -5 -10 -1 -6 9 8 45 -24 39 -35 -3 -4 1 -6 8 -5 7
2 13 -3 14 -9 0 -7 4 -13 8 -14 20 -2 14 10 -22 45 -29 28 -41 34 -46 24z"/>
<path d="M2320 1121 c0 -5 7 -11 15 -15 9 -3 15 0 15 9 0 8 -7 15 -15 15 -8 0
-15 -4 -15 -9z"/>
<path d="M2550 1126 c0 -2 8 -10 18 -17 15 -13 16 -12 3 4 -13 16 -21 21 -21
13z"/>
<path d="M2624 1038 c-4 -7 -4 -10 1 -6 4 4 15 2 24 -5 14 -11 14 -10 2 6 -16
20 -18 21 -27 5z"/>
<path d="M2327 953 c-13 -12 -7 -33 8 -33 8 0 15 9 15 20 0 20 -11 26 -23 13z"/>
<path d="M2422 855 c-6 -8 -19 -12 -27 -9 -8 4 -15 1 -15 -7 0 -7 3 -9 6 -6 9
9 49 -24 85 -69 16 -20 29 -32 29 -27 0 5 -9 18 -20 28 -16 15 -18 21 -7 33 9
13 9 14 0 8 -7 -4 -23 1 -36 11 l-24 17 21 18 c12 9 17 17 11 17 -5 0 -16 -6
-23 -14z"/>
<path d="M2731 854 c0 -11 3 -14 6 -6 3 7 2 16 -1 19 -3 4 -6 -2 -5 -13z"/>
<path d="M2454 844 c-18 -14 -18 -15 4 -4 12 6 22 13 22 15 0 8 -5 6 -26 -11z"/>
<path d="M2505 780 c-3 -5 -2 -18 4 -27 7 -14 9 -12 8 10 -2 30 -3 31 -12 17z"/>
<path d="M2680 620 c-9 -6 -10 -10 -3 -10 6 0 15 5 18 10 8 12 4 12 -15 0z"/>
<path d="M18 493 c-16 -4 -18 -20 -18 -149 l0 -145 33 3 32 3 1 83 c1 46 4 85
6 87 2 3 17 -18 33 -45 39 -67 61 -66 100 3 l30 52 3 -92 3 -93 29 0 30 0 0
145 0 145 -29 0 c-24 0 -35 -10 -71 -65 -23 -36 -45 -65 -49 -65 -3 1 -25 32
-49 70 -24 39 -49 69 -55 69 -7 -1 -20 -3 -29 -6z"/>
<path d="M413 367 c-28 -72 -55 -140 -58 -149 -6 -15 -2 -18 24 -18 27 0 34 5
47 35 14 34 15 35 73 35 59 0 60 0 71 -35 10 -31 16 -35 46 -35 l34 0 -19 48
c-76 191 -95 234 -111 242 -45 24 -53 15 -107 -123z m108 -2 c9 -25 13 -45 8
-46 -38 -4 -64 -2 -64 7 1 21 29 94 34 89 3 -3 13 -26 22 -50z"/>
<path d="M690 350 l0 -150 30 0 c28 0 29 1 32 58 3 55 4 57 33 60 28 3 33 -1
55 -50 18 -37 33 -56 52 -62 15 -6 30 -7 33 -4 3 3 -6 31 -20 63 l-26 58 21
21 c28 30 28 98 -1 124 -25 24 -62 32 -145 32 l-64 0 0 -150z m167 74 c11 -30
-11 -49 -61 -52 l-46 -3 0 35 0 36 50 0 c38 0 52 -4 57 -16z"/>
<path d="M1023 480 c-43 -26 -63 -68 -63 -132 0 -91 53 -148 139 -148 56 0 91
18 91 47 0 26 -1 27 -54 12 -68 -19 -116 18 -116 91 0 80 64 121 132 86 25
-13 28 -13 34 7 16 52 -97 78 -163 37z"/>
<path d="M1267 358 c-32 -79 -57 -146 -57 -150 0 -5 13 -8 29 -8 25 0 32 6 42
35 13 35 13 35 74 35 61 0 61 0 74 -35 10 -29 17 -35 42 -35 16 0 29 5 29 10
0 23 -103 266 -118 278 -9 6 -25 12 -37 12 -18 0 -30 -22 -78 -142z m123 -24
c0 -7 -16 -14 -35 -16 -40 -5 -41 0 -18 61 l17 45 18 -40 c10 -21 18 -44 18
-50z"/>
<path d="M2731 294 c0 -11 3 -14 6 -6 3 7 2 16 -1 19 -3 4 -6 -2 -5 -13z"/>
</g>
</svg>
