<svg xmlns="http://www.w3.org/2000/svg" xmlns:xlink="http://www.w3.org/1999/xlink" width="500" zoomAndPan="magnify" viewBox="0 0 375 374.999991" height="500" preserveAspectRatio="xMidYMid meet" version="1.0"><path fill="#333333" d="M 375.054688 187.546875 C 375.054688 291.101562 291.101562 375.054688 187.546875 375.054688 C 83.988281 375.054688 0.0390625 291.101562 0.0390625 187.546875 C 0.0390625 83.988281 83.988281 0.0390625 187.546875 0.0390625 C 291.101562 0.0390625 375.054688 83.988281 375.054688 187.546875 " fill-opacity="1" fill-rule="nonzero"/><path fill="#514869" d="M 181.058594 274.460938 C 174.816406 282.253906 163.46875 283.574219 155.597656 277.4375 L 71.277344 211.636719 C 61.066406 203.671875 59.25 188.941406 67.21875 178.730469 C 75.183594 168.519531 89.917969 166.703125 100.125 174.671875 L 156.644531 218.769531 C 159.695312 221.15625 164.089844 220.636719 166.511719 217.617188 L 271.09375 87.089844 C 279.1875 76.984375 293.945312 75.355469 304.046875 83.453125 C 314.15625 91.546875 315.785156 106.304688 307.6875 116.410156 L 181.058594 274.460938 " fill-opacity="1" fill-rule="nonzero"/></svg>